G04*
G04 #@! TF.GenerationSoftware,Altium Limited,Altium Designer,25.1.2 (22)*
G04*
G04 Layer_Color=32896*
%FSLAX44Y44*%
%MOMM*%
G71*
G04*
G04 #@! TF.SameCoordinates,64B4FDAD-AF64-4148-92BB-00BBC35E7A55*
G04*
G04*
G04 #@! TF.FilePolarity,Positive*
G04*
G01*
G75*
%ADD10C,0.2500*%
%ADD12C,0.2000*%
D10*
X84750Y569000D02*
G03*
X84750Y569000I-1250J0D01*
G01*
D12*
X67000Y499250D02*
X74950D01*
X92450D02*
X100350D01*
X117850D02*
X125750D01*
X143250D02*
X151150D01*
X168650D02*
X176550D01*
X194050D02*
X201950D01*
X219450D02*
X227350D01*
X244850D02*
X252750D01*
X270250D02*
X278150D01*
X295650D02*
X303550D01*
X321050D02*
X328950D01*
X346450D02*
X354350D01*
X371850D02*
X379750D01*
X397250D02*
X405150D01*
X422650D02*
X430550D01*
X448050D02*
X455950D01*
X473450D02*
X481350D01*
X498850D02*
X506750D01*
X524250D02*
X532150D01*
X549650D02*
X557550D01*
X575050D02*
X583000D01*
Y550750D01*
X67000D02*
X74950D01*
X92450D02*
X100350D01*
X117850D02*
X125750D01*
X143250D02*
X151150D01*
X168650D02*
X176550D01*
X194050D02*
X201950D01*
X219450D02*
X227350D01*
X244850D02*
X252750D01*
X270250D02*
X278150D01*
X295650D02*
X303550D01*
X321050D02*
X328950D01*
X346450D02*
X354350D01*
X371850D02*
X379750D01*
X397250D02*
X405150D01*
X422650D02*
X430550D01*
X448050D02*
X455950D01*
X473450D02*
X481350D01*
X498850D02*
X506750D01*
X524250D02*
X532150D01*
X549650D02*
X557550D01*
X575050D02*
X583000D01*
X67000Y499250D02*
Y550750D01*
X559998Y454000D02*
Y450668D01*
Y452334D01*
X551668D01*
X550002Y450668D01*
Y449002D01*
X551668Y447336D01*
X550002Y457332D02*
Y460664D01*
Y458998D01*
X559998D01*
X558332Y457332D01*
M02*
