M48
;Layer_Color=9474304
;FILE_FORMAT=4:4
METRIC,LZ
;TYPE=PLATED
T01F00S00C0.9000
T02F00S00C1.0200
T03F00S00C2.7500
%
T01
X001143Y002544
Y002794
Y003044
Y003818
X002032
Y003048
Y002798
Y002548
X002921
Y002798
Y003048
Y003818
X00381
Y003048
Y002798
Y002548
X004699
Y002798
Y003048
Y003818
X005588
Y003048
Y002798
Y002548
Y004068
Y004318
X004699
Y004068
X00381
Y004318
X002921
Y004068
X002032
Y004318
X001143
Y004068
T02
X004139Y005123
Y005377
X004393
X004647
X004901
X005155
X005409
X005663
Y005123
X005409
X005155
X004901
X004647
X004393
X003885
Y005377
X003631
X003377
X003123
X002869
X002615
X002361
X002107
X001853
X001599
X001345
X001091
X000837
Y005123
X001091
X001345
X001599
X001853
X002107
X002361
X002615
X002869
X003123
X003377
X003631
T03
X00035Y00035
X00615
Y00525
X00035
M30
