G04*
G04 #@! TF.GenerationSoftware,Altium Limited,Altium Designer,25.1.2 (22)*
G04*
G04 Layer_Color=16711935*
%FSLAX44Y44*%
%MOMM*%
G71*
G04*
G04 #@! TF.SameCoordinates,64B4FDAD-AF64-4148-92BB-00BBC35E7A55*
G04*
G04*
G04 #@! TF.FilePolarity,Positive*
G04*
G01*
G75*
%ADD11C,0.2540*%
D11*
X460000Y190000D02*
G03*
X450000Y200000I-10000J0D01*
G01*
Y30000D02*
G03*
X460000Y40000I0J10000D01*
G01*
X450000Y200000D02*
G03*
X440000Y190000I0J-10000D01*
G01*
Y40000D02*
G03*
X450000Y30000I10000J0D01*
G01*
X50000Y355000D02*
G03*
X40000Y365000I-10000J0D01*
G01*
Y195000D02*
G03*
X50000Y205000I0J10000D01*
G01*
X30000Y565000D02*
G03*
X0Y535000I0J-30000D01*
G01*
X650000D02*
G03*
X620000Y565000I-30000J0D01*
G01*
Y0D02*
G03*
X650000Y30000I0J30000D01*
G01*
X0D02*
G03*
X30000Y0I30000J0D01*
G01*
X0Y375000D02*
G03*
X10000Y365000I10000J0D01*
G01*
Y195000D02*
G03*
X0Y185000I0J-10000D01*
G01*
X460000Y40000D02*
Y190000D01*
X440000Y40000D02*
Y190000D01*
X10000Y365000D02*
X40000D01*
X10000Y195000D02*
X40000Y195000D01*
X50000Y205000D02*
Y355000D01*
X30000Y-0D02*
X620000Y0D01*
X650000Y535000D02*
X650000Y30000D01*
X0D02*
Y185000D01*
Y375000D02*
Y535000D01*
X30000Y565000D02*
X620000Y565000D01*
M02*
