G04*
G04 #@! TF.GenerationSoftware,Altium Limited,Altium Designer,25.1.2 (22)*
G04*
G04 Layer_Color=65535*
%FSLAX44Y44*%
%MOMM*%
G71*
G04*
G04 #@! TF.SameCoordinates,64B4FDAD-AF64-4148-92BB-00BBC35E7A55*
G04*
G04*
G04 #@! TF.FilePolarity,Positive*
G04*
G01*
G75*
%ADD10C,0.2500*%
%ADD11C,0.2540*%
%ADD12C,0.2000*%
G36*
X552069Y161004D02*
X551974D01*
Y160909D01*
X551879D01*
Y160718D01*
X551783D01*
Y160528D01*
X551688D01*
Y160433D01*
X551593D01*
Y160242D01*
X551497D01*
Y160147D01*
X551402D01*
Y159957D01*
X551307D01*
Y159861D01*
X551212D01*
Y159671D01*
X551116D01*
Y159480D01*
X551021D01*
Y159385D01*
X550926D01*
Y159194D01*
X550831D01*
Y159099D01*
X550736D01*
Y158909D01*
X550640D01*
Y158718D01*
X550545D01*
Y158623D01*
X550450D01*
Y158433D01*
X550354D01*
Y158337D01*
X550259D01*
Y158147D01*
X550164D01*
Y157956D01*
X550069D01*
Y157861D01*
X549973D01*
Y157670D01*
X549878D01*
Y157575D01*
X549783D01*
Y157385D01*
X549688D01*
Y157289D01*
X549593D01*
Y157099D01*
X549497D01*
Y156909D01*
X549402D01*
Y156813D01*
X549307D01*
Y156623D01*
X549212D01*
Y156528D01*
X549116D01*
Y156337D01*
X549021D01*
Y156146D01*
X548926D01*
Y156051D01*
X548830D01*
Y155861D01*
X548735D01*
Y155765D01*
X548640D01*
Y155575D01*
X548545D01*
Y155385D01*
X548450D01*
Y155289D01*
X548354D01*
Y155099D01*
X548259D01*
Y155003D01*
X548164D01*
Y154813D01*
X548069D01*
Y154718D01*
X547973D01*
Y154527D01*
X547878D01*
Y154337D01*
X547783D01*
Y154242D01*
X547687D01*
Y154051D01*
X547592D01*
Y153956D01*
X547497D01*
Y153765D01*
X547402D01*
Y153575D01*
X547307D01*
Y153479D01*
X547211D01*
Y153289D01*
X547116D01*
Y153194D01*
X547021D01*
Y153003D01*
X546926D01*
Y152813D01*
X546830D01*
Y152718D01*
X546735D01*
Y152527D01*
X546640D01*
Y152432D01*
X546544D01*
Y152241D01*
X546449D01*
Y152146D01*
X546354D01*
Y151955D01*
X546259D01*
Y151765D01*
X546163D01*
Y151670D01*
X546068D01*
Y151479D01*
X545973D01*
Y151384D01*
X545878D01*
Y151194D01*
X545783D01*
Y151003D01*
X545687D01*
Y150908D01*
X545592D01*
Y150717D01*
X545497D01*
Y150622D01*
X545401D01*
Y150431D01*
X545306D01*
Y150336D01*
X545211D01*
Y150146D01*
X545116D01*
Y149955D01*
X545020D01*
Y149860D01*
X544925D01*
Y149670D01*
X544830D01*
Y149574D01*
X544735D01*
Y149384D01*
X544640D01*
Y149193D01*
X544544D01*
Y149098D01*
X544449D01*
Y148907D01*
X544354D01*
Y148812D01*
X544258D01*
Y148622D01*
X544163D01*
Y148431D01*
X544068D01*
Y148336D01*
X543973D01*
Y148146D01*
X543877D01*
Y148050D01*
X543782D01*
Y147860D01*
X543687D01*
Y147765D01*
X543592D01*
Y147574D01*
X543497D01*
Y147383D01*
X543401D01*
Y147288D01*
X543306D01*
Y147098D01*
X543211D01*
Y147002D01*
X543116D01*
Y146812D01*
X543020D01*
Y146622D01*
X542925D01*
Y146526D01*
X542830D01*
Y146431D01*
X542734D01*
Y146336D01*
X536638D01*
Y146526D01*
X536734D01*
Y146717D01*
X536829D01*
Y146812D01*
X536924D01*
Y147002D01*
X537020D01*
Y147193D01*
X537115D01*
Y147288D01*
X537210D01*
Y147479D01*
X537305D01*
Y147574D01*
X537401D01*
Y147765D01*
X537496D01*
Y147860D01*
X537591D01*
Y148050D01*
X537686D01*
Y148241D01*
X537781D01*
Y148336D01*
X537877D01*
Y148526D01*
X537972D01*
Y148622D01*
X538067D01*
Y148812D01*
X538162D01*
Y149003D01*
X538258D01*
Y149098D01*
X538353D01*
Y149289D01*
X538448D01*
Y149384D01*
X538544D01*
Y149574D01*
X538639D01*
Y149670D01*
X538734D01*
Y149860D01*
X538829D01*
Y150050D01*
X538924D01*
Y150146D01*
X539020D01*
Y150336D01*
X539115D01*
Y150431D01*
X539210D01*
Y150622D01*
X539305D01*
Y150813D01*
X539401D01*
Y150908D01*
X539496D01*
Y151098D01*
X539591D01*
Y151194D01*
X539687D01*
Y151384D01*
X539782D01*
Y151574D01*
X539877D01*
Y151670D01*
X539972D01*
Y151860D01*
X540067D01*
Y151955D01*
X540163D01*
Y152146D01*
X540258D01*
Y152241D01*
X540353D01*
Y152432D01*
X540448D01*
Y152622D01*
X540544D01*
Y152718D01*
X540639D01*
Y152908D01*
X540734D01*
Y153003D01*
X540830D01*
Y153194D01*
X540925D01*
Y153384D01*
X541020D01*
Y153479D01*
X541115D01*
Y153670D01*
X541211D01*
Y153765D01*
X541306D01*
Y153956D01*
X541401D01*
Y154146D01*
X541496D01*
Y154242D01*
X541591D01*
Y154432D01*
X541687D01*
Y154527D01*
X541782D01*
Y154718D01*
X541877D01*
Y154813D01*
X541973D01*
Y155003D01*
X542068D01*
Y155194D01*
X542163D01*
Y155289D01*
X542258D01*
Y155480D01*
X542354D01*
Y155575D01*
X542449D01*
Y155765D01*
X542544D01*
Y155956D01*
X542639D01*
Y156051D01*
X542734D01*
Y156242D01*
X542830D01*
Y156337D01*
X542925D01*
Y156528D01*
X543020D01*
Y156623D01*
X543116D01*
Y156813D01*
X543211D01*
Y157004D01*
X543306D01*
Y157099D01*
X543401D01*
Y157289D01*
X543497D01*
Y157385D01*
X543592D01*
Y157575D01*
X543687D01*
Y157766D01*
X543782D01*
Y157861D01*
X543877D01*
Y158052D01*
X543973D01*
Y158147D01*
X544068D01*
Y158337D01*
X544163D01*
Y158528D01*
X544258D01*
Y158623D01*
X544354D01*
Y158813D01*
X544449D01*
Y158909D01*
X544544D01*
Y159099D01*
X544640D01*
Y159194D01*
X544735D01*
Y159385D01*
X544830D01*
Y159576D01*
X544925D01*
Y159671D01*
X545020D01*
Y159861D01*
X545116D01*
Y159957D01*
X545211D01*
Y160147D01*
X545306D01*
Y160338D01*
X545401D01*
Y160433D01*
X545497D01*
Y160623D01*
X545592D01*
Y160718D01*
X545687D01*
Y160909D01*
X545783D01*
Y161099D01*
X552069D01*
Y161004D01*
D02*
G37*
G36*
X552164Y175673D02*
X552355D01*
Y175578D01*
X552450D01*
Y175482D01*
X552640D01*
Y175387D01*
X552831D01*
Y175292D01*
X552926D01*
Y175196D01*
X553117D01*
Y175101D01*
X553307D01*
Y175006D01*
X553498D01*
Y174911D01*
X553593D01*
Y174816D01*
X553783D01*
Y174720D01*
X553974D01*
Y174625D01*
X554165D01*
Y174530D01*
X554260D01*
Y174435D01*
X554450D01*
Y174339D01*
X554641D01*
Y174244D01*
X554831D01*
Y174149D01*
X554926D01*
Y174053D01*
X555117D01*
Y173958D01*
X555308D01*
Y173863D01*
X555403D01*
Y173768D01*
X555593D01*
Y173673D01*
X555784D01*
Y173577D01*
X555974D01*
Y173482D01*
X556069D01*
Y173387D01*
X556260D01*
Y173291D01*
X556451D01*
Y173196D01*
X556641D01*
Y173101D01*
X556736D01*
Y173006D01*
X556927D01*
Y172910D01*
X557117D01*
Y172815D01*
X557308D01*
Y172720D01*
X557403D01*
Y172625D01*
X557593D01*
Y172530D01*
X557784D01*
Y172434D01*
X557879D01*
Y172339D01*
X558070D01*
Y172244D01*
X558260D01*
Y172148D01*
X558451D01*
Y172053D01*
X558546D01*
Y171958D01*
X558736D01*
Y171863D01*
X558927D01*
Y171768D01*
X559118D01*
Y171672D01*
X559213D01*
Y171577D01*
X559403D01*
Y171482D01*
X559594D01*
Y171387D01*
X559689D01*
Y171291D01*
X559879D01*
Y171196D01*
X560070D01*
Y171101D01*
X560261D01*
Y171005D01*
X560356D01*
Y170910D01*
X560546D01*
Y170815D01*
X560737D01*
Y170720D01*
X560927D01*
Y170625D01*
X561022D01*
Y170529D01*
X561213D01*
Y170434D01*
X561404D01*
Y170339D01*
X561594D01*
Y170243D01*
X561689D01*
Y170148D01*
X561880D01*
Y170053D01*
X562070D01*
Y169958D01*
X562165D01*
Y169862D01*
X562356D01*
Y169767D01*
X562547D01*
Y169672D01*
X562737D01*
Y169577D01*
X562832D01*
Y169482D01*
X563023D01*
Y169386D01*
X563213D01*
Y169291D01*
X563404D01*
Y169196D01*
X563499D01*
Y169100D01*
X563689D01*
Y169005D01*
X563880D01*
Y168910D01*
X564071D01*
Y168815D01*
X564166D01*
Y168720D01*
X564356D01*
Y168624D01*
X564547D01*
Y168529D01*
X564642D01*
Y168434D01*
X564832D01*
Y168339D01*
X565023D01*
Y168243D01*
X565214D01*
Y168148D01*
X565309D01*
Y168053D01*
X565499D01*
Y167957D01*
X565690D01*
Y167862D01*
X565880D01*
Y167767D01*
X565975D01*
Y167672D01*
X566166D01*
Y167577D01*
X566357D01*
Y167481D01*
X566547D01*
Y167386D01*
X566642D01*
Y167291D01*
X566833D01*
Y167195D01*
X567023D01*
Y167100D01*
X567118D01*
Y167005D01*
X567309D01*
Y166910D01*
X567500D01*
Y166814D01*
X567690D01*
Y166719D01*
X567785D01*
Y166624D01*
X567976D01*
Y166529D01*
X568166D01*
Y166434D01*
X568357D01*
Y166338D01*
X568452D01*
Y166243D01*
X568643D01*
Y166148D01*
X568833D01*
Y166052D01*
X568928D01*
Y165957D01*
X569119D01*
Y165862D01*
X569309D01*
Y165767D01*
X569500D01*
Y165672D01*
X569595D01*
Y165576D01*
X569785D01*
Y165481D01*
X569976D01*
Y165386D01*
X570167D01*
Y165291D01*
X570262D01*
Y165195D01*
X570452D01*
Y165100D01*
X570643D01*
Y165005D01*
X570833D01*
Y164909D01*
X570928D01*
Y164814D01*
X571119D01*
Y164719D01*
X571310D01*
Y164624D01*
X571405D01*
Y164529D01*
X571595D01*
Y164433D01*
X571786D01*
Y164338D01*
X571976D01*
Y164243D01*
X572071D01*
Y164147D01*
X572262D01*
Y164052D01*
X572453D01*
Y163957D01*
X572643D01*
Y163862D01*
X572738D01*
Y163766D01*
X572929D01*
Y163671D01*
X573119D01*
Y163576D01*
X573310D01*
Y163481D01*
X573405D01*
Y163386D01*
X573596D01*
Y163290D01*
X573786D01*
Y163195D01*
X573881D01*
Y163100D01*
X574072D01*
Y163004D01*
X574262D01*
Y162909D01*
X574453D01*
Y162814D01*
X574548D01*
Y162719D01*
X574739D01*
Y162624D01*
X574929D01*
Y162528D01*
X575120D01*
Y162433D01*
X575215D01*
Y162338D01*
X575405D01*
Y162243D01*
X575596D01*
Y162147D01*
X575691D01*
Y162052D01*
X575882D01*
Y161957D01*
X576072D01*
Y161861D01*
X576263D01*
Y161766D01*
X576358D01*
Y161671D01*
X576548D01*
Y161576D01*
X576739D01*
Y161481D01*
X576929D01*
Y161385D01*
X577024D01*
Y161290D01*
X577215D01*
Y161195D01*
X577406D01*
Y161099D01*
X577501D01*
Y146431D01*
X585883D01*
Y146241D01*
X585788D01*
Y146145D01*
X585692D01*
Y146050D01*
X585597D01*
Y145955D01*
X585502D01*
Y145859D01*
X585406D01*
Y145764D01*
X585311D01*
Y145669D01*
X585216D01*
Y145574D01*
X585121D01*
Y145478D01*
X585025D01*
Y145383D01*
X584930D01*
Y145288D01*
X584835D01*
Y145193D01*
X584740D01*
Y145098D01*
X584645D01*
Y145002D01*
X584549D01*
Y144907D01*
X584454D01*
Y144812D01*
X584359D01*
Y144717D01*
X584263D01*
Y144621D01*
X584168D01*
Y144526D01*
X584073D01*
Y144431D01*
X583978D01*
Y144335D01*
X583882D01*
Y144240D01*
X583787D01*
Y144145D01*
X583692D01*
Y144050D01*
X583597D01*
Y143954D01*
X583502D01*
Y143859D01*
X583406D01*
Y143764D01*
X583311D01*
Y143669D01*
X583216D01*
Y143574D01*
X583120D01*
Y143478D01*
X583025D01*
Y143383D01*
X582930D01*
Y143288D01*
X582835D01*
Y143193D01*
X582739D01*
Y143097D01*
X582644D01*
Y143002D01*
X582549D01*
Y142907D01*
X582454D01*
Y142811D01*
X582359D01*
Y142716D01*
X582263D01*
Y142621D01*
X582168D01*
Y142526D01*
X582073D01*
Y142430D01*
X581978D01*
Y142335D01*
X581882D01*
Y142240D01*
X581787D01*
Y142145D01*
X581692D01*
Y142050D01*
X581596D01*
Y141954D01*
X581501D01*
Y141859D01*
X581406D01*
Y141764D01*
X581311D01*
Y141669D01*
X581216D01*
Y141573D01*
X581120D01*
Y141478D01*
X581025D01*
Y141383D01*
X580930D01*
Y141287D01*
X580835D01*
Y141192D01*
X580739D01*
Y141097D01*
X580644D01*
Y141002D01*
X580549D01*
Y140906D01*
X580453D01*
Y140811D01*
X580358D01*
Y140716D01*
X580263D01*
Y140621D01*
X580168D01*
Y140526D01*
X580073D01*
Y140430D01*
X579977D01*
Y140335D01*
X579882D01*
Y140240D01*
X579787D01*
Y140145D01*
X579692D01*
Y140049D01*
X579596D01*
Y139954D01*
X579501D01*
Y139859D01*
X579406D01*
Y139763D01*
X579310D01*
Y139668D01*
X579215D01*
Y139573D01*
X579120D01*
Y139478D01*
X579025D01*
Y139382D01*
X578929D01*
Y139287D01*
X578834D01*
Y139192D01*
X578739D01*
Y139097D01*
X578644D01*
Y139002D01*
X578549D01*
Y138906D01*
X578453D01*
Y138811D01*
X578358D01*
Y138716D01*
X578263D01*
Y138621D01*
X578167D01*
Y138525D01*
X578072D01*
Y138430D01*
X577977D01*
Y138335D01*
X577882D01*
Y138239D01*
X577786D01*
Y138144D01*
X577691D01*
Y138049D01*
X577596D01*
Y137954D01*
X577310D01*
Y138049D01*
X577120D01*
Y138144D01*
X576929D01*
Y138239D01*
X576834D01*
Y138335D01*
X576643D01*
Y138430D01*
X576453D01*
Y138525D01*
X576263D01*
Y138621D01*
X576167D01*
Y138716D01*
X575977D01*
Y138811D01*
X575786D01*
Y138906D01*
X575596D01*
Y139002D01*
X575500D01*
Y139097D01*
X575310D01*
Y139192D01*
X575120D01*
Y139287D01*
X575024D01*
Y139382D01*
X574834D01*
Y139478D01*
X574643D01*
Y139573D01*
X574453D01*
Y139668D01*
X574357D01*
Y139763D01*
X574167D01*
Y139859D01*
X573977D01*
Y139954D01*
X573786D01*
Y140049D01*
X573691D01*
Y140145D01*
X573500D01*
Y140240D01*
X573310D01*
Y140335D01*
X573214D01*
Y158623D01*
X573119D01*
Y158718D01*
X572929D01*
Y158813D01*
X572834D01*
Y158909D01*
X572643D01*
Y159004D01*
X572453D01*
Y159099D01*
X572262D01*
Y159194D01*
X572167D01*
Y159290D01*
X571976D01*
Y159385D01*
X571786D01*
Y159480D01*
X571595D01*
Y159576D01*
X571500D01*
Y159671D01*
X571310D01*
Y159766D01*
X571119D01*
Y159861D01*
X570928D01*
Y159957D01*
X570833D01*
Y160052D01*
X570643D01*
Y160147D01*
X570452D01*
Y160242D01*
X570357D01*
Y160338D01*
X570167D01*
Y160433D01*
X569976D01*
Y160528D01*
X569785D01*
Y160623D01*
X569690D01*
Y160718D01*
X569500D01*
Y160814D01*
X569309D01*
Y160909D01*
X569119D01*
Y161004D01*
X569024D01*
Y161099D01*
X568833D01*
Y161195D01*
X568643D01*
Y161290D01*
X568452D01*
Y161385D01*
X568357D01*
Y161481D01*
X568166D01*
Y161576D01*
X567976D01*
Y161671D01*
X567881D01*
Y161766D01*
X567690D01*
Y161861D01*
X567500D01*
Y161957D01*
X567309D01*
Y162052D01*
X567214D01*
Y162147D01*
X567023D01*
Y162243D01*
X566833D01*
Y162338D01*
X566642D01*
Y162433D01*
X566547D01*
Y162528D01*
X566357D01*
Y162624D01*
X566166D01*
Y162719D01*
X565975D01*
Y162814D01*
X565880D01*
Y162909D01*
X565690D01*
Y163004D01*
X565499D01*
Y163100D01*
X565404D01*
Y163195D01*
X565214D01*
Y163290D01*
X565023D01*
Y163386D01*
X564832D01*
Y163481D01*
X564737D01*
Y163576D01*
X564547D01*
Y163671D01*
X564356D01*
Y163766D01*
X564166D01*
Y163862D01*
X564071D01*
Y163957D01*
X563880D01*
Y164052D01*
X563689D01*
Y164147D01*
X563594D01*
Y164243D01*
X563404D01*
Y164338D01*
X563213D01*
Y164433D01*
X563023D01*
Y164529D01*
X562928D01*
Y164624D01*
X562737D01*
Y164719D01*
X562547D01*
Y164814D01*
X562356D01*
Y164909D01*
X562261D01*
Y165005D01*
X562070D01*
Y165100D01*
X561880D01*
Y165195D01*
X561689D01*
Y165291D01*
X561594D01*
Y165386D01*
X561404D01*
Y165481D01*
X561213D01*
Y165576D01*
X561118D01*
Y165672D01*
X560927D01*
Y165767D01*
X560737D01*
Y165862D01*
X560546D01*
Y165957D01*
X560451D01*
Y166052D01*
X560261D01*
Y166148D01*
X560070D01*
Y166243D01*
X559879D01*
Y166338D01*
X559784D01*
Y166434D01*
X559594D01*
Y166529D01*
X559403D01*
Y166624D01*
X559213D01*
Y166719D01*
X559118D01*
Y166814D01*
X558927D01*
Y166910D01*
X558736D01*
Y167005D01*
X558641D01*
Y167100D01*
X558451D01*
Y167195D01*
X558260D01*
Y167291D01*
X558070D01*
Y167386D01*
X557975D01*
Y167481D01*
X557784D01*
Y167577D01*
X557593D01*
Y167672D01*
X557403D01*
Y167767D01*
X557308D01*
Y167862D01*
X557117D01*
Y167957D01*
X556927D01*
Y168053D01*
X556832D01*
Y168148D01*
X556641D01*
Y168243D01*
X556451D01*
Y168339D01*
X556260D01*
Y168434D01*
X556165D01*
Y168529D01*
X555974D01*
Y168624D01*
X555784D01*
Y168720D01*
X555593D01*
Y168815D01*
X555498D01*
Y168910D01*
X555308D01*
Y169005D01*
X555117D01*
Y169100D01*
X554926D01*
Y169196D01*
X554831D01*
Y169291D01*
X554641D01*
Y169386D01*
X554450D01*
Y169482D01*
X554355D01*
Y169577D01*
X554165D01*
Y169672D01*
X553974D01*
Y169767D01*
X553783D01*
Y169862D01*
X553688D01*
Y169958D01*
X553498D01*
Y170053D01*
X553307D01*
Y170148D01*
X553117D01*
Y170243D01*
X553022D01*
Y170339D01*
X552831D01*
Y170434D01*
X552640D01*
Y170529D01*
X552450D01*
Y170625D01*
X552355D01*
Y170720D01*
X552164D01*
Y170815D01*
X551879D01*
Y170720D01*
X551688D01*
Y170625D01*
X551593D01*
Y170529D01*
X551402D01*
Y170434D01*
X551212D01*
Y170339D01*
X551116D01*
Y170243D01*
X550926D01*
Y170148D01*
X550736D01*
Y170053D01*
X550545D01*
Y169958D01*
X550450D01*
Y169862D01*
X550259D01*
Y169767D01*
X550069D01*
Y169672D01*
X549878D01*
Y169577D01*
X549783D01*
Y169482D01*
X549593D01*
Y169386D01*
X549402D01*
Y169291D01*
X549307D01*
Y169196D01*
X549116D01*
Y169100D01*
X548926D01*
Y169005D01*
X548735D01*
Y168910D01*
X548640D01*
Y168815D01*
X548450D01*
Y168720D01*
X548259D01*
Y168624D01*
X548069D01*
Y168529D01*
X547973D01*
Y168434D01*
X547783D01*
Y168339D01*
X547592D01*
Y168243D01*
X547402D01*
Y168148D01*
X547307D01*
Y168053D01*
X547116D01*
Y167957D01*
X546926D01*
Y167862D01*
X546830D01*
Y167767D01*
X546640D01*
Y167672D01*
X546449D01*
Y167577D01*
X546259D01*
Y167481D01*
X546163D01*
Y167386D01*
X545973D01*
Y167291D01*
X545783D01*
Y167195D01*
X545592D01*
Y167100D01*
X545497D01*
Y167005D01*
X545306D01*
Y166910D01*
X545116D01*
Y166814D01*
X545020D01*
Y166719D01*
X544830D01*
Y166624D01*
X544640D01*
Y166529D01*
X544449D01*
Y166434D01*
X544354D01*
Y166338D01*
X544163D01*
Y166243D01*
X543973D01*
Y166148D01*
X543782D01*
Y166052D01*
X543687D01*
Y165957D01*
X543497D01*
Y165862D01*
X543306D01*
Y165767D01*
X543116D01*
Y165672D01*
X543020D01*
Y165576D01*
X542830D01*
Y165481D01*
X542639D01*
Y165386D01*
X542544D01*
Y165291D01*
X542354D01*
Y165195D01*
X542163D01*
Y165100D01*
X541973D01*
Y165005D01*
X541877D01*
Y164909D01*
X541687D01*
Y164814D01*
X541496D01*
Y164719D01*
X541306D01*
Y164624D01*
X541211D01*
Y164529D01*
X541020D01*
Y164433D01*
X540830D01*
Y164338D01*
X540639D01*
Y164243D01*
X540544D01*
Y164147D01*
X540353D01*
Y164052D01*
X540163D01*
Y163957D01*
X540067D01*
Y163862D01*
X539877D01*
Y163766D01*
X539687D01*
Y163671D01*
X539496D01*
Y163576D01*
X539401D01*
Y163481D01*
X539210D01*
Y163386D01*
X539020D01*
Y163290D01*
X538829D01*
Y163195D01*
X538734D01*
Y163100D01*
X538544D01*
Y163004D01*
X538353D01*
Y162909D01*
X538258D01*
Y162814D01*
X538067D01*
Y162719D01*
X537877D01*
Y162624D01*
X537686D01*
Y162528D01*
X537591D01*
Y162433D01*
X537401D01*
Y162338D01*
X537210D01*
Y162243D01*
X537020D01*
Y162147D01*
X536924D01*
Y162052D01*
X536734D01*
Y161957D01*
X536543D01*
Y161861D01*
X536353D01*
Y161766D01*
X536258D01*
Y161671D01*
X536067D01*
Y161576D01*
X535877D01*
Y161481D01*
X535781D01*
Y161385D01*
X535591D01*
Y161290D01*
X535400D01*
Y161195D01*
X535210D01*
Y161099D01*
X535115D01*
Y161004D01*
X534924D01*
Y160909D01*
X534734D01*
Y160814D01*
X534543D01*
Y160718D01*
X534448D01*
Y160623D01*
X534257D01*
Y160528D01*
X534067D01*
Y160433D01*
X533971D01*
Y160338D01*
X533781D01*
Y160242D01*
X533591D01*
Y160147D01*
X533400D01*
Y160052D01*
X533305D01*
Y159957D01*
X533114D01*
Y159861D01*
X532924D01*
Y159766D01*
X532733D01*
Y159671D01*
X532638D01*
Y159576D01*
X532448D01*
Y159480D01*
X532257D01*
Y159385D01*
X532066D01*
Y159290D01*
X531971D01*
Y159194D01*
X531781D01*
Y159099D01*
X531590D01*
Y159004D01*
X531495D01*
Y158909D01*
X531305D01*
Y158813D01*
X531114D01*
Y158718D01*
X530924D01*
Y158623D01*
X530733D01*
Y158718D01*
X530542D01*
Y158813D01*
X530447D01*
Y158909D01*
X530257D01*
Y159004D01*
X530066D01*
Y159099D01*
X529876D01*
Y159194D01*
X529781D01*
Y159290D01*
X529590D01*
Y159385D01*
X529399D01*
Y159480D01*
X529304D01*
Y159576D01*
X529114D01*
Y159671D01*
X528923D01*
Y159766D01*
X528733D01*
Y159861D01*
X528638D01*
Y159957D01*
X528447D01*
Y160052D01*
X528256D01*
Y160147D01*
X528066D01*
Y160242D01*
X527971D01*
Y160338D01*
X527780D01*
Y160433D01*
X527590D01*
Y160528D01*
X527495D01*
Y160623D01*
X527304D01*
Y160718D01*
X527113D01*
Y160814D01*
X526923D01*
Y160909D01*
X526828D01*
Y161004D01*
X526637D01*
Y161195D01*
X526828D01*
Y161290D01*
X527018D01*
Y161385D01*
X527209D01*
Y161481D01*
X527304D01*
Y161576D01*
X527495D01*
Y161671D01*
X527685D01*
Y161766D01*
X527876D01*
Y161861D01*
X527971D01*
Y161957D01*
X528161D01*
Y162052D01*
X528352D01*
Y162147D01*
X528542D01*
Y162243D01*
X528638D01*
Y162338D01*
X528828D01*
Y162433D01*
X529019D01*
Y162528D01*
X529114D01*
Y162624D01*
X529304D01*
Y162719D01*
X529495D01*
Y162814D01*
X529685D01*
Y162909D01*
X529781D01*
Y163004D01*
X529971D01*
Y163100D01*
X530162D01*
Y163195D01*
X530352D01*
Y163290D01*
X530447D01*
Y163386D01*
X530638D01*
Y163481D01*
X530828D01*
Y163576D01*
X531019D01*
Y163671D01*
X531114D01*
Y163766D01*
X531305D01*
Y163862D01*
X531495D01*
Y163957D01*
X531590D01*
Y164052D01*
X531781D01*
Y164147D01*
X531971D01*
Y164243D01*
X532162D01*
Y164338D01*
X532257D01*
Y164433D01*
X532448D01*
Y164529D01*
X532638D01*
Y164624D01*
X532828D01*
Y164719D01*
X532924D01*
Y164814D01*
X533114D01*
Y164909D01*
X533305D01*
Y165005D01*
X533400D01*
Y165100D01*
X533591D01*
Y165195D01*
X533781D01*
Y165291D01*
X533971D01*
Y165386D01*
X534067D01*
Y165481D01*
X534257D01*
Y165576D01*
X534448D01*
Y165672D01*
X534638D01*
Y165767D01*
X534734D01*
Y165862D01*
X534924D01*
Y165957D01*
X535115D01*
Y166052D01*
X535305D01*
Y166148D01*
X535400D01*
Y166243D01*
X535591D01*
Y166338D01*
X535781D01*
Y166434D01*
X535877D01*
Y166529D01*
X536067D01*
Y166624D01*
X536258D01*
Y166719D01*
X536448D01*
Y166814D01*
X536543D01*
Y166910D01*
X536734D01*
Y167005D01*
X536924D01*
Y167100D01*
X537115D01*
Y167195D01*
X537210D01*
Y167291D01*
X537401D01*
Y167386D01*
X537591D01*
Y167481D01*
X537781D01*
Y167577D01*
X537877D01*
Y167672D01*
X538067D01*
Y167767D01*
X538258D01*
Y167862D01*
X538353D01*
Y167957D01*
X538544D01*
Y168053D01*
X538734D01*
Y168148D01*
X538924D01*
Y168243D01*
X539020D01*
Y168339D01*
X539210D01*
Y168434D01*
X539401D01*
Y168529D01*
X539591D01*
Y168624D01*
X539687D01*
Y168720D01*
X539877D01*
Y168815D01*
X540067D01*
Y168910D01*
X540163D01*
Y169005D01*
X540353D01*
Y169100D01*
X540544D01*
Y169196D01*
X540734D01*
Y169291D01*
X540830D01*
Y169386D01*
X541020D01*
Y169482D01*
X541211D01*
Y169577D01*
X541401D01*
Y169672D01*
X541496D01*
Y169767D01*
X541687D01*
Y169862D01*
X541877D01*
Y169958D01*
X542068D01*
Y170053D01*
X542163D01*
Y170148D01*
X542354D01*
Y170243D01*
X542544D01*
Y170339D01*
X542639D01*
Y170434D01*
X542830D01*
Y170529D01*
X543020D01*
Y170625D01*
X543211D01*
Y170720D01*
X543306D01*
Y170815D01*
X543497D01*
Y170910D01*
X543687D01*
Y171005D01*
X543877D01*
Y171101D01*
X543973D01*
Y171196D01*
X544163D01*
Y171291D01*
X544354D01*
Y171387D01*
X544544D01*
Y171482D01*
X544640D01*
Y171577D01*
X544830D01*
Y171672D01*
X545020D01*
Y171768D01*
X545116D01*
Y171863D01*
X545306D01*
Y171958D01*
X545497D01*
Y172053D01*
X545687D01*
Y172148D01*
X545783D01*
Y172244D01*
X545973D01*
Y172339D01*
X546163D01*
Y172434D01*
X546354D01*
Y172530D01*
X546449D01*
Y172625D01*
X546640D01*
Y172720D01*
X546830D01*
Y172815D01*
X546926D01*
Y172910D01*
X547116D01*
Y173006D01*
X547307D01*
Y173101D01*
X547497D01*
Y173196D01*
X547592D01*
Y173291D01*
X547783D01*
Y173387D01*
X547973D01*
Y173482D01*
X548164D01*
Y173577D01*
X548259D01*
Y173673D01*
X548450D01*
Y173768D01*
X548640D01*
Y173863D01*
X548830D01*
Y173958D01*
X548926D01*
Y174053D01*
X549116D01*
Y174149D01*
X549307D01*
Y174244D01*
X549402D01*
Y174339D01*
X549593D01*
Y174435D01*
X549783D01*
Y174530D01*
X549973D01*
Y174625D01*
X550069D01*
Y174720D01*
X550259D01*
Y174816D01*
X550450D01*
Y174911D01*
X550640D01*
Y175006D01*
X550736D01*
Y175101D01*
X550926D01*
Y175196D01*
X551116D01*
Y175292D01*
X551212D01*
Y175387D01*
X551402D01*
Y175482D01*
X551593D01*
Y175578D01*
X551783D01*
Y175673D01*
X551879D01*
Y175768D01*
X552164D01*
Y175673D01*
D02*
G37*
G36*
X567404Y146241D02*
X567309D01*
Y146050D01*
X567214D01*
Y145955D01*
X567118D01*
Y145764D01*
X567023D01*
Y145574D01*
X566928D01*
Y145478D01*
X566833D01*
Y145288D01*
X566738D01*
Y145193D01*
X566642D01*
Y145002D01*
X566547D01*
Y144907D01*
X566452D01*
Y144717D01*
X566357D01*
Y144526D01*
X566261D01*
Y144431D01*
X566166D01*
Y144240D01*
X566071D01*
Y144145D01*
X565975D01*
Y143954D01*
X565880D01*
Y143764D01*
X565785D01*
Y143669D01*
X565690D01*
Y143478D01*
X565594D01*
Y143383D01*
X565499D01*
Y143193D01*
X565404D01*
Y143097D01*
X565309D01*
Y142907D01*
X565214D01*
Y142716D01*
X565118D01*
Y142621D01*
X565023D01*
Y142430D01*
X564928D01*
Y142335D01*
X564832D01*
Y142145D01*
X564737D01*
Y141954D01*
X564642D01*
Y141859D01*
X564547D01*
Y141669D01*
X564451D01*
Y141573D01*
X564356D01*
Y141383D01*
X564261D01*
Y141192D01*
X564166D01*
Y141097D01*
X564071D01*
Y140906D01*
X563975D01*
Y140811D01*
X563880D01*
Y140621D01*
X563785D01*
Y140526D01*
X563689D01*
Y140335D01*
X563594D01*
Y140145D01*
X563499D01*
Y140049D01*
X563404D01*
Y139859D01*
X563308D01*
Y139763D01*
X563213D01*
Y139573D01*
X563118D01*
Y139382D01*
X563023D01*
Y139287D01*
X562928D01*
Y139097D01*
X562832D01*
Y139002D01*
X562737D01*
Y138811D01*
X562642D01*
Y138621D01*
X562547D01*
Y138525D01*
X562451D01*
Y138335D01*
X562356D01*
Y138239D01*
X562261D01*
Y138049D01*
X562165D01*
Y137954D01*
X562070D01*
Y137763D01*
X561975D01*
Y137573D01*
X561880D01*
Y137478D01*
X561785D01*
Y137287D01*
X561689D01*
Y137192D01*
X561594D01*
Y137001D01*
X561499D01*
Y136811D01*
X561404D01*
Y136715D01*
X561308D01*
Y136525D01*
X561213D01*
Y136430D01*
X561118D01*
Y136239D01*
X561022D01*
Y136049D01*
X560927D01*
Y135954D01*
X560832D01*
Y135763D01*
X560737D01*
Y135668D01*
X560642D01*
Y135477D01*
X560546D01*
Y135382D01*
X560451D01*
Y135191D01*
X560356D01*
Y135001D01*
X560261D01*
Y134906D01*
X560165D01*
Y134715D01*
X560070D01*
Y134620D01*
X559975D01*
Y134430D01*
X559879D01*
Y134239D01*
X559784D01*
Y134144D01*
X559689D01*
Y133953D01*
X559594D01*
Y133858D01*
X559498D01*
Y133667D01*
X559403D01*
Y133477D01*
X559308D01*
Y133382D01*
X559213D01*
Y133191D01*
X559118D01*
Y133096D01*
X559022D01*
Y132906D01*
X558927D01*
Y132810D01*
X558832D01*
Y132620D01*
X558736D01*
Y132429D01*
X558641D01*
Y132334D01*
X558546D01*
Y132143D01*
X558451D01*
Y132048D01*
X558355D01*
Y131858D01*
X558260D01*
Y131763D01*
X558165D01*
Y131667D01*
X552069D01*
Y131858D01*
X552164D01*
Y132048D01*
X552259D01*
Y132239D01*
X552355D01*
Y132334D01*
X552450D01*
Y132524D01*
X552545D01*
Y132620D01*
X552640D01*
Y132810D01*
X552736D01*
Y133001D01*
X552831D01*
Y133096D01*
X552926D01*
Y133287D01*
X553022D01*
Y133382D01*
X553117D01*
Y133572D01*
X553212D01*
Y133667D01*
X553307D01*
Y133858D01*
X553402D01*
Y134049D01*
X553498D01*
Y134144D01*
X553593D01*
Y134334D01*
X553688D01*
Y134430D01*
X553783D01*
Y134620D01*
X553879D01*
Y134810D01*
X553974D01*
Y134906D01*
X554069D01*
Y135096D01*
X554165D01*
Y135191D01*
X554260D01*
Y135382D01*
X554355D01*
Y135573D01*
X554450D01*
Y135668D01*
X554546D01*
Y135858D01*
X554641D01*
Y135954D01*
X554736D01*
Y136144D01*
X554831D01*
Y136239D01*
X554926D01*
Y136430D01*
X555022D01*
Y136620D01*
X555117D01*
Y136715D01*
X555212D01*
Y136906D01*
X555308D01*
Y137001D01*
X555403D01*
Y137192D01*
X555498D01*
Y137382D01*
X555593D01*
Y137478D01*
X555689D01*
Y137668D01*
X555784D01*
Y137763D01*
X555879D01*
Y137954D01*
X555974D01*
Y138144D01*
X556069D01*
Y138239D01*
X556165D01*
Y138430D01*
X556260D01*
Y138525D01*
X556355D01*
Y138716D01*
X556451D01*
Y138811D01*
X556546D01*
Y139002D01*
X556641D01*
Y139192D01*
X556736D01*
Y139287D01*
X556832D01*
Y139478D01*
X556927D01*
Y139573D01*
X557022D01*
Y139763D01*
X557117D01*
Y139954D01*
X557212D01*
Y140049D01*
X557308D01*
Y140240D01*
X557403D01*
Y140335D01*
X557498D01*
Y140526D01*
X557593D01*
Y140716D01*
X557689D01*
Y140811D01*
X557784D01*
Y141002D01*
X557879D01*
Y141097D01*
X557975D01*
Y141287D01*
X558070D01*
Y141383D01*
X558165D01*
Y141573D01*
X558260D01*
Y141764D01*
X558355D01*
Y141859D01*
X558451D01*
Y142050D01*
X558546D01*
Y142145D01*
X558641D01*
Y142335D01*
X558736D01*
Y142526D01*
X558832D01*
Y142621D01*
X558927D01*
Y142811D01*
X559022D01*
Y142907D01*
X559118D01*
Y143097D01*
X559213D01*
Y143288D01*
X559308D01*
Y143383D01*
X559403D01*
Y143574D01*
X559498D01*
Y143669D01*
X559594D01*
Y143859D01*
X559689D01*
Y143954D01*
X559784D01*
Y144145D01*
X559879D01*
Y144335D01*
X559975D01*
Y144431D01*
X560070D01*
Y144621D01*
X560165D01*
Y144717D01*
X560261D01*
Y144907D01*
X560356D01*
Y145098D01*
X560451D01*
Y145193D01*
X560546D01*
Y145383D01*
X560642D01*
Y145478D01*
X560737D01*
Y145669D01*
X560832D01*
Y145859D01*
X560927D01*
Y145955D01*
X561022D01*
Y146145D01*
X561118D01*
Y146241D01*
X561213D01*
Y146431D01*
X567404D01*
Y146241D01*
D02*
G37*
G36*
X564356Y161004D02*
X564261D01*
Y160814D01*
X564166D01*
Y160623D01*
X564071D01*
Y160528D01*
X563975D01*
Y160338D01*
X563880D01*
Y160242D01*
X563785D01*
Y160052D01*
X563689D01*
Y159861D01*
X563594D01*
Y159766D01*
X563499D01*
Y159576D01*
X563404D01*
Y159480D01*
X563308D01*
Y159290D01*
X563213D01*
Y159099D01*
X563118D01*
Y159004D01*
X563023D01*
Y158813D01*
X562928D01*
Y158718D01*
X562832D01*
Y158528D01*
X562737D01*
Y158433D01*
X562642D01*
Y158242D01*
X562547D01*
Y158052D01*
X562451D01*
Y157956D01*
X562356D01*
Y157766D01*
X562261D01*
Y157670D01*
X562165D01*
Y157480D01*
X562070D01*
Y157289D01*
X561975D01*
Y157194D01*
X561880D01*
Y157004D01*
X561785D01*
Y156909D01*
X561689D01*
Y156718D01*
X561594D01*
Y156528D01*
X561499D01*
Y156432D01*
X561404D01*
Y156242D01*
X561308D01*
Y156146D01*
X561213D01*
Y155956D01*
X561118D01*
Y155861D01*
X561022D01*
Y155670D01*
X560927D01*
Y155480D01*
X560832D01*
Y155385D01*
X560737D01*
Y155194D01*
X560642D01*
Y155099D01*
X560546D01*
Y154908D01*
X560451D01*
Y154718D01*
X560356D01*
Y154622D01*
X560261D01*
Y154432D01*
X560165D01*
Y154337D01*
X560070D01*
Y154146D01*
X559975D01*
Y153956D01*
X559879D01*
Y153861D01*
X559784D01*
Y153670D01*
X559689D01*
Y153575D01*
X559594D01*
Y153384D01*
X559498D01*
Y153289D01*
X559403D01*
Y153098D01*
X559308D01*
Y152908D01*
X559213D01*
Y152813D01*
X559118D01*
Y152718D01*
Y152622D01*
X559022D01*
Y152527D01*
X558927D01*
Y152337D01*
X558832D01*
Y152146D01*
X558736D01*
Y152051D01*
X558641D01*
Y151860D01*
X558546D01*
Y151765D01*
X558451D01*
Y151574D01*
X558355D01*
Y151384D01*
X558260D01*
Y151289D01*
X558165D01*
Y151098D01*
X558070D01*
Y151003D01*
X557975D01*
Y150813D01*
X557879D01*
Y150717D01*
X557784D01*
Y150527D01*
X557689D01*
Y150336D01*
X557593D01*
Y150241D01*
X557498D01*
Y150050D01*
X557403D01*
Y149955D01*
X557308D01*
Y149765D01*
X557212D01*
Y149574D01*
X557117D01*
Y149479D01*
X557022D01*
Y149289D01*
X556927D01*
Y149193D01*
X556832D01*
Y149003D01*
X556736D01*
Y148907D01*
X556641D01*
Y148717D01*
X556546D01*
Y148526D01*
X556451D01*
Y148431D01*
X556355D01*
Y148241D01*
X556260D01*
Y148146D01*
X556165D01*
Y147955D01*
X556069D01*
Y147765D01*
X555974D01*
Y147669D01*
X555879D01*
Y147479D01*
X555784D01*
Y147383D01*
X555689D01*
Y147193D01*
X555593D01*
Y147002D01*
X555498D01*
Y146907D01*
X555403D01*
Y146717D01*
X555308D01*
Y146622D01*
X555212D01*
Y146431D01*
X555117D01*
Y146336D01*
X555022D01*
Y146145D01*
X554926D01*
Y145955D01*
X554831D01*
Y145859D01*
X554736D01*
Y145669D01*
X554641D01*
Y145574D01*
X554546D01*
Y145383D01*
X554450D01*
Y145193D01*
X554355D01*
Y145098D01*
X554260D01*
Y144907D01*
X554165D01*
Y144812D01*
X554069D01*
Y144621D01*
X553974D01*
Y144431D01*
X553879D01*
Y144335D01*
X553783D01*
Y144145D01*
X553688D01*
Y144050D01*
X553593D01*
Y143859D01*
X553498D01*
Y143764D01*
X553402D01*
Y143574D01*
X553307D01*
Y143383D01*
X553212D01*
Y143288D01*
X553117D01*
Y143097D01*
X553022D01*
Y143002D01*
X552926D01*
Y142811D01*
X552831D01*
Y142621D01*
X552736D01*
Y142526D01*
X552640D01*
Y142335D01*
X552545D01*
Y142240D01*
X552450D01*
Y142050D01*
X552355D01*
Y141859D01*
X552259D01*
Y141764D01*
X552164D01*
Y141573D01*
X552069D01*
Y141478D01*
X551974D01*
Y141287D01*
X551879D01*
Y141192D01*
X551783D01*
Y141002D01*
X551688D01*
Y140811D01*
X551593D01*
Y140716D01*
X551497D01*
Y140526D01*
X551402D01*
Y140430D01*
X551307D01*
Y140240D01*
X551212D01*
Y140049D01*
X551116D01*
Y139954D01*
X551021D01*
Y139763D01*
X550926D01*
Y139668D01*
X550831D01*
Y139478D01*
X550736D01*
Y139287D01*
X550640D01*
Y139192D01*
X550545D01*
Y139002D01*
X550450D01*
Y138906D01*
X550354D01*
Y138716D01*
X550259D01*
Y138621D01*
X550164D01*
Y138430D01*
X550069D01*
Y138239D01*
X549973D01*
Y138144D01*
X549878D01*
Y137954D01*
X549783D01*
Y137858D01*
X549688D01*
Y137668D01*
X549593D01*
Y137478D01*
X549497D01*
Y137382D01*
X549402D01*
Y137192D01*
X549307D01*
Y137097D01*
X549212D01*
Y136906D01*
X549116D01*
Y136715D01*
X549021D01*
Y136620D01*
X548926D01*
Y136430D01*
X548830D01*
Y136334D01*
X548735D01*
Y136144D01*
X548640D01*
Y136049D01*
X548545D01*
Y135858D01*
X548450D01*
Y135668D01*
X548354D01*
Y135573D01*
X548259D01*
Y135382D01*
X548164D01*
Y135287D01*
X548069D01*
Y135096D01*
X547973D01*
Y134906D01*
X547878D01*
Y134810D01*
X547783D01*
Y134620D01*
X547687D01*
Y134525D01*
X547592D01*
Y134334D01*
X547497D01*
Y134239D01*
X547402D01*
Y134049D01*
X547307D01*
Y133858D01*
X547211D01*
Y133763D01*
X547116D01*
Y133572D01*
X547021D01*
Y133477D01*
X546926D01*
Y133287D01*
X546830D01*
Y133096D01*
X546735D01*
Y133001D01*
X546640D01*
Y132810D01*
X546544D01*
Y132715D01*
X546449D01*
Y132524D01*
X546354D01*
Y132334D01*
X546259D01*
Y132239D01*
X546163D01*
Y132048D01*
X546068D01*
Y131953D01*
X545973D01*
Y131763D01*
X545878D01*
Y131667D01*
X539782D01*
Y131953D01*
X539877D01*
Y132143D01*
X539972D01*
Y132239D01*
X540067D01*
Y132429D01*
X540163D01*
Y132524D01*
X540258D01*
Y132715D01*
X540353D01*
Y132906D01*
X540448D01*
Y133001D01*
X540544D01*
Y133191D01*
X540639D01*
Y133287D01*
X540734D01*
Y133477D01*
X540830D01*
Y133572D01*
X540925D01*
Y133763D01*
X541020D01*
Y133953D01*
X541115D01*
Y134049D01*
X541211D01*
Y134239D01*
X541306D01*
Y134334D01*
X541401D01*
Y134525D01*
X541496D01*
Y134715D01*
X541591D01*
Y134810D01*
X541687D01*
Y135001D01*
X541782D01*
Y135096D01*
X541877D01*
Y135287D01*
X541973D01*
Y135477D01*
X542068D01*
Y135573D01*
X542163D01*
Y135763D01*
X542258D01*
Y135858D01*
X542354D01*
Y136049D01*
X542449D01*
Y136144D01*
X542544D01*
Y136334D01*
X542639D01*
Y136525D01*
X542734D01*
Y136620D01*
X542830D01*
Y136811D01*
X542925D01*
Y136906D01*
X543020D01*
Y137097D01*
X543116D01*
Y137287D01*
X543211D01*
Y137382D01*
X543306D01*
Y137573D01*
X543401D01*
Y137668D01*
X543497D01*
Y137858D01*
X543592D01*
Y138049D01*
X543687D01*
Y138144D01*
X543782D01*
Y138335D01*
X543877D01*
Y138430D01*
X543973D01*
Y138621D01*
X544068D01*
Y138716D01*
X544163D01*
Y138906D01*
X544258D01*
Y139097D01*
X544354D01*
Y139192D01*
X544449D01*
Y139382D01*
X544544D01*
Y139478D01*
X544640D01*
Y139668D01*
X544735D01*
Y139859D01*
X544830D01*
Y139954D01*
X544925D01*
Y140145D01*
X545020D01*
Y140240D01*
X545116D01*
Y140430D01*
X545211D01*
Y140621D01*
X545306D01*
Y140716D01*
X545401D01*
Y140906D01*
X545497D01*
Y141002D01*
X545592D01*
Y141192D01*
X545687D01*
Y141287D01*
X545783D01*
Y141478D01*
X545878D01*
Y141669D01*
X545973D01*
Y141764D01*
X546068D01*
Y141954D01*
X546163D01*
Y142050D01*
X546259D01*
Y142240D01*
X546354D01*
Y142430D01*
X546449D01*
Y142526D01*
X546544D01*
Y142716D01*
X546640D01*
Y142811D01*
X546735D01*
Y143002D01*
X546830D01*
Y143193D01*
X546926D01*
Y143288D01*
X547021D01*
Y143478D01*
X547116D01*
Y143574D01*
X547211D01*
Y143764D01*
X547307D01*
Y143859D01*
X547402D01*
Y144050D01*
X547497D01*
Y144240D01*
X547592D01*
Y144335D01*
X547687D01*
Y144526D01*
X547783D01*
Y144621D01*
X547878D01*
Y144812D01*
X547973D01*
Y145002D01*
X548069D01*
Y145098D01*
X548164D01*
Y145288D01*
X548259D01*
Y145383D01*
X548354D01*
Y145574D01*
X548450D01*
Y145669D01*
X548545D01*
Y145859D01*
X548640D01*
Y146050D01*
X548735D01*
Y146145D01*
X548830D01*
Y146336D01*
X548926D01*
Y146431D01*
X549021D01*
Y146622D01*
X549116D01*
Y146812D01*
X549212D01*
Y146907D01*
X549307D01*
Y147098D01*
X549402D01*
Y147193D01*
X549497D01*
Y147383D01*
X549593D01*
Y147574D01*
X549688D01*
Y147669D01*
X549783D01*
Y147860D01*
X549878D01*
Y147955D01*
X549973D01*
Y148146D01*
X550069D01*
Y148241D01*
X550164D01*
Y148431D01*
X550259D01*
Y148622D01*
X550354D01*
Y148717D01*
X550450D01*
Y148907D01*
X550545D01*
Y149003D01*
X550640D01*
Y149193D01*
X550736D01*
Y149384D01*
X550831D01*
Y149479D01*
X550926D01*
Y149670D01*
X551021D01*
Y149765D01*
X551116D01*
Y149955D01*
X551212D01*
Y150146D01*
X551307D01*
Y150241D01*
X551402D01*
Y150431D01*
X551497D01*
Y150527D01*
X551593D01*
Y150717D01*
X551688D01*
Y150813D01*
X551783D01*
Y151003D01*
X551879D01*
Y151194D01*
X551974D01*
Y151289D01*
X552069D01*
Y151479D01*
X552164D01*
Y151574D01*
X552259D01*
Y151765D01*
X552355D01*
Y151955D01*
X552450D01*
Y152051D01*
X552545D01*
Y152241D01*
X552640D01*
Y152337D01*
X552736D01*
Y152527D01*
X552831D01*
Y152718D01*
X552926D01*
Y152813D01*
X553022D01*
Y153003D01*
X553117D01*
Y153098D01*
X553212D01*
Y153289D01*
X553307D01*
Y153384D01*
X553402D01*
Y153575D01*
X553498D01*
Y153765D01*
X553593D01*
Y153861D01*
X553688D01*
Y154051D01*
X553783D01*
Y154146D01*
X553879D01*
Y154337D01*
X553974D01*
Y154527D01*
X554069D01*
Y154622D01*
X554165D01*
Y154813D01*
X554260D01*
Y154908D01*
X554355D01*
Y155099D01*
X554450D01*
Y155289D01*
X554546D01*
Y155385D01*
X554641D01*
Y155575D01*
X554736D01*
Y155670D01*
X554831D01*
Y155861D01*
X554926D01*
Y155956D01*
X555022D01*
Y156146D01*
X555117D01*
Y156337D01*
X555212D01*
Y156432D01*
X555308D01*
Y156623D01*
X555403D01*
Y156718D01*
X555498D01*
Y156909D01*
X555593D01*
Y157099D01*
X555689D01*
Y157194D01*
X555784D01*
Y157385D01*
X555879D01*
Y157480D01*
X555974D01*
Y157670D01*
X556069D01*
Y157766D01*
X556165D01*
Y157956D01*
X556260D01*
Y158147D01*
X556355D01*
Y158242D01*
X556451D01*
Y158433D01*
X556546D01*
Y158528D01*
X556641D01*
Y158718D01*
X556736D01*
Y158909D01*
X556832D01*
Y159004D01*
X556927D01*
Y159194D01*
X557022D01*
Y159290D01*
X557117D01*
Y159480D01*
X557212D01*
Y159671D01*
X557308D01*
Y159766D01*
X557403D01*
Y159957D01*
X557498D01*
Y160052D01*
X557593D01*
Y160242D01*
X557689D01*
Y160338D01*
X557784D01*
Y160528D01*
X557879D01*
Y160718D01*
X557975D01*
Y160814D01*
X558070D01*
Y161004D01*
X558165D01*
Y161099D01*
X564356D01*
Y161004D01*
D02*
G37*
G36*
X526732Y154813D02*
X526828D01*
Y154718D01*
X527018D01*
Y154622D01*
X527209D01*
Y154527D01*
X527304D01*
Y154432D01*
X527495D01*
Y154337D01*
X527685D01*
Y154242D01*
X527876D01*
Y154146D01*
X527971D01*
Y154051D01*
X528161D01*
Y153956D01*
X528352D01*
Y153861D01*
X528542D01*
Y153765D01*
X528638D01*
Y153670D01*
X528828D01*
Y153575D01*
X529019D01*
Y153479D01*
X529209D01*
Y153384D01*
X529304D01*
Y153289D01*
X529495D01*
Y153194D01*
X529685D01*
Y153098D01*
X529781D01*
Y153003D01*
X529971D01*
Y152908D01*
X530162D01*
Y152813D01*
X530352D01*
Y152718D01*
X530447D01*
Y152622D01*
X530638D01*
Y152527D01*
X530828D01*
Y152432D01*
X530924D01*
Y134144D01*
X531019D01*
Y134049D01*
X531209D01*
Y133953D01*
X531400D01*
Y133858D01*
X531495D01*
Y133763D01*
X531685D01*
Y133667D01*
X531876D01*
Y133572D01*
X531971D01*
Y133477D01*
X532162D01*
Y133382D01*
X532352D01*
Y133287D01*
X532543D01*
Y133191D01*
X532638D01*
Y133096D01*
X532828D01*
Y133001D01*
X533019D01*
Y132906D01*
X533209D01*
Y132810D01*
X533305D01*
Y132715D01*
X533495D01*
Y132620D01*
X533686D01*
Y132524D01*
X533876D01*
Y132429D01*
X533971D01*
Y132334D01*
X534162D01*
Y132239D01*
X534352D01*
Y132143D01*
X534448D01*
Y132048D01*
X534638D01*
Y131953D01*
X534829D01*
Y131858D01*
X535019D01*
Y131763D01*
X535115D01*
Y131667D01*
X535305D01*
Y131572D01*
X535495D01*
Y131477D01*
X535686D01*
Y131382D01*
X535781D01*
Y131286D01*
X535972D01*
Y131191D01*
X536162D01*
Y131096D01*
X536353D01*
Y131000D01*
X536448D01*
Y130905D01*
X536638D01*
Y130810D01*
X536829D01*
Y130715D01*
X536924D01*
Y130619D01*
X537115D01*
Y130524D01*
X537305D01*
Y130429D01*
X537496D01*
Y130334D01*
X537591D01*
Y130239D01*
X537781D01*
Y130143D01*
X537972D01*
Y130048D01*
X538162D01*
Y129953D01*
X538258D01*
Y129858D01*
X538448D01*
Y129762D01*
X538639D01*
Y129667D01*
X538734D01*
Y129572D01*
X538924D01*
Y129476D01*
X539115D01*
Y129381D01*
X539305D01*
Y129286D01*
X539401D01*
Y129191D01*
X539591D01*
Y129095D01*
X539782D01*
Y129000D01*
X539972D01*
Y128905D01*
X540067D01*
Y128810D01*
X540258D01*
Y128715D01*
X540448D01*
Y128619D01*
X540639D01*
Y128524D01*
X540734D01*
Y128429D01*
X540925D01*
Y128334D01*
X541115D01*
Y128238D01*
X541211D01*
Y128143D01*
X541401D01*
Y128048D01*
X541591D01*
Y127952D01*
X541782D01*
Y127857D01*
X541877D01*
Y127762D01*
X542068D01*
Y127667D01*
X542258D01*
Y127571D01*
X542449D01*
Y127476D01*
X542544D01*
Y127381D01*
X542734D01*
Y127286D01*
X542925D01*
Y127191D01*
X543020D01*
Y127095D01*
X543211D01*
Y127000D01*
X543401D01*
Y126905D01*
X543592D01*
Y126810D01*
X543687D01*
Y126714D01*
X543877D01*
Y126619D01*
X544068D01*
Y126524D01*
X544258D01*
Y126428D01*
X544354D01*
Y126333D01*
X544544D01*
Y126238D01*
X544735D01*
Y126143D01*
X544925D01*
Y126047D01*
X545020D01*
Y125952D01*
X545211D01*
Y125857D01*
X545401D01*
Y125762D01*
X545497D01*
Y125667D01*
X545687D01*
Y125571D01*
X545878D01*
Y125476D01*
X546068D01*
Y125381D01*
X546163D01*
Y125286D01*
X546354D01*
Y125190D01*
X546544D01*
Y125095D01*
X546735D01*
Y125000D01*
X546830D01*
Y124904D01*
X547021D01*
Y124809D01*
X547211D01*
Y124714D01*
X547402D01*
Y124619D01*
X547497D01*
Y124523D01*
X547687D01*
Y124428D01*
X547878D01*
Y124333D01*
X547973D01*
Y124238D01*
X548164D01*
Y124143D01*
X548354D01*
Y124047D01*
X548545D01*
Y123952D01*
X548640D01*
Y123857D01*
X548830D01*
Y123762D01*
X549021D01*
Y123666D01*
X549212D01*
Y123571D01*
X549307D01*
Y123476D01*
X549497D01*
Y123380D01*
X549688D01*
Y123285D01*
X549783D01*
Y123190D01*
X549973D01*
Y123095D01*
X550164D01*
Y122999D01*
X550354D01*
Y122904D01*
X550450D01*
Y122809D01*
X550640D01*
Y122714D01*
X550831D01*
Y122619D01*
X551021D01*
Y122523D01*
X551116D01*
Y122428D01*
X551307D01*
Y122333D01*
X551497D01*
Y122238D01*
X551688D01*
Y122142D01*
X551783D01*
Y122047D01*
X551974D01*
Y121952D01*
X552069D01*
Y122047D01*
X552259D01*
Y122142D01*
X552450D01*
Y122238D01*
X552545D01*
Y122333D01*
X552736D01*
Y122428D01*
X552926D01*
Y122523D01*
X553117D01*
Y122619D01*
X553212D01*
Y122714D01*
X553402D01*
Y122809D01*
X553593D01*
Y122904D01*
X553783D01*
Y122999D01*
X553879D01*
Y123095D01*
X554069D01*
Y123190D01*
X554260D01*
Y123285D01*
X554450D01*
Y123380D01*
X554546D01*
Y123476D01*
X554736D01*
Y123571D01*
X554926D01*
Y123666D01*
X555022D01*
Y123762D01*
X555212D01*
Y123857D01*
X555403D01*
Y123952D01*
X555593D01*
Y124047D01*
X555689D01*
Y124143D01*
X555879D01*
Y124238D01*
X556069D01*
Y124333D01*
X556260D01*
Y124428D01*
X556355D01*
Y124523D01*
X556546D01*
Y124619D01*
X556736D01*
Y124714D01*
X556832D01*
Y124809D01*
X557022D01*
Y124904D01*
X557212D01*
Y125000D01*
X557403D01*
Y125095D01*
X557498D01*
Y125190D01*
X557689D01*
Y125286D01*
X557879D01*
Y125381D01*
X558070D01*
Y125476D01*
X558165D01*
Y125571D01*
X558355D01*
Y125667D01*
X558546D01*
Y125762D01*
X558736D01*
Y125857D01*
X558832D01*
Y125952D01*
X559022D01*
Y126047D01*
X559213D01*
Y126143D01*
X559308D01*
Y126238D01*
X559498D01*
Y126333D01*
X559689D01*
Y126428D01*
X559879D01*
Y126524D01*
X559975D01*
Y126619D01*
X560165D01*
Y126714D01*
X560356D01*
Y126810D01*
X560546D01*
Y126905D01*
X560642D01*
Y127000D01*
X560832D01*
Y127095D01*
X561022D01*
Y127191D01*
X561213D01*
Y127286D01*
X561308D01*
Y127381D01*
X561499D01*
Y127476D01*
X561689D01*
Y127571D01*
X561785D01*
Y127667D01*
X561975D01*
Y127762D01*
X562165D01*
Y127857D01*
X562356D01*
Y127952D01*
X562451D01*
Y128048D01*
X562642D01*
Y128143D01*
X562832D01*
Y128238D01*
X563023D01*
Y128334D01*
X563118D01*
Y128429D01*
X563308D01*
Y128524D01*
X563499D01*
Y128619D01*
X563594D01*
Y128715D01*
X563785D01*
Y128810D01*
X563975D01*
Y128905D01*
X564166D01*
Y129000D01*
X564261D01*
Y129095D01*
X564451D01*
Y129191D01*
X564642D01*
Y129286D01*
X564832D01*
Y129381D01*
X564928D01*
Y129476D01*
X565118D01*
Y129572D01*
X565309D01*
Y129667D01*
X565499D01*
Y129762D01*
X565594D01*
Y129858D01*
X565785D01*
Y129953D01*
X565975D01*
Y130048D01*
X566071D01*
Y130143D01*
X566261D01*
Y130239D01*
X566452D01*
Y130334D01*
X566642D01*
Y130429D01*
X566738D01*
Y130524D01*
X566928D01*
Y130619D01*
X567118D01*
Y130715D01*
X567309D01*
Y130810D01*
X567404D01*
Y130905D01*
X567595D01*
Y131000D01*
X567785D01*
Y131096D01*
X567976D01*
Y131191D01*
X568071D01*
Y131286D01*
X568261D01*
Y131382D01*
X568452D01*
Y131477D01*
X568547D01*
Y131572D01*
X568738D01*
Y131667D01*
X568928D01*
Y131763D01*
X569119D01*
Y131858D01*
X569214D01*
Y131953D01*
X569404D01*
Y132048D01*
X569595D01*
Y132143D01*
X569785D01*
Y132239D01*
X569881D01*
Y132334D01*
X570071D01*
Y132429D01*
X570262D01*
Y132524D01*
X570452D01*
Y132620D01*
X570547D01*
Y132715D01*
X570738D01*
Y132810D01*
X570928D01*
Y132906D01*
X571024D01*
Y133001D01*
X571214D01*
Y133096D01*
X571405D01*
Y133191D01*
X571595D01*
Y133287D01*
X571690D01*
Y133382D01*
X571881D01*
Y133477D01*
X572071D01*
Y133572D01*
X572262D01*
Y133667D01*
X572357D01*
Y133763D01*
X572548D01*
Y133858D01*
X572738D01*
Y133953D01*
X572834D01*
Y134049D01*
X573024D01*
Y134144D01*
X573405D01*
Y134049D01*
X573596D01*
Y133953D01*
X573691D01*
Y133858D01*
X573881D01*
Y133763D01*
X574072D01*
Y133667D01*
X574262D01*
Y133572D01*
X574357D01*
Y133477D01*
X574548D01*
Y133382D01*
X574739D01*
Y133287D01*
X574929D01*
Y133191D01*
X575024D01*
Y133096D01*
X575215D01*
Y133001D01*
X575405D01*
Y132906D01*
X575500D01*
Y132810D01*
X575691D01*
Y132715D01*
X575882D01*
Y132620D01*
X576072D01*
Y132524D01*
X576167D01*
Y132429D01*
X576358D01*
Y132334D01*
X576548D01*
Y132239D01*
X576739D01*
Y132143D01*
X576834D01*
Y132048D01*
X577024D01*
Y131953D01*
X577215D01*
Y131858D01*
X577310D01*
Y131763D01*
X577406D01*
Y131667D01*
X577310D01*
Y131572D01*
X577120D01*
Y131477D01*
X577024D01*
Y131382D01*
X576834D01*
Y131286D01*
X576643D01*
Y131191D01*
X576453D01*
Y131096D01*
X576358D01*
Y131000D01*
X576167D01*
Y130905D01*
X575977D01*
Y130810D01*
X575786D01*
Y130715D01*
X575691D01*
Y130619D01*
X575500D01*
Y130524D01*
X575310D01*
Y130429D01*
X575215D01*
Y130334D01*
X575024D01*
Y130239D01*
X574834D01*
Y130143D01*
X574643D01*
Y130048D01*
X574548D01*
Y129953D01*
X574357D01*
Y129858D01*
X574167D01*
Y129762D01*
X573977D01*
Y129667D01*
X573881D01*
Y129572D01*
X573691D01*
Y129476D01*
X573500D01*
Y129381D01*
X573310D01*
Y129286D01*
X573214D01*
Y129191D01*
X573024D01*
Y129095D01*
X572834D01*
Y129000D01*
X572738D01*
Y128905D01*
X572548D01*
Y128810D01*
X572357D01*
Y128715D01*
X572167D01*
Y128619D01*
X572071D01*
Y128524D01*
X571881D01*
Y128429D01*
X571690D01*
Y128334D01*
X571500D01*
Y128238D01*
X571405D01*
Y128143D01*
X571214D01*
Y128048D01*
X571024D01*
Y127952D01*
X570928D01*
Y127857D01*
X570738D01*
Y127762D01*
X570547D01*
Y127667D01*
X570357D01*
Y127571D01*
X570262D01*
Y127476D01*
X570071D01*
Y127381D01*
X569881D01*
Y127286D01*
X569690D01*
Y127191D01*
X569595D01*
Y127095D01*
X569404D01*
Y127000D01*
X569214D01*
Y126905D01*
X569024D01*
Y126810D01*
X568928D01*
Y126714D01*
X568738D01*
Y126619D01*
X568547D01*
Y126524D01*
X568452D01*
Y126428D01*
X568261D01*
Y126333D01*
X568071D01*
Y126238D01*
X567881D01*
Y126143D01*
X567785D01*
Y126047D01*
X567595D01*
Y125952D01*
X567404D01*
Y125857D01*
X567214D01*
Y125762D01*
X567118D01*
Y125667D01*
X566928D01*
Y125571D01*
X566738D01*
Y125476D01*
X566547D01*
Y125381D01*
X566452D01*
Y125286D01*
X566261D01*
Y125190D01*
X566071D01*
Y125095D01*
X565975D01*
Y125000D01*
X565785D01*
Y124904D01*
X565594D01*
Y124809D01*
X565404D01*
Y124714D01*
X565309D01*
Y124619D01*
X565118D01*
Y124523D01*
X564928D01*
Y124428D01*
X564737D01*
Y124333D01*
X564642D01*
Y124238D01*
X564451D01*
Y124143D01*
X564261D01*
Y124047D01*
X564166D01*
Y123952D01*
X563975D01*
Y123857D01*
X563785D01*
Y123762D01*
X563594D01*
Y123666D01*
X563499D01*
Y123571D01*
X563308D01*
Y123476D01*
X563118D01*
Y123380D01*
X562928D01*
Y123285D01*
X562832D01*
Y123190D01*
X562642D01*
Y123095D01*
X562451D01*
Y122999D01*
X562261D01*
Y122904D01*
X562165D01*
Y122809D01*
X561975D01*
Y122714D01*
X561785D01*
Y122619D01*
X561689D01*
Y122523D01*
X561499D01*
Y122428D01*
X561308D01*
Y122333D01*
X561118D01*
Y122238D01*
X561022D01*
Y122142D01*
X560832D01*
Y122047D01*
X560642D01*
Y121952D01*
X560451D01*
Y121856D01*
X560356D01*
Y121761D01*
X560165D01*
Y121666D01*
X559975D01*
Y121571D01*
X559784D01*
Y121475D01*
X559689D01*
Y121380D01*
X559498D01*
Y121285D01*
X559308D01*
Y121190D01*
X559213D01*
Y121095D01*
X559022D01*
Y120999D01*
X558832D01*
Y120904D01*
X558641D01*
Y120809D01*
X558546D01*
Y120714D01*
X558355D01*
Y120618D01*
X558165D01*
Y120523D01*
X557975D01*
Y120428D01*
X557879D01*
Y120332D01*
X557689D01*
Y120237D01*
X557498D01*
Y120142D01*
X557308D01*
Y120047D01*
X557212D01*
Y119951D01*
X557022D01*
Y119856D01*
X556832D01*
Y119761D01*
X556736D01*
Y119666D01*
X556546D01*
Y119571D01*
X556355D01*
Y119475D01*
X556165D01*
Y119380D01*
X556069D01*
Y119285D01*
X555879D01*
Y119190D01*
X555689D01*
Y119094D01*
X555498D01*
Y118999D01*
X555403D01*
Y118904D01*
X555212D01*
Y118808D01*
X555022D01*
Y118713D01*
X554926D01*
Y118618D01*
X554736D01*
Y118523D01*
X554546D01*
Y118427D01*
X554355D01*
Y118332D01*
X554260D01*
Y118237D01*
X554069D01*
Y118142D01*
X553879D01*
Y118047D01*
X553688D01*
Y117951D01*
X553593D01*
Y117856D01*
X553402D01*
Y117761D01*
X553212D01*
Y117666D01*
X553022D01*
Y117570D01*
X552926D01*
Y117475D01*
X552736D01*
Y117380D01*
X552545D01*
Y117284D01*
X552450D01*
Y117189D01*
X552259D01*
Y117094D01*
X552069D01*
Y116999D01*
X551974D01*
Y117094D01*
X551783D01*
Y117189D01*
X551688D01*
Y117284D01*
X551497D01*
Y117380D01*
X551307D01*
Y117475D01*
X551212D01*
Y117570D01*
X551021D01*
Y117666D01*
X550831D01*
Y117761D01*
X550640D01*
Y117856D01*
X550545D01*
Y117951D01*
X550354D01*
Y118047D01*
X550164D01*
Y118142D01*
X549973D01*
Y118237D01*
X549878D01*
Y118332D01*
X549688D01*
Y118427D01*
X549497D01*
Y118523D01*
X549307D01*
Y118618D01*
X549212D01*
Y118713D01*
X549021D01*
Y118808D01*
X548830D01*
Y118904D01*
X548735D01*
Y118999D01*
X548545D01*
Y119094D01*
X548354D01*
Y119190D01*
X548164D01*
Y119285D01*
X548069D01*
Y119380D01*
X547878D01*
Y119475D01*
X547687D01*
Y119571D01*
X547497D01*
Y119666D01*
X547402D01*
Y119761D01*
X547211D01*
Y119856D01*
X547021D01*
Y119951D01*
X546926D01*
Y120047D01*
X546735D01*
Y120142D01*
X546544D01*
Y120237D01*
X546354D01*
Y120332D01*
X546259D01*
Y120428D01*
X546068D01*
Y120523D01*
X545878D01*
Y120618D01*
X545687D01*
Y120714D01*
X545592D01*
Y120809D01*
X545401D01*
Y120904D01*
X545211D01*
Y120999D01*
X545020D01*
Y121095D01*
X544925D01*
Y121190D01*
X544735D01*
Y121285D01*
X544544D01*
Y121380D01*
X544449D01*
Y121475D01*
X544258D01*
Y121571D01*
X544068D01*
Y121666D01*
X543877D01*
Y121761D01*
X543782D01*
Y121856D01*
X543592D01*
Y121952D01*
X543401D01*
Y122047D01*
X543211D01*
Y122142D01*
X543116D01*
Y122238D01*
X542925D01*
Y122333D01*
X542734D01*
Y122428D01*
X542544D01*
Y122523D01*
X542449D01*
Y122619D01*
X542258D01*
Y122714D01*
X542068D01*
Y122809D01*
X541973D01*
Y122904D01*
X541782D01*
Y122999D01*
X541591D01*
Y123095D01*
X541401D01*
Y123190D01*
X541306D01*
Y123285D01*
X541115D01*
Y123380D01*
X540925D01*
Y123476D01*
X540734D01*
Y123571D01*
X540639D01*
Y123666D01*
X540448D01*
Y123762D01*
X540258D01*
Y123857D01*
X540163D01*
Y123952D01*
X539972D01*
Y124047D01*
X539782D01*
Y124143D01*
X539591D01*
Y124238D01*
X539496D01*
Y124333D01*
X539305D01*
Y124428D01*
X539115D01*
Y124523D01*
X538924D01*
Y124619D01*
X538829D01*
Y124714D01*
X538639D01*
Y124809D01*
X538448D01*
Y124904D01*
X538258D01*
Y125000D01*
X538162D01*
Y125095D01*
X537972D01*
Y125190D01*
X537781D01*
Y125286D01*
X537686D01*
Y125381D01*
X537496D01*
Y125476D01*
X537305D01*
Y125571D01*
X537115D01*
Y125667D01*
X537020D01*
Y125762D01*
X536829D01*
Y125857D01*
X536638D01*
Y125952D01*
X536448D01*
Y126047D01*
X536353D01*
Y126143D01*
X536162D01*
Y126238D01*
X535972D01*
Y126333D01*
X535781D01*
Y126428D01*
X535686D01*
Y126524D01*
X535495D01*
Y126619D01*
X535305D01*
Y126714D01*
X535210D01*
Y126810D01*
X535019D01*
Y126905D01*
X534829D01*
Y127000D01*
X534638D01*
Y127095D01*
X534543D01*
Y127191D01*
X534352D01*
Y127286D01*
X534162D01*
Y127381D01*
X533971D01*
Y127476D01*
X533876D01*
Y127571D01*
X533686D01*
Y127667D01*
X533495D01*
Y127762D01*
X533400D01*
Y127857D01*
X533209D01*
Y127952D01*
X533019D01*
Y128048D01*
X532828D01*
Y128143D01*
X532733D01*
Y128238D01*
X532543D01*
Y128334D01*
X532352D01*
Y128429D01*
X532162D01*
Y128524D01*
X532066D01*
Y128619D01*
X531876D01*
Y128715D01*
X531685D01*
Y128810D01*
X531495D01*
Y128905D01*
X531400D01*
Y129000D01*
X531209D01*
Y129095D01*
X531019D01*
Y129191D01*
X530924D01*
Y129286D01*
X530733D01*
Y129381D01*
X530542D01*
Y129476D01*
X530352D01*
Y129572D01*
X530257D01*
Y129667D01*
X530066D01*
Y129762D01*
X529876D01*
Y129858D01*
X529685D01*
Y129953D01*
X529590D01*
Y130048D01*
X529399D01*
Y130143D01*
X529209D01*
Y130239D01*
X529019D01*
Y130334D01*
X528923D01*
Y130429D01*
X528733D01*
Y130524D01*
X528542D01*
Y130619D01*
X528447D01*
Y130715D01*
X528256D01*
Y130810D01*
X528066D01*
Y130905D01*
X527876D01*
Y131000D01*
X527780D01*
Y131096D01*
X527590D01*
Y131191D01*
X527399D01*
Y131286D01*
X527209D01*
Y131382D01*
X527113D01*
Y131477D01*
X526923D01*
Y131572D01*
X526732D01*
Y131667D01*
X526637D01*
Y131763D01*
X526542D01*
Y146336D01*
X518160D01*
Y146526D01*
X518255D01*
Y146622D01*
X518350D01*
Y146717D01*
X518446D01*
Y146812D01*
X518541D01*
Y146907D01*
X518636D01*
Y147002D01*
X518731D01*
Y147098D01*
X518827D01*
Y147193D01*
X518922D01*
Y147288D01*
X519017D01*
Y147383D01*
X519113D01*
Y147479D01*
X519208D01*
Y147574D01*
X519303D01*
Y147669D01*
X519398D01*
Y147765D01*
X519493D01*
Y147860D01*
X519589D01*
Y147955D01*
X519684D01*
Y148050D01*
X519779D01*
Y148146D01*
X519874D01*
Y148241D01*
X519970D01*
Y148336D01*
X520065D01*
Y148431D01*
X520160D01*
Y148526D01*
X520256D01*
Y148622D01*
X520351D01*
Y148717D01*
X520446D01*
Y148812D01*
X520541D01*
Y148907D01*
X520636D01*
Y149003D01*
X520732D01*
Y149098D01*
X520827D01*
Y149193D01*
X520922D01*
Y149289D01*
X521017D01*
Y149384D01*
X521113D01*
Y149479D01*
X521208D01*
Y149574D01*
X521303D01*
Y149670D01*
X521399D01*
Y149765D01*
X521494D01*
Y149860D01*
X521589D01*
Y149955D01*
X521684D01*
Y150050D01*
X521780D01*
Y150146D01*
X521875D01*
Y150241D01*
X521970D01*
Y150336D01*
X522065D01*
Y150431D01*
X522160D01*
Y150527D01*
X522256D01*
Y150622D01*
X522351D01*
Y150717D01*
X522446D01*
Y150813D01*
X522542D01*
Y150908D01*
X522637D01*
Y151003D01*
X522732D01*
Y151098D01*
X522827D01*
Y151194D01*
X522923D01*
Y151289D01*
X523018D01*
Y151384D01*
X523113D01*
Y151479D01*
X523208D01*
Y151574D01*
X523303D01*
Y151670D01*
X523399D01*
Y151765D01*
X523494D01*
Y151860D01*
X523589D01*
Y151955D01*
X523685D01*
Y152051D01*
X523780D01*
Y152146D01*
X523875D01*
Y152241D01*
X523970D01*
Y152337D01*
X524066D01*
Y152432D01*
X524161D01*
Y152527D01*
X524256D01*
Y152622D01*
X524351D01*
Y152718D01*
X524446D01*
Y152813D01*
X524542D01*
Y152908D01*
X524637D01*
Y153003D01*
X524732D01*
Y153098D01*
X524827D01*
Y153194D01*
X524923D01*
Y153289D01*
X525018D01*
Y153384D01*
X525113D01*
Y153479D01*
X525209D01*
Y153575D01*
X525304D01*
Y153670D01*
X525399D01*
Y153765D01*
X525494D01*
Y153861D01*
X525589D01*
Y153956D01*
X525685D01*
Y154051D01*
X525780D01*
Y154146D01*
X525875D01*
Y154242D01*
X525970D01*
Y154337D01*
X526066D01*
Y154432D01*
X526161D01*
Y154527D01*
X526256D01*
Y154622D01*
X526352D01*
Y154718D01*
X526447D01*
Y154813D01*
X526542D01*
Y154908D01*
X526732D01*
Y154813D01*
D02*
G37*
D10*
X559550Y352050D02*
G03*
X559550Y352050I-1250J0D01*
G01*
X470650D02*
G03*
X470650Y352050I-1250J0D01*
G01*
X381750Y225050D02*
G03*
X381750Y225050I-1250J0D01*
G01*
X115050Y224650D02*
G03*
X115050Y224650I-1250J0D01*
G01*
X203950Y225050D02*
G03*
X203950Y225050I-1250J0D01*
G01*
X292850D02*
G03*
X292850Y225050I-1250J0D01*
G01*
X559550D02*
G03*
X559550Y225050I-1250J0D01*
G01*
X470650D02*
G03*
X470650Y225050I-1250J0D01*
G01*
X115050Y352050D02*
G03*
X115050Y352050I-1250J0D01*
G01*
X292850D02*
G03*
X292850Y352050I-1250J0D01*
G01*
X381750D02*
G03*
X381750Y352050I-1250J0D01*
G01*
X203950D02*
G03*
X203950Y352050I-1250J0D01*
G01*
D11*
X69850Y57150D02*
X412750D01*
X69850Y184150D02*
X412750D01*
Y57150D02*
Y184150D01*
X69850Y57150D02*
Y184150D01*
X298450Y57150D02*
Y184150D01*
X355600Y57150D02*
Y184150D01*
X69850Y120650D02*
X412750D01*
X241300Y57150D02*
Y184150D01*
X184150Y57150D02*
Y184150D01*
X127000Y57150D02*
Y184150D01*
X535940Y90736D02*
Y82739D01*
X539939Y78740D01*
X543937Y82739D01*
Y90736D01*
X547936Y78740D02*
X551935D01*
X549935D01*
Y90736D01*
X547936Y88737D01*
X557933Y78740D02*
Y80739D01*
X559932D01*
Y78740D01*
X557933D01*
X567930Y88737D02*
X569929Y90736D01*
X573928D01*
X575927Y88737D01*
Y80739D01*
X573928Y78740D01*
X569929D01*
X567930Y80739D01*
Y88737D01*
X491490Y109786D02*
Y97790D01*
X497488D01*
X499487Y99789D01*
Y107787D01*
X497488Y109786D01*
X491490D01*
X511483Y107787D02*
X509484Y109786D01*
X505485D01*
X503486Y107787D01*
Y105787D01*
X505485Y103788D01*
X509484D01*
X511483Y101789D01*
Y99789D01*
X509484Y97790D01*
X505485D01*
X503486Y99789D01*
X515482Y109786D02*
Y97790D01*
X521480D01*
X523480Y99789D01*
Y107787D01*
X521480Y109786D01*
X515482D01*
X547472Y107787D02*
X545472Y109786D01*
X541474D01*
X539474Y107787D01*
Y105787D01*
X541474Y103788D01*
X545472D01*
X547472Y101789D01*
Y99789D01*
X545472Y97790D01*
X541474D01*
X539474Y99789D01*
X559468Y109786D02*
X551471D01*
Y103788D01*
X555469D01*
X551471D01*
Y97790D01*
X571464Y107787D02*
X569465Y109786D01*
X565466D01*
X563467Y107787D01*
Y105787D01*
X565466Y103788D01*
X569465D01*
X571464Y101789D01*
Y99789D01*
X569465Y97790D01*
X565466D01*
X563467Y99789D01*
X587459Y109786D02*
Y97790D01*
Y103788D01*
X595456D01*
Y109786D01*
Y97790D01*
X599455D02*
Y105787D01*
X603454Y109786D01*
X607453Y105787D01*
Y97790D01*
Y103788D01*
X599455D01*
X611451Y109786D02*
X619449D01*
X615450D01*
Y97790D01*
X369947Y157317D02*
X367948Y159316D01*
X363949D01*
X361950Y157317D01*
Y149319D01*
X363949Y147320D01*
X367948D01*
X369947Y149319D01*
Y153318D01*
X365949D01*
X373946Y147320D02*
Y159316D01*
X381944Y147320D01*
Y159316D01*
X385942D02*
Y147320D01*
X391940D01*
X393940Y149319D01*
Y157317D01*
X391940Y159316D01*
X385942D01*
X369947Y139537D02*
X367948Y141536D01*
X363949D01*
X361950Y139537D01*
Y131539D01*
X363949Y129540D01*
X367948D01*
X369947Y131539D01*
Y135538D01*
X365949D01*
X373946Y129540D02*
Y141536D01*
X379944D01*
X381944Y139537D01*
Y135538D01*
X379944Y133539D01*
X373946D01*
X393940Y129540D02*
X385942D01*
X393940Y137537D01*
Y139537D01*
X391940Y141536D01*
X387942D01*
X385942Y139537D01*
X397938D02*
X399938Y141536D01*
X403936D01*
X405936Y139537D01*
Y131539D01*
X403936Y129540D01*
X399938D01*
X397938Y131539D01*
Y139537D01*
X361950Y171098D02*
X369947D01*
X365949Y175097D02*
Y167099D01*
X373946Y175097D02*
X375946Y177096D01*
X379944D01*
X381944Y175097D01*
Y173097D01*
X379944Y171098D01*
X377945D01*
X379944D01*
X381944Y169099D01*
Y167099D01*
X379944Y165100D01*
X375946D01*
X373946Y167099D01*
X385942Y177096D02*
Y169099D01*
X389941Y165100D01*
X393940Y169099D01*
Y177096D01*
X397938Y175097D02*
X399938Y177096D01*
X403936D01*
X405936Y175097D01*
Y173097D01*
X403936Y171098D01*
X401937D01*
X403936D01*
X405936Y169099D01*
Y167099D01*
X403936Y165100D01*
X399938D01*
X397938Y167099D01*
X84197Y139537D02*
X82198Y141536D01*
X78199D01*
X76200Y139537D01*
Y131539D01*
X78199Y129540D01*
X82198D01*
X84197Y131539D01*
Y135538D01*
X80199D01*
X88196Y129540D02*
Y141536D01*
X94194D01*
X96194Y139537D01*
Y135538D01*
X94194Y133539D01*
X88196D01*
X100192Y129540D02*
X104191D01*
X102192D01*
Y141536D01*
X100192Y139537D01*
X110189D02*
X112188Y141536D01*
X116187D01*
X118186Y139537D01*
Y137537D01*
X116187Y135538D01*
X118186Y133539D01*
Y131539D01*
X116187Y129540D01*
X112188D01*
X110189Y131539D01*
Y133539D01*
X112188Y135538D01*
X110189Y137537D01*
Y139537D01*
X112188Y135538D02*
X116187D01*
X84197Y157317D02*
X82198Y159316D01*
X78199D01*
X76200Y157317D01*
Y149319D01*
X78199Y147320D01*
X82198D01*
X84197Y149319D01*
Y153318D01*
X80199D01*
X88196Y147320D02*
Y159316D01*
X96194Y147320D01*
Y159316D01*
X100192D02*
Y147320D01*
X106190D01*
X108190Y149319D01*
Y157317D01*
X106190Y159316D01*
X100192D01*
X76200Y171098D02*
X84197D01*
X80199Y175097D02*
Y167099D01*
X88196Y175097D02*
X90196Y177096D01*
X94194D01*
X96194Y175097D01*
Y173097D01*
X94194Y171098D01*
X92195D01*
X94194D01*
X96194Y169099D01*
Y167099D01*
X94194Y165100D01*
X90196D01*
X88196Y167099D01*
X100192Y177096D02*
Y169099D01*
X104191Y165100D01*
X108190Y169099D01*
Y177096D01*
X112188Y175097D02*
X114188Y177096D01*
X118186D01*
X120186Y175097D01*
Y173097D01*
X118186Y171098D01*
X116187D01*
X118186D01*
X120186Y169099D01*
Y167099D01*
X118186Y165100D01*
X114188D01*
X112188Y167099D01*
X190500Y171098D02*
X198497D01*
X194499Y175097D02*
Y167099D01*
X202496Y175097D02*
X204496Y177096D01*
X208494D01*
X210494Y175097D01*
Y173097D01*
X208494Y171098D01*
X206495D01*
X208494D01*
X210494Y169099D01*
Y167099D01*
X208494Y165100D01*
X204496D01*
X202496Y167099D01*
X214492Y177096D02*
Y169099D01*
X218491Y165100D01*
X222490Y169099D01*
Y177096D01*
X226488Y175097D02*
X228488Y177096D01*
X232486D01*
X234486Y175097D01*
Y173097D01*
X232486Y171098D01*
X230487D01*
X232486D01*
X234486Y169099D01*
Y167099D01*
X232486Y165100D01*
X228488D01*
X226488Y167099D01*
X198497Y157317D02*
X196498Y159316D01*
X192499D01*
X190500Y157317D01*
Y149319D01*
X192499Y147320D01*
X196498D01*
X198497Y149319D01*
Y153318D01*
X194499D01*
X202496Y147320D02*
Y159316D01*
X210494Y147320D01*
Y159316D01*
X214492D02*
Y147320D01*
X220490D01*
X222490Y149319D01*
Y157317D01*
X220490Y159316D01*
X214492D01*
X198497Y139537D02*
X196498Y141536D01*
X192499D01*
X190500Y139537D01*
Y131539D01*
X192499Y129540D01*
X196498D01*
X198497Y131539D01*
Y135538D01*
X194499D01*
X202496Y129540D02*
Y141536D01*
X208494D01*
X210494Y139537D01*
Y135538D01*
X208494Y133539D01*
X202496D01*
X222490Y129540D02*
X214492D01*
X222490Y137537D01*
Y139537D01*
X220490Y141536D01*
X216492D01*
X214492Y139537D01*
X232486Y129540D02*
Y141536D01*
X226488Y135538D01*
X234486D01*
X255647Y139537D02*
X253648Y141536D01*
X249649D01*
X247650Y139537D01*
Y131539D01*
X249649Y129540D01*
X253648D01*
X255647Y131539D01*
Y135538D01*
X251649D01*
X259646Y129540D02*
Y141536D01*
X265644D01*
X267644Y139537D01*
Y135538D01*
X265644Y133539D01*
X259646D01*
X271642Y141536D02*
X279640D01*
Y139537D01*
X271642Y131539D01*
Y129540D01*
X255647Y157317D02*
X253648Y159316D01*
X249649D01*
X247650Y157317D01*
Y149319D01*
X249649Y147320D01*
X253648D01*
X255647Y149319D01*
Y153318D01*
X251649D01*
X259646Y147320D02*
Y159316D01*
X267644Y147320D01*
Y159316D01*
X271642D02*
Y147320D01*
X277640D01*
X279640Y149319D01*
Y157317D01*
X277640Y159316D01*
X271642D01*
X247650Y171098D02*
X255647D01*
X251649Y175097D02*
Y167099D01*
X259646Y175097D02*
X261646Y177096D01*
X265644D01*
X267644Y175097D01*
Y173097D01*
X265644Y171098D01*
X263645D01*
X265644D01*
X267644Y169099D01*
Y167099D01*
X265644Y165100D01*
X261646D01*
X259646Y167099D01*
X271642Y177096D02*
Y169099D01*
X275641Y165100D01*
X279640Y169099D01*
Y177096D01*
X283638Y175097D02*
X285638Y177096D01*
X289636D01*
X291636Y175097D01*
Y173097D01*
X289636Y171098D01*
X287637D01*
X289636D01*
X291636Y169099D01*
Y167099D01*
X289636Y165100D01*
X285638D01*
X283638Y167099D01*
X141347Y76037D02*
X139348Y78036D01*
X135349D01*
X133350Y76037D01*
Y68039D01*
X135349Y66040D01*
X139348D01*
X141347Y68039D01*
Y72038D01*
X137349D01*
X145346Y66040D02*
Y78036D01*
X151344D01*
X153343Y76037D01*
Y72038D01*
X151344Y70039D01*
X145346D01*
X165340Y66040D02*
X157342D01*
X165340Y74037D01*
Y76037D01*
X163340Y78036D01*
X159342D01*
X157342Y76037D01*
X169338Y78036D02*
X177336D01*
Y76037D01*
X169338Y68039D01*
Y66040D01*
X141347Y93817D02*
X139348Y95816D01*
X135349D01*
X133350Y93817D01*
Y85819D01*
X135349Y83820D01*
X139348D01*
X141347Y85819D01*
Y89818D01*
X137349D01*
X145346Y83820D02*
Y95816D01*
X153343Y83820D01*
Y95816D01*
X157342D02*
Y83820D01*
X163340D01*
X165340Y85819D01*
Y93817D01*
X163340Y95816D01*
X157342D01*
X133350Y107598D02*
X141347D01*
X137349Y111597D02*
Y103599D01*
X145346Y111597D02*
X147346Y113596D01*
X151344D01*
X153343Y111597D01*
Y109597D01*
X151344Y107598D01*
X149345D01*
X151344D01*
X153343Y105599D01*
Y103599D01*
X151344Y101600D01*
X147346D01*
X145346Y103599D01*
X157342Y113596D02*
Y105599D01*
X161341Y101600D01*
X165340Y105599D01*
Y113596D01*
X169338Y111597D02*
X171338Y113596D01*
X175336D01*
X177336Y111597D01*
Y109597D01*
X175336Y107598D01*
X173337D01*
X175336D01*
X177336Y105599D01*
Y103599D01*
X175336Y101600D01*
X171338D01*
X169338Y103599D01*
X84197Y76037D02*
X82198Y78036D01*
X78199D01*
X76200Y76037D01*
Y68039D01*
X78199Y66040D01*
X82198D01*
X84197Y68039D01*
Y72038D01*
X80199D01*
X88196Y66040D02*
Y78036D01*
X94194D01*
X96194Y76037D01*
Y72038D01*
X94194Y70039D01*
X88196D01*
X100192Y66040D02*
X104191D01*
X102192D01*
Y78036D01*
X100192Y76037D01*
X110189Y78036D02*
X118186D01*
Y76037D01*
X110189Y68039D01*
Y66040D01*
X84197Y93817D02*
X82198Y95816D01*
X78199D01*
X76200Y93817D01*
Y85819D01*
X78199Y83820D01*
X82198D01*
X84197Y85819D01*
Y89818D01*
X80199D01*
X88196Y83820D02*
Y95816D01*
X96194Y83820D01*
Y95816D01*
X100192D02*
Y83820D01*
X106190D01*
X108190Y85819D01*
Y93817D01*
X106190Y95816D01*
X100192D01*
X76200Y107598D02*
X84197D01*
X80199Y111597D02*
Y103599D01*
X88196Y111597D02*
X90196Y113596D01*
X94194D01*
X96194Y111597D01*
Y109597D01*
X94194Y107598D01*
X92195D01*
X94194D01*
X96194Y105599D01*
Y103599D01*
X94194Y101600D01*
X90196D01*
X88196Y103599D01*
X100192Y113596D02*
Y105599D01*
X104191Y101600D01*
X108190Y105599D01*
Y113596D01*
X112188Y111597D02*
X114188Y113596D01*
X118186D01*
X120186Y111597D01*
Y109597D01*
X118186Y107598D01*
X116187D01*
X118186D01*
X120186Y105599D01*
Y103599D01*
X118186Y101600D01*
X114188D01*
X112188Y103599D01*
X369947Y76037D02*
X367948Y78036D01*
X363949D01*
X361950Y76037D01*
Y68039D01*
X363949Y66040D01*
X367948D01*
X369947Y68039D01*
Y72038D01*
X365949D01*
X373946Y66040D02*
Y78036D01*
X379944D01*
X381944Y76037D01*
Y72038D01*
X379944Y70039D01*
X373946D01*
X385942Y66040D02*
X389941D01*
X387942D01*
Y78036D01*
X385942Y76037D01*
X395939D02*
X397938Y78036D01*
X401937D01*
X403936Y76037D01*
Y74037D01*
X401937Y72038D01*
X399938D01*
X401937D01*
X403936Y70039D01*
Y68039D01*
X401937Y66040D01*
X397938D01*
X395939Y68039D01*
X369947Y93817D02*
X367948Y95816D01*
X363949D01*
X361950Y93817D01*
Y85819D01*
X363949Y83820D01*
X367948D01*
X369947Y85819D01*
Y89818D01*
X365949D01*
X373946Y83820D02*
Y95816D01*
X381944Y83820D01*
Y95816D01*
X385942D02*
Y83820D01*
X391940D01*
X393940Y85819D01*
Y93817D01*
X391940Y95816D01*
X385942D01*
X361950Y107598D02*
X369947D01*
X365949Y111597D02*
Y103599D01*
X373946Y111597D02*
X375946Y113596D01*
X379944D01*
X381944Y111597D01*
Y109597D01*
X379944Y107598D01*
X377945D01*
X379944D01*
X381944Y105599D01*
Y103599D01*
X379944Y101600D01*
X375946D01*
X373946Y103599D01*
X385942Y113596D02*
Y105599D01*
X389941Y101600D01*
X393940Y105599D01*
Y113596D01*
X397938Y111597D02*
X399938Y113596D01*
X403936D01*
X405936Y111597D01*
Y109597D01*
X403936Y107598D01*
X401937D01*
X403936D01*
X405936Y105599D01*
Y103599D01*
X403936Y101600D01*
X399938D01*
X397938Y103599D01*
X312797Y76037D02*
X310798Y78036D01*
X306799D01*
X304800Y76037D01*
Y68039D01*
X306799Y66040D01*
X310798D01*
X312797Y68039D01*
Y72038D01*
X308799D01*
X316796Y66040D02*
Y78036D01*
X322794D01*
X324794Y76037D01*
Y72038D01*
X322794Y70039D01*
X316796D01*
X336790Y78036D02*
X332791Y76037D01*
X328792Y72038D01*
Y68039D01*
X330792Y66040D01*
X334790D01*
X336790Y68039D01*
Y70039D01*
X334790Y72038D01*
X328792D01*
X312797Y93817D02*
X310798Y95816D01*
X306799D01*
X304800Y93817D01*
Y85819D01*
X306799Y83820D01*
X310798D01*
X312797Y85819D01*
Y89818D01*
X308799D01*
X316796Y83820D02*
Y95816D01*
X324794Y83820D01*
Y95816D01*
X328792D02*
Y83820D01*
X334790D01*
X336790Y85819D01*
Y93817D01*
X334790Y95816D01*
X328792D01*
X304800Y107598D02*
X312797D01*
X308799Y111597D02*
Y103599D01*
X316796Y111597D02*
X318796Y113596D01*
X322794D01*
X324794Y111597D01*
Y109597D01*
X322794Y107598D01*
X320795D01*
X322794D01*
X324794Y105599D01*
Y103599D01*
X322794Y101600D01*
X318796D01*
X316796Y103599D01*
X328792Y113596D02*
Y105599D01*
X332791Y101600D01*
X336790Y105599D01*
Y113596D01*
X340788Y111597D02*
X342788Y113596D01*
X346786D01*
X348786Y111597D01*
Y109597D01*
X346786Y107598D01*
X344787D01*
X346786D01*
X348786Y105599D01*
Y103599D01*
X346786Y101600D01*
X342788D01*
X340788Y103599D01*
X255647Y76037D02*
X253648Y78036D01*
X249649D01*
X247650Y76037D01*
Y68039D01*
X249649Y66040D01*
X253648D01*
X255647Y68039D01*
Y72038D01*
X251649D01*
X259646Y66040D02*
Y78036D01*
X265644D01*
X267644Y76037D01*
Y72038D01*
X265644Y70039D01*
X259646D01*
X279640Y78036D02*
X271642D01*
Y72038D01*
X275641Y74037D01*
X277640D01*
X279640Y72038D01*
Y68039D01*
X277640Y66040D01*
X273642D01*
X271642Y68039D01*
X255647Y93817D02*
X253648Y95816D01*
X249649D01*
X247650Y93817D01*
Y85819D01*
X249649Y83820D01*
X253648D01*
X255647Y85819D01*
Y89818D01*
X251649D01*
X259646Y83820D02*
Y95816D01*
X267644Y83820D01*
Y95816D01*
X271642D02*
Y83820D01*
X277640D01*
X279640Y85819D01*
Y93817D01*
X277640Y95816D01*
X271642D01*
X247650Y107598D02*
X255647D01*
X251649Y111597D02*
Y103599D01*
X259646Y111597D02*
X261646Y113596D01*
X265644D01*
X267644Y111597D01*
Y109597D01*
X265644Y107598D01*
X263645D01*
X265644D01*
X267644Y105599D01*
Y103599D01*
X265644Y101600D01*
X261646D01*
X259646Y103599D01*
X271642Y113596D02*
Y105599D01*
X275641Y101600D01*
X279640Y105599D01*
Y113596D01*
X283638Y111597D02*
X285638Y113596D01*
X289636D01*
X291636Y111597D01*
Y109597D01*
X289636Y107598D01*
X287637D01*
X289636D01*
X291636Y105599D01*
Y103599D01*
X289636Y101600D01*
X285638D01*
X283638Y103599D01*
X198497Y76037D02*
X196498Y78036D01*
X192499D01*
X190500Y76037D01*
Y68039D01*
X192499Y66040D01*
X196498D01*
X198497Y68039D01*
Y72038D01*
X194499D01*
X202496Y66040D02*
Y78036D01*
X208494D01*
X210494Y76037D01*
Y72038D01*
X208494Y70039D01*
X202496D01*
X222490Y66040D02*
X214492D01*
X222490Y74037D01*
Y76037D01*
X220490Y78036D01*
X216492D01*
X214492Y76037D01*
X234486Y66040D02*
X226488D01*
X234486Y74037D01*
Y76037D01*
X232486Y78036D01*
X228488D01*
X226488Y76037D01*
X198497Y93817D02*
X196498Y95816D01*
X192499D01*
X190500Y93817D01*
Y85819D01*
X192499Y83820D01*
X196498D01*
X198497Y85819D01*
Y89818D01*
X194499D01*
X202496Y83820D02*
Y95816D01*
X210494Y83820D01*
Y95816D01*
X214492D02*
Y83820D01*
X220490D01*
X222490Y85819D01*
Y93817D01*
X220490Y95816D01*
X214492D01*
X190500Y107598D02*
X198497D01*
X194499Y111597D02*
Y103599D01*
X202496Y111597D02*
X204496Y113596D01*
X208494D01*
X210494Y111597D01*
Y109597D01*
X208494Y107598D01*
X206495D01*
X208494D01*
X210494Y105599D01*
Y103599D01*
X208494Y101600D01*
X204496D01*
X202496Y103599D01*
X214492Y113596D02*
Y105599D01*
X218491Y101600D01*
X222490Y105599D01*
Y113596D01*
X226488Y111597D02*
X228488Y113596D01*
X232486D01*
X234486Y111597D01*
Y109597D01*
X232486Y107598D01*
X230487D01*
X232486D01*
X234486Y105599D01*
Y103599D01*
X232486Y101600D01*
X228488D01*
X226488Y103599D01*
X312797Y139537D02*
X310798Y141536D01*
X306799D01*
X304800Y139537D01*
Y131539D01*
X306799Y129540D01*
X310798D01*
X312797Y131539D01*
Y135538D01*
X308799D01*
X316796Y129540D02*
Y141536D01*
X322794D01*
X324794Y139537D01*
Y135538D01*
X322794Y133539D01*
X316796D01*
X328792Y129540D02*
X332791D01*
X330792D01*
Y141536D01*
X328792Y139537D01*
X346786Y141536D02*
X342788Y139537D01*
X338789Y135538D01*
Y131539D01*
X340788Y129540D01*
X344787D01*
X346786Y131539D01*
Y133539D01*
X344787Y135538D01*
X338789D01*
X312797Y157317D02*
X310798Y159316D01*
X306799D01*
X304800Y157317D01*
Y149319D01*
X306799Y147320D01*
X310798D01*
X312797Y149319D01*
Y153318D01*
X308799D01*
X316796Y147320D02*
Y159316D01*
X324794Y147320D01*
Y159316D01*
X328792D02*
Y147320D01*
X334790D01*
X336790Y149319D01*
Y157317D01*
X334790Y159316D01*
X328792D01*
X304800Y171098D02*
X312797D01*
X308799Y175097D02*
Y167099D01*
X316796Y175097D02*
X318796Y177096D01*
X322794D01*
X324794Y175097D01*
Y173097D01*
X322794Y171098D01*
X320795D01*
X322794D01*
X324794Y169099D01*
Y167099D01*
X322794Y165100D01*
X318796D01*
X316796Y167099D01*
X328792Y177096D02*
Y169099D01*
X332791Y165100D01*
X336790Y169099D01*
Y177096D01*
X340788Y175097D02*
X342788Y177096D01*
X346786D01*
X348786Y175097D01*
Y173097D01*
X346786Y171098D01*
X344787D01*
X346786D01*
X348786Y169099D01*
Y167099D01*
X346786Y165100D01*
X342788D01*
X340788Y167099D01*
X141347Y139537D02*
X139348Y141536D01*
X135349D01*
X133350Y139537D01*
Y131539D01*
X135349Y129540D01*
X139348D01*
X141347Y131539D01*
Y135538D01*
X137349D01*
X145346Y129540D02*
Y141536D01*
X151344D01*
X153343Y139537D01*
Y135538D01*
X151344Y133539D01*
X145346D01*
X165340Y129540D02*
X157342D01*
X165340Y137537D01*
Y139537D01*
X163340Y141536D01*
X159342D01*
X157342Y139537D01*
X169338D02*
X171338Y141536D01*
X175336D01*
X177336Y139537D01*
Y137537D01*
X175336Y135538D01*
X173337D01*
X175336D01*
X177336Y133539D01*
Y131539D01*
X175336Y129540D01*
X171338D01*
X169338Y131539D01*
X141347Y157317D02*
X139348Y159316D01*
X135349D01*
X133350Y157317D01*
Y149319D01*
X135349Y147320D01*
X139348D01*
X141347Y149319D01*
Y153318D01*
X137349D01*
X145346Y147320D02*
Y159316D01*
X153343Y147320D01*
Y159316D01*
X157342D02*
Y147320D01*
X163340D01*
X165340Y149319D01*
Y157317D01*
X163340Y159316D01*
X157342D01*
X133350Y171098D02*
X141347D01*
X137349Y175097D02*
Y167099D01*
X145346Y175097D02*
X147346Y177096D01*
X151344D01*
X153343Y175097D01*
Y173097D01*
X151344Y171098D01*
X149345D01*
X151344D01*
X153343Y169099D01*
Y167099D01*
X151344Y165100D01*
X147346D01*
X145346Y167099D01*
X157342Y177096D02*
Y169099D01*
X161341Y165100D01*
X165340Y169099D01*
Y177096D01*
X169338Y175097D02*
X171338Y177096D01*
X175336D01*
X177336Y175097D01*
Y173097D01*
X175336Y171098D01*
X173337D01*
X175336D01*
X177336Y169099D01*
Y167099D01*
X175336Y165100D01*
X171338D01*
X169338Y167099D01*
X556801Y475898D02*
X552802D01*
X554801D01*
Y465901D01*
X552802Y463902D01*
X550803D01*
X548803Y465901D01*
X568797Y475898D02*
X564798Y473899D01*
X560799Y469900D01*
Y465901D01*
X562799Y463902D01*
X566797D01*
X568797Y465901D01*
Y467901D01*
X566797Y469900D01*
X560799D01*
X467901Y475898D02*
X463902D01*
X465901D01*
Y465901D01*
X463902Y463902D01*
X461903D01*
X459903Y465901D01*
X479897Y475898D02*
X471899D01*
Y469900D01*
X475898Y471899D01*
X477897D01*
X479897Y469900D01*
Y465901D01*
X477897Y463902D01*
X473899D01*
X471899Y465901D01*
X374002Y209198D02*
X370004D01*
X372003D01*
Y199201D01*
X370004Y197202D01*
X368004D01*
X366005Y199201D01*
X378001Y197202D02*
X382000D01*
X380000D01*
Y209198D01*
X378001Y207199D01*
X387998D02*
X389997Y209198D01*
X393996D01*
X395995Y207199D01*
Y199201D01*
X393996Y197202D01*
X389997D01*
X387998Y199201D01*
Y207199D01*
X112301Y209198D02*
X108302D01*
X110301D01*
Y199201D01*
X108302Y197202D01*
X106303D01*
X104303Y199201D01*
X116299Y209198D02*
X124297D01*
Y207199D01*
X116299Y199201D01*
Y197202D01*
X201201Y209198D02*
X197202D01*
X199201D01*
Y199201D01*
X197202Y197202D01*
X195203D01*
X193203Y199201D01*
X205199Y207199D02*
X207199Y209198D01*
X211197D01*
X213197Y207199D01*
Y205199D01*
X211197Y203200D01*
X213197Y201201D01*
Y199201D01*
X211197Y197202D01*
X207199D01*
X205199Y199201D01*
Y201201D01*
X207199Y203200D01*
X205199Y205199D01*
Y207199D01*
X207199Y203200D02*
X211197D01*
X290101Y209198D02*
X286102D01*
X288101D01*
Y199201D01*
X286102Y197202D01*
X284103D01*
X282103Y199201D01*
X294099D02*
X296099Y197202D01*
X300097D01*
X302097Y199201D01*
Y207199D01*
X300097Y209198D01*
X296099D01*
X294099Y207199D01*
Y205199D01*
X296099Y203200D01*
X302097D01*
X551802Y209198D02*
X547804D01*
X549803D01*
Y199201D01*
X547804Y197202D01*
X545804D01*
X543805Y199201D01*
X555801Y197202D02*
X559800D01*
X557800D01*
Y209198D01*
X555801Y207199D01*
X573795Y197202D02*
X565798D01*
X573795Y205199D01*
Y207199D01*
X571796Y209198D01*
X567797D01*
X565798Y207199D01*
X490302Y209198D02*
X486303D01*
X488302D01*
Y199201D01*
X486303Y197202D01*
X484304D01*
X482304Y199201D01*
X494300Y197202D02*
X498299D01*
X496300D01*
Y209198D01*
X494300Y207199D01*
X504297Y197202D02*
X508296D01*
X506297D01*
Y209198D01*
X504297Y207199D01*
X114300Y475898D02*
X110301D01*
X112301D01*
Y465901D01*
X110301Y463902D01*
X108302D01*
X106303Y465901D01*
X118299Y463902D02*
X122297D01*
X120298D01*
Y475898D01*
X118299Y473899D01*
X290101Y475898D02*
X286102D01*
X288101D01*
Y465901D01*
X286102Y463902D01*
X284103D01*
X282103Y465901D01*
X294099Y473899D02*
X296099Y475898D01*
X300097D01*
X302097Y473899D01*
Y471899D01*
X300097Y469900D01*
X298098D01*
X300097D01*
X302097Y467901D01*
Y465901D01*
X300097Y463902D01*
X296099D01*
X294099Y465901D01*
X379001Y475898D02*
X375002D01*
X377001D01*
Y465901D01*
X375002Y463902D01*
X373003D01*
X371003Y465901D01*
X388997Y463902D02*
Y475898D01*
X382999Y469900D01*
X390997D01*
X201201Y475898D02*
X197202D01*
X199201D01*
Y465901D01*
X197202Y463902D01*
X195203D01*
X193203Y465901D01*
X213197Y463902D02*
X205199D01*
X213197Y471899D01*
Y473899D01*
X211197Y475898D01*
X207199D01*
X205199Y473899D01*
D12*
X535300Y357300D02*
X592800D01*
Y456300D01*
X535300D02*
X592800D01*
X535300Y357300D02*
Y456300D01*
X446400Y357300D02*
X503900D01*
Y456300D01*
X446400D02*
X503900D01*
X446400Y357300D02*
Y456300D01*
X357500Y230300D02*
X415000D01*
Y329300D01*
X357500D02*
X415000D01*
X357500Y230300D02*
Y329300D01*
X90800Y229900D02*
X148300D01*
Y328900D01*
X90800D02*
X148300D01*
X90800Y229900D02*
Y328900D01*
X179700Y230300D02*
X237200D01*
Y329300D01*
X179700D02*
X237200D01*
X179700Y230300D02*
Y329300D01*
X268600Y230300D02*
X326100D01*
Y329300D01*
X268600D02*
X326100D01*
X268600Y230300D02*
Y329300D01*
X535300Y230300D02*
X592800D01*
Y329300D01*
X535300D02*
X592800D01*
X535300Y230300D02*
Y329300D01*
X446400Y230300D02*
X503900D01*
Y329300D01*
X446400D02*
X503900D01*
X446400Y230300D02*
Y329300D01*
X90800Y357300D02*
X148300D01*
Y456300D01*
X90800D02*
X148300D01*
X90800Y357300D02*
Y456300D01*
X268600Y357300D02*
X326100D01*
Y456300D01*
X268600D02*
X326100D01*
X268600Y357300D02*
Y456300D01*
X357500Y357300D02*
X415000D01*
Y456300D01*
X357500D02*
X415000D01*
X357500Y357300D02*
Y456300D01*
X179700Y357300D02*
X237200D01*
Y456300D01*
X179700D02*
X237200D01*
X179700Y357300D02*
Y456300D01*
M02*
