G04*
G04 #@! TF.GenerationSoftware,Altium Limited,Altium Designer,25.1.2 (22)*
G04*
G04 Layer_Color=0*
%FSLAX44Y44*%
%MOMM*%
G71*
G04*
G04 #@! TF.SameCoordinates,64B4FDAD-AF64-4148-92BB-00BBC35E7A55*
G04*
G04*
G04 #@! TF.FilePolarity,Positive*
G04*
G01*
G75*
%ADD22C,0.1000*%
D22*
X559050Y406800D02*
X569050D01*
X564050Y401800D02*
Y411800D01*
X470150Y406800D02*
X480150D01*
X475150Y401800D02*
Y411800D01*
X381250Y279800D02*
X391250D01*
X386250Y274800D02*
Y284800D01*
X114550Y279400D02*
X124550D01*
X119550Y274400D02*
Y284400D01*
X203450Y279800D02*
X213450D01*
X208450Y274800D02*
Y284800D01*
X292350Y279800D02*
X302350D01*
X297350Y274800D02*
Y284800D01*
X559050Y279800D02*
X569050D01*
X564050Y274800D02*
Y284800D01*
X470150Y279800D02*
X480150D01*
X475150Y274800D02*
Y284800D01*
X114550Y406800D02*
X124550D01*
X119550Y401800D02*
Y411800D01*
X292350Y406800D02*
X302350D01*
X297350Y401800D02*
Y411800D01*
X381250Y406800D02*
X391250D01*
X386250Y401800D02*
Y411800D01*
X203450Y406800D02*
X213450D01*
X208450Y401800D02*
Y411800D01*
M02*
