G04*
G04 #@! TF.GenerationSoftware,Altium Limited,Altium Designer,25.1.2 (22)*
G04*
G04 Layer_Color=2752767*
%FSLAX44Y44*%
%MOMM*%
G71*
G04*
G04 #@! TF.SameCoordinates,64B4FDAD-AF64-4148-92BB-00BBC35E7A55*
G04*
G04*
G04 #@! TF.FilePolarity,Positive*
G04*
G01*
G75*
%ADD23C,0.1270*%
%ADD24C,0.1693*%
D23*
X553720Y426720D02*
X556260Y431800D01*
X553720Y436880D01*
X558800Y434340D01*
X563880Y436880D01*
X561340Y431800D01*
X563880Y426720D01*
X558800Y429260D01*
X553720Y426720D01*
Y401720D02*
X556260Y406800D01*
X553720Y411880D01*
X558800Y409340D01*
X563880Y411880D01*
X561340Y406800D01*
X563880Y401720D01*
X558800Y404260D01*
X553720Y401720D01*
Y376720D02*
X556260Y381800D01*
X553720Y386880D01*
X558800Y384340D01*
X563880Y386880D01*
X561340Y381800D01*
X563880Y376720D01*
X558800Y379260D01*
X553720Y376720D01*
X464820Y426720D02*
X467360Y431800D01*
X464820Y436880D01*
X469900Y434340D01*
X474980Y436880D01*
X472440Y431800D01*
X474980Y426720D01*
X469900Y429260D01*
X464820Y426720D01*
Y401720D02*
X467360Y406800D01*
X464820Y411880D01*
X469900Y409340D01*
X474980Y411880D01*
X472440Y406800D01*
X474980Y401720D01*
X469900Y404260D01*
X464820Y401720D01*
Y376720D02*
X467360Y381800D01*
X464820Y386880D01*
X469900Y384340D01*
X474980Y386880D01*
X472440Y381800D01*
X474980Y376720D01*
X469900Y379260D01*
X464820Y376720D01*
X375920Y299720D02*
X378460Y304800D01*
X375920Y309880D01*
X381000Y307340D01*
X386080Y309880D01*
X383540Y304800D01*
X386080Y299720D01*
X381000Y302260D01*
X375920Y299720D01*
Y274720D02*
X378460Y279800D01*
X375920Y284880D01*
X381000Y282340D01*
X386080Y284880D01*
X383540Y279800D01*
X386080Y274720D01*
X381000Y277260D01*
X375920Y274720D01*
Y249720D02*
X378460Y254800D01*
X375920Y259880D01*
X381000Y257340D01*
X386080Y259880D01*
X383540Y254800D01*
X386080Y249720D01*
X381000Y252260D01*
X375920Y249720D01*
X109220Y299320D02*
X111760Y304400D01*
X109220Y309480D01*
X114300Y306940D01*
X119380Y309480D01*
X116840Y304400D01*
X119380Y299320D01*
X114300Y301860D01*
X109220Y299320D01*
Y274320D02*
X111760Y279400D01*
X109220Y284480D01*
X114300Y281940D01*
X119380Y284480D01*
X116840Y279400D01*
X119380Y274320D01*
X114300Y276860D01*
X109220Y274320D01*
Y249320D02*
X111760Y254400D01*
X109220Y259480D01*
X114300Y256940D01*
X119380Y259480D01*
X116840Y254400D01*
X119380Y249320D01*
X114300Y251860D01*
X109220Y249320D01*
X198120Y299720D02*
X200660Y304800D01*
X198120Y309880D01*
X203200Y307340D01*
X208280Y309880D01*
X205740Y304800D01*
X208280Y299720D01*
X203200Y302260D01*
X198120Y299720D01*
Y274720D02*
X200660Y279800D01*
X198120Y284880D01*
X203200Y282340D01*
X208280Y284880D01*
X205740Y279800D01*
X208280Y274720D01*
X203200Y277260D01*
X198120Y274720D01*
Y249720D02*
X200660Y254800D01*
X198120Y259880D01*
X203200Y257340D01*
X208280Y259880D01*
X205740Y254800D01*
X208280Y249720D01*
X203200Y252260D01*
X198120Y249720D01*
X287020Y299720D02*
X289560Y304800D01*
X287020Y309880D01*
X292100Y307340D01*
X297180Y309880D01*
X294640Y304800D01*
X297180Y299720D01*
X292100Y302260D01*
X287020Y299720D01*
Y274720D02*
X289560Y279800D01*
X287020Y284880D01*
X292100Y282340D01*
X297180Y284880D01*
X294640Y279800D01*
X297180Y274720D01*
X292100Y277260D01*
X287020Y274720D01*
Y249720D02*
X289560Y254800D01*
X287020Y259880D01*
X292100Y257340D01*
X297180Y259880D01*
X294640Y254800D01*
X297180Y249720D01*
X292100Y252260D01*
X287020Y249720D01*
X553720Y299720D02*
X556260Y304800D01*
X553720Y309880D01*
X558800Y307340D01*
X563880Y309880D01*
X561340Y304800D01*
X563880Y299720D01*
X558800Y302260D01*
X553720Y299720D01*
Y274720D02*
X556260Y279800D01*
X553720Y284880D01*
X558800Y282340D01*
X563880Y284880D01*
X561340Y279800D01*
X563880Y274720D01*
X558800Y277260D01*
X553720Y274720D01*
Y249720D02*
X556260Y254800D01*
X553720Y259880D01*
X558800Y257340D01*
X563880Y259880D01*
X561340Y254800D01*
X563880Y249720D01*
X558800Y252260D01*
X553720Y249720D01*
X464820Y299720D02*
X467360Y304800D01*
X464820Y309880D01*
X469900Y307340D01*
X474980Y309880D01*
X472440Y304800D01*
X474980Y299720D01*
X469900Y302260D01*
X464820Y299720D01*
Y274720D02*
X467360Y279800D01*
X464820Y284880D01*
X469900Y282340D01*
X474980Y284880D01*
X472440Y279800D01*
X474980Y274720D01*
X469900Y277260D01*
X464820Y274720D01*
Y249720D02*
X467360Y254800D01*
X464820Y259880D01*
X469900Y257340D01*
X474980Y259880D01*
X472440Y254800D01*
X474980Y249720D01*
X469900Y252260D01*
X464820Y249720D01*
X109220Y426720D02*
X111760Y431800D01*
X109220Y436880D01*
X114300Y434340D01*
X119380Y436880D01*
X116840Y431800D01*
X119380Y426720D01*
X114300Y429260D01*
X109220Y426720D01*
Y401720D02*
X111760Y406800D01*
X109220Y411880D01*
X114300Y409340D01*
X119380Y411880D01*
X116840Y406800D01*
X119380Y401720D01*
X114300Y404260D01*
X109220Y401720D01*
Y376720D02*
X111760Y381800D01*
X109220Y386880D01*
X114300Y384340D01*
X119380Y386880D01*
X116840Y381800D01*
X119380Y376720D01*
X114300Y379260D01*
X109220Y376720D01*
X287020Y426720D02*
X289560Y431800D01*
X287020Y436880D01*
X292100Y434340D01*
X297180Y436880D01*
X294640Y431800D01*
X297180Y426720D01*
X292100Y429260D01*
X287020Y426720D01*
Y401720D02*
X289560Y406800D01*
X287020Y411880D01*
X292100Y409340D01*
X297180Y411880D01*
X294640Y406800D01*
X297180Y401720D01*
X292100Y404260D01*
X287020Y401720D01*
Y376720D02*
X289560Y381800D01*
X287020Y386880D01*
X292100Y384340D01*
X297180Y386880D01*
X294640Y381800D01*
X297180Y376720D01*
X292100Y379260D01*
X287020Y376720D01*
X375920Y426720D02*
X378460Y431800D01*
X375920Y436880D01*
X381000Y434340D01*
X386080Y436880D01*
X383540Y431800D01*
X386080Y426720D01*
X381000Y429260D01*
X375920Y426720D01*
Y401720D02*
X378460Y406800D01*
X375920Y411880D01*
X381000Y409340D01*
X386080Y411880D01*
X383540Y406800D01*
X386080Y401720D01*
X381000Y404260D01*
X375920Y401720D01*
Y376720D02*
X378460Y381800D01*
X375920Y386880D01*
X381000Y384340D01*
X386080Y386880D01*
X383540Y381800D01*
X386080Y376720D01*
X381000Y379260D01*
X375920Y376720D01*
X198120Y426720D02*
X200660Y431800D01*
X198120Y436880D01*
X203200Y434340D01*
X208280Y436880D01*
X205740Y431800D01*
X208280Y426720D01*
X203200Y429260D01*
X198120Y426720D01*
Y401720D02*
X200660Y406800D01*
X198120Y411880D01*
X203200Y409340D01*
X208280Y411880D01*
X205740Y406800D01*
X208280Y401720D01*
X203200Y404260D01*
X198120Y401720D01*
Y376720D02*
X200660Y381800D01*
X198120Y386880D01*
X203200Y384340D01*
X208280Y386880D01*
X205740Y381800D01*
X208280Y376720D01*
X203200Y379260D01*
X198120Y376720D01*
X78620Y532620D02*
X81160D01*
X83700Y535160D01*
X86240Y532620D01*
X88780D01*
Y535160D01*
X86240Y537700D01*
X88780Y540240D01*
Y542780D01*
X86240D01*
X83700Y540240D01*
X81160Y542780D01*
X78620D01*
Y540240D01*
X81160Y537700D01*
X78620Y535160D01*
Y532620D01*
X104020D02*
X106560D01*
X109100Y535160D01*
X111640Y532620D01*
X114180D01*
Y535160D01*
X111640Y537700D01*
X114180Y540240D01*
Y542780D01*
X111640D01*
X109100Y540240D01*
X106560Y542780D01*
X104020D01*
Y540240D01*
X106560Y537700D01*
X104020Y535160D01*
Y532620D01*
X129420D02*
X131960D01*
X134500Y535160D01*
X137040Y532620D01*
X139580D01*
Y535160D01*
X137040Y537700D01*
X139580Y540240D01*
Y542780D01*
X137040D01*
X134500Y540240D01*
X131960Y542780D01*
X129420D01*
Y540240D01*
X131960Y537700D01*
X129420Y535160D01*
Y532620D01*
X154820D02*
X157360D01*
X159900Y535160D01*
X162440Y532620D01*
X164980D01*
Y535160D01*
X162440Y537700D01*
X164980Y540240D01*
Y542780D01*
X162440D01*
X159900Y540240D01*
X157360Y542780D01*
X154820D01*
Y540240D01*
X157360Y537700D01*
X154820Y535160D01*
Y532620D01*
X180220D02*
X182760D01*
X185300Y535160D01*
X187840Y532620D01*
X190380D01*
Y535160D01*
X187840Y537700D01*
X190380Y540240D01*
Y542780D01*
X187840D01*
X185300Y540240D01*
X182760Y542780D01*
X180220D01*
Y540240D01*
X182760Y537700D01*
X180220Y535160D01*
Y532620D01*
X205620D02*
X208160D01*
X210700Y535160D01*
X213240Y532620D01*
X215780D01*
Y535160D01*
X213240Y537700D01*
X215780Y540240D01*
Y542780D01*
X213240D01*
X210700Y540240D01*
X208160Y542780D01*
X205620D01*
Y540240D01*
X208160Y537700D01*
X205620Y535160D01*
Y532620D01*
X231020D02*
X233560D01*
X236100Y535160D01*
X238640Y532620D01*
X241180D01*
Y535160D01*
X238640Y537700D01*
X241180Y540240D01*
Y542780D01*
X238640D01*
X236100Y540240D01*
X233560Y542780D01*
X231020D01*
Y540240D01*
X233560Y537700D01*
X231020Y535160D01*
Y532620D01*
X256420D02*
X258960D01*
X261500Y535160D01*
X264040Y532620D01*
X266580D01*
Y535160D01*
X264040Y537700D01*
X266580Y540240D01*
Y542780D01*
X264040D01*
X261500Y540240D01*
X258960Y542780D01*
X256420D01*
Y540240D01*
X258960Y537700D01*
X256420Y535160D01*
Y532620D01*
X281820D02*
X284360D01*
X286900Y535160D01*
X289440Y532620D01*
X291980D01*
Y535160D01*
X289440Y537700D01*
X291980Y540240D01*
Y542780D01*
X289440D01*
X286900Y540240D01*
X284360Y542780D01*
X281820D01*
Y540240D01*
X284360Y537700D01*
X281820Y535160D01*
Y532620D01*
X307220D02*
X309760D01*
X312300Y535160D01*
X314840Y532620D01*
X317380D01*
Y535160D01*
X314840Y537700D01*
X317380Y540240D01*
Y542780D01*
X314840D01*
X312300Y540240D01*
X309760Y542780D01*
X307220D01*
Y540240D01*
X309760Y537700D01*
X307220Y535160D01*
Y532620D01*
X332620D02*
X335160D01*
X337700Y535160D01*
X340240Y532620D01*
X342780D01*
Y535160D01*
X340240Y537700D01*
X342780Y540240D01*
Y542780D01*
X340240D01*
X337700Y540240D01*
X335160Y542780D01*
X332620D01*
Y540240D01*
X335160Y537700D01*
X332620Y535160D01*
Y532620D01*
X358020D02*
X360560D01*
X363100Y535160D01*
X365640Y532620D01*
X368180D01*
Y535160D01*
X365640Y537700D01*
X368180Y540240D01*
Y542780D01*
X365640D01*
X363100Y540240D01*
X360560Y542780D01*
X358020D01*
Y540240D01*
X360560Y537700D01*
X358020Y535160D01*
Y532620D01*
X383420D02*
X385960D01*
X388500Y535160D01*
X391040Y532620D01*
X393580D01*
Y535160D01*
X391040Y537700D01*
X393580Y540240D01*
Y542780D01*
X391040D01*
X388500Y540240D01*
X385960Y542780D01*
X383420D01*
Y540240D01*
X385960Y537700D01*
X383420Y535160D01*
Y532620D01*
X408820D02*
X411360D01*
X413900Y535160D01*
X416440Y532620D01*
X418980D01*
Y535160D01*
X416440Y537700D01*
X418980Y540240D01*
Y542780D01*
X416440D01*
X413900Y540240D01*
X411360Y542780D01*
X408820D01*
Y540240D01*
X411360Y537700D01*
X408820Y535160D01*
Y532620D01*
X434220D02*
X436760D01*
X439300Y535160D01*
X441840Y532620D01*
X444380D01*
Y535160D01*
X441840Y537700D01*
X444380Y540240D01*
Y542780D01*
X441840D01*
X439300Y540240D01*
X436760Y542780D01*
X434220D01*
Y540240D01*
X436760Y537700D01*
X434220Y535160D01*
Y532620D01*
X459620D02*
X462160D01*
X464700Y535160D01*
X467240Y532620D01*
X469780D01*
Y535160D01*
X467240Y537700D01*
X469780Y540240D01*
Y542780D01*
X467240D01*
X464700Y540240D01*
X462160Y542780D01*
X459620D01*
Y540240D01*
X462160Y537700D01*
X459620Y535160D01*
Y532620D01*
X485020D02*
X487560D01*
X490100Y535160D01*
X492640Y532620D01*
X495180D01*
Y535160D01*
X492640Y537700D01*
X495180Y540240D01*
Y542780D01*
X492640D01*
X490100Y540240D01*
X487560Y542780D01*
X485020D01*
Y540240D01*
X487560Y537700D01*
X485020Y535160D01*
Y532620D01*
X510420D02*
X512960D01*
X515500Y535160D01*
X518040Y532620D01*
X520580D01*
Y535160D01*
X518040Y537700D01*
X520580Y540240D01*
Y542780D01*
X518040D01*
X515500Y540240D01*
X512960Y542780D01*
X510420D01*
Y540240D01*
X512960Y537700D01*
X510420Y535160D01*
Y532620D01*
X535820D02*
X538360D01*
X540900Y535160D01*
X543440Y532620D01*
X545980D01*
Y535160D01*
X543440Y537700D01*
X545980Y540240D01*
Y542780D01*
X543440D01*
X540900Y540240D01*
X538360Y542780D01*
X535820D01*
Y540240D01*
X538360Y537700D01*
X535820Y535160D01*
Y532620D01*
X561220D02*
X563760D01*
X566300Y535160D01*
X568840Y532620D01*
X571380D01*
Y535160D01*
X568840Y537700D01*
X571380Y540240D01*
Y542780D01*
X568840D01*
X566300Y540240D01*
X563760Y542780D01*
X561220D01*
Y540240D01*
X563760Y537700D01*
X561220Y535160D01*
Y532620D01*
X78620Y507220D02*
X81160D01*
X83700Y509760D01*
X86240Y507220D01*
X88780D01*
Y509760D01*
X86240Y512300D01*
X88780Y514840D01*
Y517380D01*
X86240D01*
X83700Y514840D01*
X81160Y517380D01*
X78620D01*
Y514840D01*
X81160Y512300D01*
X78620Y509760D01*
Y507220D01*
X104020D02*
X106560D01*
X109100Y509760D01*
X111640Y507220D01*
X114180D01*
Y509760D01*
X111640Y512300D01*
X114180Y514840D01*
Y517380D01*
X111640D01*
X109100Y514840D01*
X106560Y517380D01*
X104020D01*
Y514840D01*
X106560Y512300D01*
X104020Y509760D01*
Y507220D01*
X129420D02*
X131960D01*
X134500Y509760D01*
X137040Y507220D01*
X139580D01*
Y509760D01*
X137040Y512300D01*
X139580Y514840D01*
Y517380D01*
X137040D01*
X134500Y514840D01*
X131960Y517380D01*
X129420D01*
Y514840D01*
X131960Y512300D01*
X129420Y509760D01*
Y507220D01*
X154820D02*
X157360D01*
X159900Y509760D01*
X162440Y507220D01*
X164980D01*
Y509760D01*
X162440Y512300D01*
X164980Y514840D01*
Y517380D01*
X162440D01*
X159900Y514840D01*
X157360Y517380D01*
X154820D01*
Y514840D01*
X157360Y512300D01*
X154820Y509760D01*
Y507220D01*
X180220D02*
X182760D01*
X185300Y509760D01*
X187840Y507220D01*
X190380D01*
Y509760D01*
X187840Y512300D01*
X190380Y514840D01*
Y517380D01*
X187840D01*
X185300Y514840D01*
X182760Y517380D01*
X180220D01*
Y514840D01*
X182760Y512300D01*
X180220Y509760D01*
Y507220D01*
X205620D02*
X208160D01*
X210700Y509760D01*
X213240Y507220D01*
X215780D01*
Y509760D01*
X213240Y512300D01*
X215780Y514840D01*
Y517380D01*
X213240D01*
X210700Y514840D01*
X208160Y517380D01*
X205620D01*
Y514840D01*
X208160Y512300D01*
X205620Y509760D01*
Y507220D01*
X231020D02*
X233560D01*
X236100Y509760D01*
X238640Y507220D01*
X241180D01*
Y509760D01*
X238640Y512300D01*
X241180Y514840D01*
Y517380D01*
X238640D01*
X236100Y514840D01*
X233560Y517380D01*
X231020D01*
Y514840D01*
X233560Y512300D01*
X231020Y509760D01*
Y507220D01*
X256420D02*
X258960D01*
X261500Y509760D01*
X264040Y507220D01*
X266580D01*
Y509760D01*
X264040Y512300D01*
X266580Y514840D01*
Y517380D01*
X264040D01*
X261500Y514840D01*
X258960Y517380D01*
X256420D01*
Y514840D01*
X258960Y512300D01*
X256420Y509760D01*
Y507220D01*
X281820D02*
X284360D01*
X286900Y509760D01*
X289440Y507220D01*
X291980D01*
Y509760D01*
X289440Y512300D01*
X291980Y514840D01*
Y517380D01*
X289440D01*
X286900Y514840D01*
X284360Y517380D01*
X281820D01*
Y514840D01*
X284360Y512300D01*
X281820Y509760D01*
Y507220D01*
X307220D02*
X309760D01*
X312300Y509760D01*
X314840Y507220D01*
X317380D01*
Y509760D01*
X314840Y512300D01*
X317380Y514840D01*
Y517380D01*
X314840D01*
X312300Y514840D01*
X309760Y517380D01*
X307220D01*
Y514840D01*
X309760Y512300D01*
X307220Y509760D01*
Y507220D01*
X332620D02*
X335160D01*
X337700Y509760D01*
X340240Y507220D01*
X342780D01*
Y509760D01*
X340240Y512300D01*
X342780Y514840D01*
Y517380D01*
X340240D01*
X337700Y514840D01*
X335160Y517380D01*
X332620D01*
Y514840D01*
X335160Y512300D01*
X332620Y509760D01*
Y507220D01*
X358020D02*
X360560D01*
X363100Y509760D01*
X365640Y507220D01*
X368180D01*
Y509760D01*
X365640Y512300D01*
X368180Y514840D01*
Y517380D01*
X365640D01*
X363100Y514840D01*
X360560Y517380D01*
X358020D01*
Y514840D01*
X360560Y512300D01*
X358020Y509760D01*
Y507220D01*
X383420D02*
X385960D01*
X388500Y509760D01*
X391040Y507220D01*
X393580D01*
Y509760D01*
X391040Y512300D01*
X393580Y514840D01*
Y517380D01*
X391040D01*
X388500Y514840D01*
X385960Y517380D01*
X383420D01*
Y514840D01*
X385960Y512300D01*
X383420Y509760D01*
Y507220D01*
X408820D02*
X411360D01*
X413900Y509760D01*
X416440Y507220D01*
X418980D01*
Y509760D01*
X416440Y512300D01*
X418980Y514840D01*
Y517380D01*
X416440D01*
X413900Y514840D01*
X411360Y517380D01*
X408820D01*
Y514840D01*
X411360Y512300D01*
X408820Y509760D01*
Y507220D01*
X434220D02*
X436760D01*
X439300Y509760D01*
X441840Y507220D01*
X444380D01*
Y509760D01*
X441840Y512300D01*
X444380Y514840D01*
Y517380D01*
X441840D01*
X439300Y514840D01*
X436760Y517380D01*
X434220D01*
Y514840D01*
X436760Y512300D01*
X434220Y509760D01*
Y507220D01*
X459620D02*
X462160D01*
X464700Y509760D01*
X467240Y507220D01*
X469780D01*
Y509760D01*
X467240Y512300D01*
X469780Y514840D01*
Y517380D01*
X467240D01*
X464700Y514840D01*
X462160Y517380D01*
X459620D01*
Y514840D01*
X462160Y512300D01*
X459620Y509760D01*
Y507220D01*
X485020D02*
X487560D01*
X490100Y509760D01*
X492640Y507220D01*
X495180D01*
Y509760D01*
X492640Y512300D01*
X495180Y514840D01*
Y517380D01*
X492640D01*
X490100Y514840D01*
X487560Y517380D01*
X485020D01*
Y514840D01*
X487560Y512300D01*
X485020Y509760D01*
Y507220D01*
X510420D02*
X512960D01*
X515500Y509760D01*
X518040Y507220D01*
X520580D01*
Y509760D01*
X518040Y512300D01*
X520580Y514840D01*
Y517380D01*
X518040D01*
X515500Y514840D01*
X512960Y517380D01*
X510420D01*
Y514840D01*
X512960Y512300D01*
X510420Y509760D01*
Y507220D01*
X535820D02*
X538360D01*
X540900Y509760D01*
X543440Y507220D01*
X545980D01*
Y509760D01*
X543440Y512300D01*
X545980Y514840D01*
Y517380D01*
X543440D01*
X540900Y514840D01*
X538360Y517380D01*
X535820D01*
Y514840D01*
X538360Y512300D01*
X535820Y509760D01*
Y507220D01*
X561220D02*
X563760D01*
X566300Y509760D01*
X568840Y507220D01*
X571380D01*
Y509760D01*
X568840Y512300D01*
X571380Y514840D01*
Y517380D01*
X568840D01*
X566300Y514840D01*
X563760Y517380D01*
X561220D01*
Y514840D01*
X563760Y512300D01*
X561220Y509760D01*
Y507220D01*
D24*
X620080Y525000D02*
G03*
X620080Y525000I-5080J0D01*
G01*
X40080D02*
G03*
X40080Y525000I-5080J0D01*
G01*
X620080Y35000D02*
G03*
X620080Y35000I-5080J0D01*
G01*
X40080D02*
G03*
X40080Y35000I-5080J0D01*
G01*
M02*
