G04*
G04 #@! TF.GenerationSoftware,Altium Limited,Altium Designer,25.1.2 (22)*
G04*
G04 Layer_Color=16711935*
%FSLAX44Y44*%
%MOMM*%
G71*
G04*
G04 #@! TF.SameCoordinates,64B4FDAD-AF64-4148-92BB-00BBC35E7A55*
G04*
G04*
G04 #@! TF.FilePolarity,Positive*
G04*
G01*
G75*
%ADD12C,0.2000*%
G36*
X563908Y415574D02*
X563963D01*
X564111Y415546D01*
X564287Y415519D01*
X564472Y415472D01*
X564675Y415408D01*
X564869Y415315D01*
X564878D01*
X564888Y415306D01*
X564915Y415287D01*
X564952Y415269D01*
X565045Y415214D01*
X565165Y415130D01*
X565294Y415029D01*
X565424Y414908D01*
X565553Y414760D01*
X565664Y414603D01*
Y414594D01*
X565673Y414585D01*
X565692Y414557D01*
X565701Y414520D01*
X565747Y414428D01*
X565794Y414307D01*
X565849Y414150D01*
X565886Y413975D01*
X565923Y413780D01*
X565932Y413568D01*
Y413521D01*
X565923Y413475D01*
Y413401D01*
X565914Y413318D01*
X565895Y413226D01*
X565868Y413115D01*
X565840Y413004D01*
X565803Y412874D01*
X565757Y412745D01*
X565701Y412616D01*
X565627Y412477D01*
X565544Y412347D01*
X565452Y412218D01*
X565341Y412089D01*
X565211Y411968D01*
X565202Y411959D01*
X565174Y411940D01*
X565137Y411913D01*
X565073Y411876D01*
X564989Y411820D01*
X564897Y411774D01*
X564777Y411719D01*
X564647Y411663D01*
X564490Y411598D01*
X564314Y411543D01*
X564120Y411497D01*
X563908Y411451D01*
X563667Y411404D01*
X563408Y411376D01*
X563131Y411358D01*
X562835Y411349D01*
X562826D01*
X562817D01*
X562789D01*
X562752D01*
X562659Y411358D01*
X562530D01*
X562382Y411367D01*
X562206Y411386D01*
X562012Y411404D01*
X561800Y411432D01*
X561587Y411469D01*
X561356Y411515D01*
X561134Y411571D01*
X560912Y411635D01*
X560699Y411719D01*
X560496Y411811D01*
X560302Y411913D01*
X560135Y412033D01*
X560126Y412042D01*
X560108Y412061D01*
X560071Y412098D01*
X560015Y412144D01*
X559960Y412199D01*
X559904Y412273D01*
X559830Y412366D01*
X559766Y412458D01*
X559701Y412569D01*
X559627Y412689D01*
X559571Y412828D01*
X559507Y412967D01*
X559460Y413124D01*
X559423Y413290D01*
X559405Y413466D01*
X559396Y413651D01*
Y413725D01*
X559405Y413780D01*
Y413845D01*
X559414Y413919D01*
X559451Y414095D01*
X559497Y414289D01*
X559571Y414492D01*
X559682Y414696D01*
X559747Y414797D01*
X559821Y414890D01*
X559830Y414899D01*
X559840Y414908D01*
X559867Y414936D01*
X559895Y414964D01*
X559941Y415010D01*
X559997Y415047D01*
X560126Y415149D01*
X560293Y415251D01*
X560496Y415343D01*
X560727Y415426D01*
X560986Y415482D01*
X561051Y414696D01*
X561041D01*
X561032Y414687D01*
X560977Y414677D01*
X560894Y414650D01*
X560792Y414613D01*
X560681Y414576D01*
X560570Y414520D01*
X560468Y414455D01*
X560385Y414391D01*
X560367Y414372D01*
X560330Y414335D01*
X560274Y414270D01*
X560209Y414178D01*
X560154Y414058D01*
X560098Y413928D01*
X560061Y413771D01*
X560043Y413605D01*
Y413540D01*
X560052Y413466D01*
X560071Y413383D01*
X560098Y413272D01*
X560135Y413161D01*
X560182Y413050D01*
X560256Y412939D01*
X560265Y412921D01*
X560302Y412874D01*
X560367Y412810D01*
X560459Y412726D01*
X560570Y412634D01*
X560699Y412532D01*
X560866Y412440D01*
X561051Y412347D01*
X561060D01*
X561078Y412338D01*
X561106Y412329D01*
X561143Y412310D01*
X561199Y412301D01*
X561263Y412283D01*
X561337Y412264D01*
X561430Y412246D01*
X561531Y412218D01*
X561642Y412199D01*
X561763Y412181D01*
X561892Y412172D01*
X562040Y412153D01*
X562188Y412144D01*
X562354Y412135D01*
X562521D01*
X562511Y412144D01*
X562456Y412181D01*
X562382Y412246D01*
X562290Y412329D01*
X562179Y412421D01*
X562077Y412542D01*
X561975Y412671D01*
X561883Y412819D01*
Y412828D01*
X561874Y412837D01*
X561846Y412893D01*
X561818Y412976D01*
X561772Y413087D01*
X561735Y413216D01*
X561707Y413364D01*
X561679Y413521D01*
X561670Y413688D01*
Y413762D01*
X561679Y413817D01*
X561689Y413891D01*
X561698Y413965D01*
X561716Y414058D01*
X561744Y414150D01*
X561809Y414363D01*
X561855Y414474D01*
X561920Y414585D01*
X561985Y414696D01*
X562058Y414816D01*
X562151Y414927D01*
X562253Y415029D01*
X562262Y415038D01*
X562280Y415056D01*
X562308Y415084D01*
X562354Y415112D01*
X562419Y415158D01*
X562484Y415204D01*
X562567Y415251D01*
X562659Y415306D01*
X562761Y415361D01*
X562872Y415408D01*
X563002Y415454D01*
X563131Y415500D01*
X563270Y415528D01*
X563427Y415556D01*
X563584Y415574D01*
X563750Y415583D01*
X563760D01*
X563778D01*
X563806D01*
X563852D01*
X563908Y415574D01*
D02*
G37*
G36*
X563991Y410313D02*
X564065D01*
X564240Y410295D01*
X564444Y410276D01*
X564656Y410239D01*
X564851Y410184D01*
X565036Y410119D01*
X565045D01*
X565054Y410110D01*
X565110Y410082D01*
X565183Y410036D01*
X565285Y409971D01*
X565387Y409879D01*
X565498Y409777D01*
X565609Y409648D01*
X565701Y409500D01*
X565710Y409481D01*
X565738Y409426D01*
X565775Y409342D01*
X565812Y409222D01*
X565858Y409074D01*
X565895Y408908D01*
X565923Y408723D01*
X565932Y408520D01*
Y408436D01*
X565923Y408381D01*
X565914Y408307D01*
X565905Y408233D01*
X565868Y408039D01*
X565812Y407836D01*
X565729Y407623D01*
X565673Y407512D01*
X565609Y407410D01*
X565535Y407318D01*
X565452Y407225D01*
X565442Y407216D01*
X565433Y407207D01*
X565396Y407188D01*
X565359Y407161D01*
X565313Y407124D01*
X565248Y407087D01*
X565174Y407050D01*
X565091Y407003D01*
X564999Y406966D01*
X564888Y406929D01*
X564777Y406892D01*
X564647Y406855D01*
X564509Y406837D01*
X564351Y406809D01*
X564194Y406800D01*
X564019D01*
X563908Y407567D01*
X563917D01*
X563935D01*
X563972D01*
X564028Y407577D01*
X564083Y407586D01*
X564148D01*
X564305Y407614D01*
X564472Y407641D01*
X564638Y407697D01*
X564786Y407752D01*
X564851Y407789D01*
X564906Y407836D01*
X564915Y407845D01*
X564943Y407882D01*
X564989Y407937D01*
X565036Y408011D01*
X565091Y408113D01*
X565128Y408224D01*
X565165Y408363D01*
X565174Y408510D01*
Y408566D01*
X565165Y408621D01*
X565156Y408705D01*
X565137Y408788D01*
X565119Y408880D01*
X565082Y408973D01*
X565036Y409065D01*
X565026Y409074D01*
X565008Y409102D01*
X564971Y409139D01*
X564934Y409195D01*
X564869Y409241D01*
X564804Y409296D01*
X564730Y409342D01*
X564638Y409380D01*
X564629D01*
X564592Y409398D01*
X564527Y409407D01*
X564444Y409426D01*
X564333Y409444D01*
X564194Y409454D01*
X564028Y409472D01*
X563834D01*
X559423D01*
Y410322D01*
X563787D01*
X563797D01*
X563824D01*
X563861D01*
X563917D01*
X563991Y410313D01*
D02*
G37*
G36*
X474906Y415620D02*
X474980Y415611D01*
X475063Y415602D01*
X475165Y415583D01*
X475266Y415565D01*
X475507Y415509D01*
X475756Y415417D01*
X475886Y415361D01*
X476006Y415287D01*
X476136Y415214D01*
X476256Y415121D01*
X476265Y415112D01*
X476293Y415093D01*
X476330Y415056D01*
X476376Y415010D01*
X476432Y414945D01*
X476505Y414871D01*
X476570Y414779D01*
X476644Y414677D01*
X476718Y414566D01*
X476783Y414437D01*
X476847Y414298D01*
X476912Y414150D01*
X476959Y413993D01*
X476995Y413817D01*
X477023Y413633D01*
X477032Y413438D01*
Y413355D01*
X477023Y413290D01*
X477014Y413216D01*
X477005Y413133D01*
X476995Y413032D01*
X476968Y412930D01*
X476912Y412699D01*
X476829Y412467D01*
X476773Y412347D01*
X476709Y412227D01*
X476635Y412116D01*
X476552Y412005D01*
X476542Y411996D01*
X476533Y411978D01*
X476496Y411959D01*
X476459Y411922D01*
X476413Y411876D01*
X476357Y411830D01*
X476283Y411774D01*
X476200Y411728D01*
X476117Y411672D01*
X476015Y411617D01*
X475793Y411515D01*
X475535Y411432D01*
X475396Y411404D01*
X475248Y411386D01*
X475183Y412209D01*
X475192D01*
X475211D01*
X475239Y412218D01*
X475285Y412227D01*
X475387Y412255D01*
X475525Y412292D01*
X475664Y412347D01*
X475821Y412421D01*
X475960Y412514D01*
X476089Y412625D01*
X476099Y412643D01*
X476136Y412680D01*
X476182Y412754D01*
X476237Y412856D01*
X476293Y412967D01*
X476339Y413106D01*
X476376Y413263D01*
X476385Y413438D01*
Y413494D01*
X476376Y413531D01*
X476367Y413642D01*
X476330Y413771D01*
X476283Y413928D01*
X476210Y414086D01*
X476099Y414252D01*
X476034Y414326D01*
X475960Y414400D01*
X475951Y414409D01*
X475941Y414418D01*
X475914Y414437D01*
X475886Y414465D01*
X475784Y414529D01*
X475655Y414603D01*
X475498Y414668D01*
X475303Y414733D01*
X475072Y414779D01*
X474952Y414797D01*
X474823D01*
X474813D01*
X474795D01*
X474758D01*
X474712Y414788D01*
X474656D01*
X474592Y414779D01*
X474444Y414751D01*
X474268Y414705D01*
X474092Y414640D01*
X473926Y414548D01*
X473769Y414418D01*
X473759D01*
X473750Y414400D01*
X473704Y414354D01*
X473639Y414270D01*
X473565Y414160D01*
X473501Y414011D01*
X473436Y413845D01*
X473390Y413651D01*
X473371Y413540D01*
Y413364D01*
X473380Y413290D01*
X473390Y413198D01*
X473417Y413087D01*
X473445Y412976D01*
X473491Y412856D01*
X473547Y412736D01*
X473556Y412726D01*
X473575Y412689D01*
X473621Y412634D01*
X473667Y412560D01*
X473732Y412486D01*
X473815Y412412D01*
X473898Y412329D01*
X474000Y412264D01*
X473898Y411525D01*
X470607Y412144D01*
Y415324D01*
X471356D01*
Y412763D01*
X473085Y412421D01*
X473075Y412430D01*
X473066Y412449D01*
X473048Y412477D01*
X473020Y412523D01*
X472992Y412579D01*
X472955Y412643D01*
X472881Y412791D01*
X472807Y412976D01*
X472743Y413179D01*
X472696Y413401D01*
X472678Y413512D01*
Y413716D01*
X472687Y413771D01*
X472696Y413845D01*
X472705Y413928D01*
X472724Y414021D01*
X472752Y414123D01*
X472816Y414344D01*
X472863Y414465D01*
X472927Y414585D01*
X472992Y414705D01*
X473066Y414825D01*
X473158Y414936D01*
X473260Y415047D01*
X473270Y415056D01*
X473288Y415075D01*
X473316Y415103D01*
X473362Y415140D01*
X473427Y415186D01*
X473491Y415232D01*
X473575Y415287D01*
X473667Y415343D01*
X473769Y415389D01*
X473880Y415445D01*
X474009Y415491D01*
X474138Y415537D01*
X474277Y415574D01*
X474434Y415602D01*
X474592Y415620D01*
X474758Y415630D01*
X474767D01*
X474795D01*
X474841D01*
X474906Y415620D01*
D02*
G37*
G36*
X475091Y410313D02*
X475165D01*
X475340Y410295D01*
X475544Y410276D01*
X475756Y410239D01*
X475951Y410184D01*
X476136Y410119D01*
X476145D01*
X476154Y410110D01*
X476210Y410082D01*
X476283Y410036D01*
X476385Y409971D01*
X476487Y409879D01*
X476598Y409777D01*
X476709Y409648D01*
X476801Y409500D01*
X476810Y409481D01*
X476838Y409426D01*
X476875Y409342D01*
X476912Y409222D01*
X476959Y409074D01*
X476995Y408908D01*
X477023Y408723D01*
X477032Y408520D01*
Y408436D01*
X477023Y408381D01*
X477014Y408307D01*
X477005Y408233D01*
X476968Y408039D01*
X476912Y407836D01*
X476829Y407623D01*
X476773Y407512D01*
X476709Y407410D01*
X476635Y407318D01*
X476552Y407225D01*
X476542Y407216D01*
X476533Y407207D01*
X476496Y407188D01*
X476459Y407161D01*
X476413Y407124D01*
X476348Y407087D01*
X476274Y407050D01*
X476191Y407003D01*
X476099Y406966D01*
X475988Y406929D01*
X475877Y406892D01*
X475747Y406855D01*
X475609Y406837D01*
X475451Y406809D01*
X475294Y406800D01*
X475119D01*
X475008Y407567D01*
X475017D01*
X475035D01*
X475072D01*
X475128Y407577D01*
X475183Y407586D01*
X475248D01*
X475405Y407614D01*
X475572Y407641D01*
X475738Y407697D01*
X475886Y407752D01*
X475951Y407789D01*
X476006Y407836D01*
X476015Y407845D01*
X476043Y407882D01*
X476089Y407937D01*
X476136Y408011D01*
X476191Y408113D01*
X476228Y408224D01*
X476265Y408363D01*
X476274Y408510D01*
Y408566D01*
X476265Y408621D01*
X476256Y408705D01*
X476237Y408788D01*
X476219Y408880D01*
X476182Y408973D01*
X476136Y409065D01*
X476126Y409074D01*
X476108Y409102D01*
X476071Y409139D01*
X476034Y409195D01*
X475969Y409241D01*
X475905Y409296D01*
X475830Y409342D01*
X475738Y409380D01*
X475729D01*
X475692Y409398D01*
X475627Y409407D01*
X475544Y409426D01*
X475433Y409444D01*
X475294Y409454D01*
X475128Y409472D01*
X474934D01*
X470523D01*
Y410322D01*
X474887D01*
X474897D01*
X474924D01*
X474961D01*
X475017D01*
X475091Y410313D01*
D02*
G37*
G36*
X385155Y293530D02*
X385266D01*
X385387Y293520D01*
X385516Y293511D01*
X385812Y293484D01*
X386117Y293437D01*
X386413Y293382D01*
X386551Y293345D01*
X386690Y293298D01*
X386699D01*
X386718Y293289D01*
X386755Y293271D01*
X386801Y293252D01*
X386866Y293234D01*
X386931Y293197D01*
X387088Y293123D01*
X387254Y293030D01*
X387439Y292910D01*
X387605Y292772D01*
X387763Y292605D01*
Y292596D01*
X387781Y292587D01*
X387800Y292559D01*
X387818Y292522D01*
X387846Y292476D01*
X387883Y292430D01*
X387948Y292291D01*
X388012Y292124D01*
X388077Y291930D01*
X388114Y291699D01*
X388132Y291449D01*
Y291357D01*
X388123Y291292D01*
X388114Y291218D01*
X388095Y291126D01*
X388077Y291024D01*
X388049Y290913D01*
X388012Y290802D01*
X387975Y290682D01*
X387920Y290562D01*
X387855Y290442D01*
X387781Y290322D01*
X387689Y290201D01*
X387587Y290090D01*
X387476Y289989D01*
X387467Y289979D01*
X387439Y289961D01*
X387393Y289933D01*
X387319Y289887D01*
X387236Y289841D01*
X387125Y289795D01*
X386995Y289730D01*
X386847Y289674D01*
X386681Y289619D01*
X386487Y289563D01*
X386274Y289508D01*
X386034Y289462D01*
X385775Y289415D01*
X385497Y289388D01*
X385192Y289369D01*
X384869Y289360D01*
X384860D01*
X384823D01*
X384758D01*
X384684D01*
X384582Y289369D01*
X384471D01*
X384351Y289378D01*
X384212Y289388D01*
X383926Y289415D01*
X383621Y289462D01*
X383316Y289517D01*
X383177Y289554D01*
X383038Y289591D01*
X383029D01*
X383010Y289600D01*
X382973Y289619D01*
X382927Y289637D01*
X382862Y289656D01*
X382798Y289693D01*
X382640Y289767D01*
X382474Y289859D01*
X382298Y289979D01*
X382123Y290118D01*
X381975Y290285D01*
Y290294D01*
X381956Y290303D01*
X381938Y290331D01*
X381919Y290368D01*
X381882Y290414D01*
X381855Y290469D01*
X381781Y290608D01*
X381716Y290774D01*
X381651Y290969D01*
X381614Y291200D01*
X381596Y291449D01*
Y291533D01*
X381605Y291634D01*
X381623Y291754D01*
X381651Y291893D01*
X381688Y292041D01*
X381735Y292198D01*
X381808Y292346D01*
Y292355D01*
X381818Y292365D01*
X381845Y292411D01*
X381892Y292485D01*
X381956Y292577D01*
X382049Y292679D01*
X382150Y292790D01*
X382271Y292892D01*
X382409Y292993D01*
X382428Y293003D01*
X382474Y293040D01*
X382557Y293077D01*
X382677Y293141D01*
X382816Y293197D01*
X382973Y293271D01*
X383158Y293335D01*
X383362Y293391D01*
X383371D01*
X383389Y293400D01*
X383417Y293410D01*
X383463Y293419D01*
X383519Y293428D01*
X383584Y293437D01*
X383667Y293456D01*
X383759Y293465D01*
X383861Y293484D01*
X383972Y293493D01*
X384101Y293502D01*
X384231Y293520D01*
X384379Y293530D01*
X384527D01*
X384693Y293539D01*
X384869D01*
X384878D01*
X384915D01*
X384980D01*
X385054D01*
X385155Y293530D01*
D02*
G37*
G36*
X388022Y286558D02*
X383020D01*
X383029Y286549D01*
X383066Y286503D01*
X383121Y286448D01*
X383186Y286355D01*
X383269Y286253D01*
X383362Y286124D01*
X383463Y285976D01*
X383565Y285810D01*
Y285800D01*
X383574Y285791D01*
X383611Y285736D01*
X383658Y285643D01*
X383713Y285532D01*
X383778Y285403D01*
X383843Y285264D01*
X383907Y285125D01*
X383963Y284987D01*
X383204D01*
Y284996D01*
X383186Y285014D01*
X383177Y285051D01*
X383149Y285098D01*
X383121Y285153D01*
X383084Y285218D01*
X382992Y285375D01*
X382890Y285560D01*
X382761Y285745D01*
X382613Y285939D01*
X382456Y286133D01*
X382446Y286143D01*
X382437Y286152D01*
X382409Y286179D01*
X382382Y286216D01*
X382289Y286300D01*
X382178Y286411D01*
X382049Y286521D01*
X381901Y286642D01*
X381753Y286743D01*
X381596Y286836D01*
Y287344D01*
X388022D01*
Y286558D01*
D02*
G37*
G36*
X386191Y283313D02*
X386265D01*
X386441Y283295D01*
X386644Y283276D01*
X386856Y283239D01*
X387051Y283184D01*
X387236Y283119D01*
X387245D01*
X387254Y283110D01*
X387310Y283082D01*
X387383Y283036D01*
X387485Y282971D01*
X387587Y282879D01*
X387698Y282777D01*
X387809Y282648D01*
X387901Y282500D01*
X387910Y282481D01*
X387938Y282426D01*
X387975Y282342D01*
X388012Y282222D01*
X388059Y282074D01*
X388095Y281908D01*
X388123Y281723D01*
X388132Y281520D01*
Y281436D01*
X388123Y281381D01*
X388114Y281307D01*
X388105Y281233D01*
X388068Y281039D01*
X388012Y280835D01*
X387929Y280623D01*
X387873Y280512D01*
X387809Y280410D01*
X387735Y280318D01*
X387652Y280225D01*
X387642Y280216D01*
X387633Y280207D01*
X387596Y280188D01*
X387559Y280161D01*
X387513Y280124D01*
X387448Y280087D01*
X387374Y280050D01*
X387291Y280003D01*
X387199Y279966D01*
X387088Y279929D01*
X386977Y279892D01*
X386847Y279855D01*
X386709Y279837D01*
X386551Y279809D01*
X386394Y279800D01*
X386219D01*
X386108Y280567D01*
X386117D01*
X386135D01*
X386172D01*
X386228Y280577D01*
X386283Y280586D01*
X386348D01*
X386505Y280614D01*
X386672Y280641D01*
X386838Y280697D01*
X386986Y280752D01*
X387051Y280789D01*
X387106Y280835D01*
X387115Y280845D01*
X387143Y280882D01*
X387189Y280937D01*
X387236Y281011D01*
X387291Y281113D01*
X387328Y281224D01*
X387365Y281362D01*
X387374Y281510D01*
Y281566D01*
X387365Y281621D01*
X387356Y281705D01*
X387337Y281788D01*
X387319Y281880D01*
X387282Y281973D01*
X387236Y282065D01*
X387226Y282074D01*
X387208Y282102D01*
X387171Y282139D01*
X387134Y282195D01*
X387069Y282241D01*
X387005Y282296D01*
X386931Y282342D01*
X386838Y282379D01*
X386829D01*
X386792Y282398D01*
X386727Y282407D01*
X386644Y282426D01*
X386533Y282444D01*
X386394Y282453D01*
X386228Y282472D01*
X386034D01*
X381623D01*
Y283323D01*
X385987D01*
X385997D01*
X386024D01*
X386061D01*
X386117D01*
X386191Y283313D01*
D02*
G37*
G36*
X115635Y288174D02*
X115654Y288156D01*
X115691Y288119D01*
X115746Y288082D01*
X115811Y288026D01*
X115885Y287952D01*
X115977Y287878D01*
X116088Y287795D01*
X116199Y287712D01*
X116329Y287610D01*
X116477Y287508D01*
X116625Y287407D01*
X116791Y287296D01*
X116967Y287185D01*
X117161Y287074D01*
X117355Y286963D01*
X117364Y286954D01*
X117401Y286935D01*
X117457Y286907D01*
X117540Y286861D01*
X117642Y286815D01*
X117753Y286759D01*
X117882Y286695D01*
X118030Y286630D01*
X118196Y286556D01*
X118363Y286473D01*
X118548Y286399D01*
X118742Y286325D01*
X119139Y286177D01*
X119565Y286038D01*
X119574D01*
X119602Y286029D01*
X119648Y286020D01*
X119704Y286001D01*
X119777Y285983D01*
X119870Y285964D01*
X119972Y285937D01*
X120083Y285918D01*
X120212Y285890D01*
X120351Y285863D01*
X120646Y285816D01*
X120970Y285770D01*
X121321Y285742D01*
Y284938D01*
X121312D01*
X121285D01*
X121248D01*
X121192Y284947D01*
X121118D01*
X121026Y284957D01*
X120924Y284966D01*
X120813Y284975D01*
X120683Y284994D01*
X120554Y285012D01*
X120397Y285040D01*
X120240Y285068D01*
X120073Y285095D01*
X119888Y285132D01*
X119509Y285225D01*
X119500D01*
X119463Y285234D01*
X119408Y285252D01*
X119324Y285280D01*
X119232Y285308D01*
X119121Y285345D01*
X118992Y285382D01*
X118853Y285437D01*
X118696Y285493D01*
X118539Y285548D01*
X118187Y285687D01*
X117817Y285853D01*
X117448Y286038D01*
X117438Y286048D01*
X117401Y286066D01*
X117355Y286094D01*
X117281Y286131D01*
X117198Y286177D01*
X117096Y286242D01*
X116985Y286306D01*
X116865Y286380D01*
X116597Y286556D01*
X116320Y286741D01*
X116033Y286954D01*
X115765Y287176D01*
Y284041D01*
X115007D01*
Y288183D01*
X115626D01*
X115635Y288174D01*
D02*
G37*
G36*
X119491Y282913D02*
X119565D01*
X119740Y282895D01*
X119944Y282876D01*
X120156Y282839D01*
X120351Y282784D01*
X120536Y282719D01*
X120545D01*
X120554Y282710D01*
X120610Y282682D01*
X120683Y282636D01*
X120785Y282571D01*
X120887Y282479D01*
X120998Y282377D01*
X121109Y282248D01*
X121201Y282100D01*
X121210Y282081D01*
X121238Y282026D01*
X121275Y281943D01*
X121312Y281822D01*
X121358Y281674D01*
X121395Y281508D01*
X121423Y281323D01*
X121432Y281120D01*
Y281036D01*
X121423Y280981D01*
X121414Y280907D01*
X121405Y280833D01*
X121368Y280639D01*
X121312Y280436D01*
X121229Y280223D01*
X121173Y280112D01*
X121109Y280010D01*
X121035Y279918D01*
X120952Y279825D01*
X120942Y279816D01*
X120933Y279807D01*
X120896Y279788D01*
X120859Y279761D01*
X120813Y279724D01*
X120748Y279687D01*
X120674Y279650D01*
X120591Y279603D01*
X120499Y279566D01*
X120388Y279529D01*
X120277Y279492D01*
X120147Y279455D01*
X120009Y279437D01*
X119851Y279409D01*
X119694Y279400D01*
X119519D01*
X119408Y280167D01*
X119417D01*
X119435D01*
X119472D01*
X119528Y280177D01*
X119583Y280186D01*
X119648D01*
X119805Y280214D01*
X119972Y280241D01*
X120138Y280297D01*
X120286Y280352D01*
X120351Y280389D01*
X120406Y280436D01*
X120415Y280445D01*
X120443Y280482D01*
X120489Y280537D01*
X120536Y280611D01*
X120591Y280713D01*
X120628Y280824D01*
X120665Y280963D01*
X120674Y281110D01*
Y281166D01*
X120665Y281221D01*
X120656Y281305D01*
X120637Y281388D01*
X120619Y281480D01*
X120582Y281573D01*
X120536Y281665D01*
X120526Y281674D01*
X120508Y281702D01*
X120471Y281739D01*
X120434Y281795D01*
X120369Y281841D01*
X120304Y281896D01*
X120231Y281943D01*
X120138Y281980D01*
X120129D01*
X120092Y281998D01*
X120027Y282007D01*
X119944Y282026D01*
X119833Y282044D01*
X119694Y282054D01*
X119528Y282072D01*
X119334D01*
X114923D01*
Y282922D01*
X119287D01*
X119297D01*
X119324D01*
X119361D01*
X119417D01*
X119491Y282913D01*
D02*
G37*
G36*
X208539Y288583D02*
X208603Y288574D01*
X208687Y288565D01*
X208779Y288546D01*
X208881Y288519D01*
X209093Y288454D01*
X209214Y288408D01*
X209325Y288343D01*
X209445Y288278D01*
X209556Y288204D01*
X209667Y288112D01*
X209778Y288010D01*
X209787Y288001D01*
X209805Y287982D01*
X209833Y287955D01*
X209861Y287908D01*
X209907Y287844D01*
X209953Y287779D01*
X210000Y287696D01*
X210055Y287603D01*
X210110Y287502D01*
X210157Y287381D01*
X210203Y287252D01*
X210249Y287122D01*
X210277Y286975D01*
X210305Y286817D01*
X210323Y286660D01*
X210332Y286485D01*
Y286392D01*
X210323Y286327D01*
X210314Y286244D01*
X210305Y286152D01*
X210286Y286050D01*
X210259Y285939D01*
X210194Y285689D01*
X210147Y285560D01*
X210101Y285440D01*
X210037Y285310D01*
X209963Y285181D01*
X209879Y285061D01*
X209778Y284950D01*
X209768Y284940D01*
X209750Y284922D01*
X209722Y284894D01*
X209676Y284857D01*
X209620Y284820D01*
X209556Y284765D01*
X209482Y284719D01*
X209389Y284663D01*
X209297Y284608D01*
X209186Y284562D01*
X208955Y284469D01*
X208816Y284432D01*
X208678Y284404D01*
X208529Y284386D01*
X208382Y284377D01*
X208372D01*
X208354D01*
X208317D01*
X208280Y284386D01*
X208224D01*
X208160Y284395D01*
X208012Y284414D01*
X207845Y284450D01*
X207679Y284506D01*
X207503Y284589D01*
X207337Y284691D01*
X207328D01*
X207318Y284709D01*
X207272Y284746D01*
X207198Y284820D01*
X207106Y284922D01*
X207013Y285051D01*
X206912Y285209D01*
X206828Y285384D01*
X206764Y285597D01*
Y285588D01*
X206754Y285578D01*
X206745Y285551D01*
X206727Y285514D01*
X206690Y285431D01*
X206634Y285320D01*
X206560Y285199D01*
X206468Y285079D01*
X206366Y284968D01*
X206255Y284867D01*
X206237Y284857D01*
X206200Y284830D01*
X206126Y284793D01*
X206033Y284756D01*
X205913Y284709D01*
X205774Y284672D01*
X205617Y284645D01*
X205451Y284635D01*
X205441D01*
X205423D01*
X205386D01*
X205331Y284645D01*
X205275Y284654D01*
X205201Y284663D01*
X205044Y284700D01*
X204859Y284756D01*
X204665Y284848D01*
X204563Y284904D01*
X204461Y284968D01*
X204369Y285051D01*
X204277Y285135D01*
X204267Y285144D01*
X204258Y285162D01*
X204230Y285190D01*
X204203Y285227D01*
X204166Y285273D01*
X204129Y285338D01*
X204082Y285412D01*
X204036Y285486D01*
X203990Y285578D01*
X203944Y285680D01*
X203907Y285791D01*
X203870Y285911D01*
X203814Y286170D01*
X203805Y286318D01*
X203796Y286466D01*
Y286549D01*
X203805Y286605D01*
X203814Y286679D01*
X203824Y286762D01*
X203833Y286854D01*
X203860Y286947D01*
X203916Y287169D01*
X203999Y287391D01*
X204055Y287502D01*
X204119Y287612D01*
X204203Y287714D01*
X204286Y287816D01*
X204295Y287825D01*
X204304Y287834D01*
X204332Y287862D01*
X204369Y287899D01*
X204424Y287936D01*
X204480Y287982D01*
X204619Y288075D01*
X204794Y288167D01*
X204998Y288251D01*
X205229Y288315D01*
X205349Y288324D01*
X205478Y288334D01*
X205488D01*
X205497D01*
X205552D01*
X205636Y288324D01*
X205737Y288306D01*
X205867Y288278D01*
X205996Y288232D01*
X206126Y288176D01*
X206255Y288093D01*
X206274Y288084D01*
X206311Y288047D01*
X206366Y287992D01*
X206440Y287918D01*
X206523Y287816D01*
X206606Y287696D01*
X206690Y287557D01*
X206764Y287391D01*
Y287400D01*
X206773Y287418D01*
X206782Y287446D01*
X206801Y287483D01*
X206847Y287594D01*
X206912Y287724D01*
X207004Y287862D01*
X207106Y288010D01*
X207235Y288149D01*
X207383Y288278D01*
X207392D01*
X207402Y288287D01*
X207457Y288324D01*
X207549Y288380D01*
X207670Y288435D01*
X207818Y288491D01*
X207993Y288546D01*
X208187Y288583D01*
X208400Y288592D01*
X208409D01*
X208437D01*
X208483D01*
X208539Y288583D01*
D02*
G37*
G36*
X208391Y283313D02*
X208465D01*
X208640Y283295D01*
X208844Y283276D01*
X209056Y283239D01*
X209251Y283184D01*
X209436Y283119D01*
X209445D01*
X209454Y283110D01*
X209510Y283082D01*
X209583Y283036D01*
X209685Y282971D01*
X209787Y282879D01*
X209898Y282777D01*
X210009Y282648D01*
X210101Y282500D01*
X210110Y282481D01*
X210138Y282426D01*
X210175Y282342D01*
X210212Y282222D01*
X210259Y282074D01*
X210295Y281908D01*
X210323Y281723D01*
X210332Y281520D01*
Y281436D01*
X210323Y281381D01*
X210314Y281307D01*
X210305Y281233D01*
X210268Y281039D01*
X210212Y280835D01*
X210129Y280623D01*
X210074Y280512D01*
X210009Y280410D01*
X209935Y280318D01*
X209852Y280225D01*
X209842Y280216D01*
X209833Y280207D01*
X209796Y280188D01*
X209759Y280161D01*
X209713Y280124D01*
X209648Y280087D01*
X209574Y280050D01*
X209491Y280003D01*
X209399Y279966D01*
X209288Y279929D01*
X209177Y279892D01*
X209047Y279855D01*
X208909Y279837D01*
X208751Y279809D01*
X208594Y279800D01*
X208419D01*
X208308Y280567D01*
X208317D01*
X208335D01*
X208372D01*
X208428Y280577D01*
X208483Y280586D01*
X208548D01*
X208705Y280614D01*
X208872Y280641D01*
X209038Y280697D01*
X209186Y280752D01*
X209251Y280789D01*
X209306Y280835D01*
X209315Y280845D01*
X209343Y280882D01*
X209389Y280937D01*
X209436Y281011D01*
X209491Y281113D01*
X209528Y281224D01*
X209565Y281362D01*
X209574Y281510D01*
Y281566D01*
X209565Y281621D01*
X209556Y281705D01*
X209537Y281788D01*
X209519Y281880D01*
X209482Y281973D01*
X209436Y282065D01*
X209426Y282074D01*
X209408Y282102D01*
X209371Y282139D01*
X209334Y282195D01*
X209269Y282241D01*
X209205Y282296D01*
X209130Y282342D01*
X209038Y282379D01*
X209029D01*
X208992Y282398D01*
X208927Y282407D01*
X208844Y282426D01*
X208733Y282444D01*
X208594Y282453D01*
X208428Y282472D01*
X208234D01*
X203824D01*
Y283323D01*
X208187D01*
X208197D01*
X208224D01*
X208261D01*
X208317D01*
X208391Y283313D01*
D02*
G37*
G36*
X296098Y288583D02*
X296218D01*
X296357Y288574D01*
X296496Y288556D01*
X296810Y288528D01*
X297143Y288482D01*
X297457Y288417D01*
X297614Y288371D01*
X297753Y288324D01*
X297762D01*
X297781Y288315D01*
X297818Y288297D01*
X297873Y288278D01*
X297929Y288251D01*
X298003Y288214D01*
X298160Y288121D01*
X298336Y288010D01*
X298521Y287881D01*
X298696Y287714D01*
X298853Y287529D01*
Y287520D01*
X298872Y287502D01*
X298890Y287474D01*
X298909Y287437D01*
X298937Y287381D01*
X298974Y287326D01*
X299011Y287252D01*
X299038Y287178D01*
X299112Y287002D01*
X299177Y286790D01*
X299214Y286558D01*
X299232Y286300D01*
Y286226D01*
X299223Y286179D01*
Y286115D01*
X299214Y286041D01*
X299177Y285865D01*
X299131Y285671D01*
X299057Y285467D01*
X298955Y285264D01*
X298890Y285162D01*
X298816Y285070D01*
X298807Y285061D01*
X298798Y285051D01*
X298770Y285024D01*
X298742Y284996D01*
X298696Y284959D01*
X298641Y284913D01*
X298511Y284820D01*
X298345Y284728D01*
X298141Y284635D01*
X297910Y284562D01*
X297642Y284506D01*
X297577Y285264D01*
X297587D01*
X297605Y285273D01*
X297624D01*
X297661Y285283D01*
X297762Y285310D01*
X297873Y285347D01*
X298003Y285394D01*
X298132Y285458D01*
X298252Y285532D01*
X298354Y285625D01*
X298363Y285634D01*
X298391Y285671D01*
X298428Y285736D01*
X298465Y285810D01*
X298511Y285911D01*
X298548Y286031D01*
X298576Y286170D01*
X298585Y286318D01*
Y286383D01*
X298576Y286448D01*
X298567Y286531D01*
X298548Y286632D01*
X298521Y286734D01*
X298484Y286845D01*
X298428Y286947D01*
X298419Y286956D01*
X298400Y286993D01*
X298363Y287048D01*
X298308Y287104D01*
X298243Y287178D01*
X298169Y287252D01*
X298086Y287326D01*
X297984Y287400D01*
X297975Y287409D01*
X297929Y287428D01*
X297864Y287465D01*
X297781Y287502D01*
X297670Y287548D01*
X297540Y287594D01*
X297393Y287640D01*
X297226Y287687D01*
X297217D01*
X297208Y287696D01*
X297180D01*
X297143Y287705D01*
X297050Y287724D01*
X296930Y287751D01*
X296782Y287770D01*
X296625Y287788D01*
X296450Y287797D01*
X296265Y287807D01*
X296255D01*
X296228D01*
X296181D01*
X296107D01*
X296126Y287797D01*
X296172Y287760D01*
X296237Y287705D01*
X296329Y287640D01*
X296422Y287548D01*
X296523Y287437D01*
X296625Y287307D01*
X296718Y287160D01*
X296727Y287141D01*
X296755Y287085D01*
X296792Y287002D01*
X296829Y286901D01*
X296875Y286762D01*
X296912Y286614D01*
X296940Y286448D01*
X296949Y286272D01*
Y286198D01*
X296940Y286143D01*
X296930Y286068D01*
X296921Y285994D01*
X296903Y285902D01*
X296875Y285810D01*
X296810Y285597D01*
X296764Y285486D01*
X296708Y285375D01*
X296644Y285255D01*
X296560Y285144D01*
X296477Y285033D01*
X296376Y284931D01*
X296366Y284922D01*
X296348Y284904D01*
X296320Y284885D01*
X296274Y284848D01*
X296209Y284802D01*
X296144Y284756D01*
X296061Y284709D01*
X295969Y284663D01*
X295867Y284608D01*
X295756Y284562D01*
X295627Y284515D01*
X295497Y284469D01*
X295349Y284432D01*
X295192Y284414D01*
X295035Y284395D01*
X294859Y284386D01*
X294850D01*
X294813D01*
X294767D01*
X294702Y284395D01*
X294619Y284404D01*
X294517Y284414D01*
X294415Y284432D01*
X294295Y284460D01*
X294055Y284524D01*
X293925Y284571D01*
X293787Y284626D01*
X293657Y284691D01*
X293537Y284774D01*
X293408Y284857D01*
X293297Y284959D01*
X293288Y284968D01*
X293269Y284987D01*
X293241Y285014D01*
X293204Y285061D01*
X293158Y285116D01*
X293103Y285190D01*
X293056Y285264D01*
X292992Y285357D01*
X292936Y285449D01*
X292890Y285560D01*
X292788Y285810D01*
X292751Y285939D01*
X292724Y286087D01*
X292705Y286235D01*
X292696Y286392D01*
Y286457D01*
X292705Y286503D01*
Y286549D01*
X292714Y286614D01*
X292742Y286771D01*
X292779Y286947D01*
X292844Y287141D01*
X292927Y287335D01*
X293038Y287529D01*
Y287539D01*
X293056Y287548D01*
X293075Y287575D01*
X293103Y287612D01*
X293177Y287705D01*
X293278Y287825D01*
X293417Y287945D01*
X293583Y288084D01*
X293778Y288204D01*
X293999Y288315D01*
X294009D01*
X294027Y288324D01*
X294064Y288343D01*
X294110Y288361D01*
X294175Y288380D01*
X294258Y288408D01*
X294351Y288426D01*
X294452Y288454D01*
X294573Y288482D01*
X294711Y288509D01*
X294859Y288528D01*
X295016Y288546D01*
X295192Y288565D01*
X295377Y288583D01*
X295580Y288592D01*
X295793D01*
X295802D01*
X295849D01*
X295913D01*
X295996D01*
X296098Y288583D01*
D02*
G37*
G36*
X297291Y283313D02*
X297365D01*
X297540Y283295D01*
X297744Y283276D01*
X297957Y283239D01*
X298151Y283184D01*
X298336Y283119D01*
X298345D01*
X298354Y283110D01*
X298410Y283082D01*
X298484Y283036D01*
X298585Y282971D01*
X298687Y282879D01*
X298798Y282777D01*
X298909Y282648D01*
X299001Y282500D01*
X299011Y282481D01*
X299038Y282426D01*
X299075Y282342D01*
X299112Y282222D01*
X299158Y282074D01*
X299195Y281908D01*
X299223Y281723D01*
X299232Y281520D01*
Y281436D01*
X299223Y281381D01*
X299214Y281307D01*
X299205Y281233D01*
X299168Y281039D01*
X299112Y280835D01*
X299029Y280623D01*
X298974Y280512D01*
X298909Y280410D01*
X298835Y280318D01*
X298752Y280225D01*
X298742Y280216D01*
X298733Y280207D01*
X298696Y280188D01*
X298659Y280161D01*
X298613Y280124D01*
X298548Y280087D01*
X298474Y280050D01*
X298391Y280003D01*
X298299Y279966D01*
X298188Y279929D01*
X298077Y279892D01*
X297947Y279855D01*
X297809Y279837D01*
X297651Y279809D01*
X297494Y279800D01*
X297319D01*
X297208Y280567D01*
X297217D01*
X297235D01*
X297272D01*
X297328Y280577D01*
X297383Y280586D01*
X297448D01*
X297605Y280614D01*
X297772Y280641D01*
X297938Y280697D01*
X298086Y280752D01*
X298151Y280789D01*
X298206Y280835D01*
X298215Y280845D01*
X298243Y280882D01*
X298289Y280937D01*
X298336Y281011D01*
X298391Y281113D01*
X298428Y281224D01*
X298465Y281362D01*
X298474Y281510D01*
Y281566D01*
X298465Y281621D01*
X298456Y281705D01*
X298437Y281788D01*
X298419Y281880D01*
X298382Y281973D01*
X298336Y282065D01*
X298326Y282074D01*
X298308Y282102D01*
X298271Y282139D01*
X298234Y282195D01*
X298169Y282241D01*
X298104Y282296D01*
X298030Y282342D01*
X297938Y282379D01*
X297929D01*
X297892Y282398D01*
X297827Y282407D01*
X297744Y282426D01*
X297633Y282444D01*
X297494Y282453D01*
X297328Y282472D01*
X297134D01*
X292724D01*
Y283323D01*
X297087D01*
X297097D01*
X297124D01*
X297161D01*
X297217D01*
X297291Y283313D01*
D02*
G37*
G36*
X565821Y289249D02*
X565812D01*
X565775D01*
X565720D01*
X565646Y289258D01*
X565563Y289268D01*
X565470Y289286D01*
X565378Y289305D01*
X565276Y289341D01*
X565267D01*
X565257Y289351D01*
X565202Y289369D01*
X565119Y289406D01*
X565008Y289462D01*
X564878Y289536D01*
X564730Y289628D01*
X564583Y289730D01*
X564425Y289859D01*
X564416D01*
X564407Y289878D01*
X564351Y289924D01*
X564268Y290007D01*
X564148Y290127D01*
X564009Y290266D01*
X563843Y290442D01*
X563658Y290654D01*
X563464Y290885D01*
X563455Y290895D01*
X563427Y290932D01*
X563381Y290987D01*
X563325Y291052D01*
X563251Y291135D01*
X563168Y291237D01*
X563075Y291339D01*
X562974Y291459D01*
X562752Y291690D01*
X562530Y291921D01*
X562419Y292032D01*
X562308Y292134D01*
X562206Y292226D01*
X562105Y292300D01*
X562095D01*
X562086Y292318D01*
X562058Y292337D01*
X562021Y292355D01*
X561920Y292420D01*
X561800Y292494D01*
X561652Y292559D01*
X561494Y292624D01*
X561319Y292661D01*
X561152Y292679D01*
X561143D01*
X561134D01*
X561078Y292670D01*
X560986Y292661D01*
X560884Y292633D01*
X560755Y292596D01*
X560625Y292531D01*
X560496Y292448D01*
X560367Y292337D01*
X560348Y292318D01*
X560311Y292272D01*
X560265Y292208D01*
X560200Y292106D01*
X560145Y291976D01*
X560089Y291828D01*
X560052Y291653D01*
X560043Y291459D01*
Y291403D01*
X560052Y291366D01*
X560061Y291255D01*
X560089Y291126D01*
X560126Y290987D01*
X560191Y290830D01*
X560274Y290682D01*
X560385Y290543D01*
X560404Y290525D01*
X560450Y290488D01*
X560524Y290432D01*
X560635Y290377D01*
X560764Y290312D01*
X560931Y290257D01*
X561115Y290220D01*
X561328Y290201D01*
X561245Y289397D01*
X561236D01*
X561208Y289406D01*
X561162D01*
X561097Y289415D01*
X561023Y289434D01*
X560940Y289452D01*
X560838Y289480D01*
X560736Y289508D01*
X560514Y289582D01*
X560293Y289693D01*
X560182Y289757D01*
X560071Y289841D01*
X559969Y289924D01*
X559877Y290016D01*
X559867Y290026D01*
X559858Y290044D01*
X559830Y290072D01*
X559803Y290118D01*
X559766Y290173D01*
X559729Y290238D01*
X559682Y290312D01*
X559636Y290405D01*
X559590Y290506D01*
X559544Y290617D01*
X559507Y290737D01*
X559470Y290867D01*
X559442Y291006D01*
X559414Y291154D01*
X559405Y291311D01*
X559396Y291477D01*
Y291570D01*
X559405Y291634D01*
X559414Y291708D01*
X559423Y291801D01*
X559442Y291903D01*
X559460Y292004D01*
X559525Y292245D01*
X559618Y292485D01*
X559673Y292605D01*
X559738Y292725D01*
X559821Y292836D01*
X559913Y292938D01*
X559923Y292947D01*
X559932Y292966D01*
X559969Y292984D01*
X560006Y293021D01*
X560052Y293067D01*
X560117Y293114D01*
X560182Y293160D01*
X560265Y293215D01*
X560440Y293308D01*
X560662Y293400D01*
X560773Y293437D01*
X560903Y293456D01*
X561032Y293474D01*
X561171Y293484D01*
X561189D01*
X561236D01*
X561310Y293474D01*
X561411Y293465D01*
X561522Y293447D01*
X561652Y293410D01*
X561790Y293372D01*
X561929Y293317D01*
X561948Y293308D01*
X561994Y293289D01*
X562068Y293252D01*
X562169Y293197D01*
X562280Y293123D01*
X562419Y293030D01*
X562558Y292920D01*
X562715Y292790D01*
X562733Y292772D01*
X562789Y292725D01*
X562835Y292679D01*
X562881Y292633D01*
X562937Y292577D01*
X563011Y292503D01*
X563085Y292430D01*
X563168Y292337D01*
X563260Y292245D01*
X563362Y292134D01*
X563464Y292013D01*
X563584Y291884D01*
X563704Y291736D01*
X563834Y291588D01*
X563843Y291579D01*
X563861Y291560D01*
X563889Y291523D01*
X563926Y291477D01*
X563982Y291422D01*
X564037Y291357D01*
X564157Y291209D01*
X564296Y291052D01*
X564435Y290904D01*
X564555Y290774D01*
X564601Y290719D01*
X564647Y290673D01*
X564656Y290664D01*
X564684Y290636D01*
X564721Y290599D01*
X564777Y290553D01*
X564841Y290506D01*
X564906Y290451D01*
X565063Y290340D01*
Y293493D01*
X565821D01*
Y289249D01*
D02*
G37*
G36*
Y286558D02*
X560820D01*
X560829Y286549D01*
X560866Y286503D01*
X560921Y286448D01*
X560986Y286355D01*
X561069Y286253D01*
X561162Y286124D01*
X561263Y285976D01*
X561365Y285810D01*
Y285800D01*
X561374Y285791D01*
X561411Y285736D01*
X561458Y285643D01*
X561513Y285532D01*
X561578Y285403D01*
X561642Y285264D01*
X561707Y285125D01*
X561763Y284987D01*
X561004D01*
Y284996D01*
X560986Y285014D01*
X560977Y285051D01*
X560949Y285098D01*
X560921Y285153D01*
X560884Y285218D01*
X560792Y285375D01*
X560690Y285560D01*
X560561Y285745D01*
X560413Y285939D01*
X560256Y286133D01*
X560246Y286143D01*
X560237Y286152D01*
X560209Y286179D01*
X560182Y286216D01*
X560089Y286300D01*
X559978Y286411D01*
X559849Y286521D01*
X559701Y286642D01*
X559553Y286743D01*
X559396Y286836D01*
Y287344D01*
X565821D01*
Y286558D01*
D02*
G37*
G36*
X563991Y283313D02*
X564065D01*
X564240Y283295D01*
X564444Y283276D01*
X564656Y283239D01*
X564851Y283184D01*
X565036Y283119D01*
X565045D01*
X565054Y283110D01*
X565110Y283082D01*
X565183Y283036D01*
X565285Y282971D01*
X565387Y282879D01*
X565498Y282777D01*
X565609Y282648D01*
X565701Y282500D01*
X565710Y282481D01*
X565738Y282426D01*
X565775Y282342D01*
X565812Y282222D01*
X565858Y282074D01*
X565895Y281908D01*
X565923Y281723D01*
X565932Y281520D01*
Y281436D01*
X565923Y281381D01*
X565914Y281307D01*
X565905Y281233D01*
X565868Y281039D01*
X565812Y280835D01*
X565729Y280623D01*
X565673Y280512D01*
X565609Y280410D01*
X565535Y280318D01*
X565452Y280225D01*
X565442Y280216D01*
X565433Y280207D01*
X565396Y280188D01*
X565359Y280161D01*
X565313Y280124D01*
X565248Y280087D01*
X565174Y280050D01*
X565091Y280003D01*
X564999Y279966D01*
X564888Y279929D01*
X564777Y279892D01*
X564647Y279855D01*
X564509Y279837D01*
X564351Y279809D01*
X564194Y279800D01*
X564019D01*
X563908Y280567D01*
X563917D01*
X563935D01*
X563972D01*
X564028Y280577D01*
X564083Y280586D01*
X564148D01*
X564305Y280614D01*
X564472Y280641D01*
X564638Y280697D01*
X564786Y280752D01*
X564851Y280789D01*
X564906Y280835D01*
X564915Y280845D01*
X564943Y280882D01*
X564989Y280937D01*
X565036Y281011D01*
X565091Y281113D01*
X565128Y281224D01*
X565165Y281362D01*
X565174Y281510D01*
Y281566D01*
X565165Y281621D01*
X565156Y281705D01*
X565137Y281788D01*
X565119Y281880D01*
X565082Y281973D01*
X565036Y282065D01*
X565026Y282074D01*
X565008Y282102D01*
X564971Y282139D01*
X564934Y282195D01*
X564869Y282241D01*
X564804Y282296D01*
X564730Y282342D01*
X564638Y282379D01*
X564629D01*
X564592Y282398D01*
X564527Y282407D01*
X564444Y282426D01*
X564333Y282444D01*
X564194Y282453D01*
X564028Y282472D01*
X563834D01*
X559423D01*
Y283323D01*
X563787D01*
X563797D01*
X563824D01*
X563861D01*
X563917D01*
X563991Y283313D01*
D02*
G37*
G36*
X476922Y291533D02*
X471920D01*
X471929Y291523D01*
X471966Y291477D01*
X472021Y291422D01*
X472086Y291329D01*
X472169Y291227D01*
X472262Y291098D01*
X472363Y290950D01*
X472465Y290784D01*
Y290774D01*
X472474Y290765D01*
X472511Y290710D01*
X472558Y290617D01*
X472613Y290506D01*
X472678Y290377D01*
X472743Y290238D01*
X472807Y290100D01*
X472863Y289961D01*
X472104D01*
Y289970D01*
X472086Y289989D01*
X472077Y290026D01*
X472049Y290072D01*
X472021Y290127D01*
X471984Y290192D01*
X471892Y290349D01*
X471790Y290534D01*
X471661Y290719D01*
X471513Y290913D01*
X471356Y291107D01*
X471346Y291117D01*
X471337Y291126D01*
X471309Y291154D01*
X471282Y291191D01*
X471189Y291274D01*
X471078Y291385D01*
X470949Y291496D01*
X470801Y291616D01*
X470653Y291718D01*
X470496Y291810D01*
Y292318D01*
X476922D01*
Y291533D01*
D02*
G37*
G36*
Y286558D02*
X471920D01*
X471929Y286549D01*
X471966Y286503D01*
X472021Y286448D01*
X472086Y286355D01*
X472169Y286253D01*
X472262Y286124D01*
X472363Y285976D01*
X472465Y285810D01*
Y285800D01*
X472474Y285791D01*
X472511Y285736D01*
X472558Y285643D01*
X472613Y285532D01*
X472678Y285403D01*
X472743Y285264D01*
X472807Y285125D01*
X472863Y284987D01*
X472104D01*
Y284996D01*
X472086Y285014D01*
X472077Y285051D01*
X472049Y285098D01*
X472021Y285153D01*
X471984Y285218D01*
X471892Y285375D01*
X471790Y285560D01*
X471661Y285745D01*
X471513Y285939D01*
X471356Y286133D01*
X471346Y286143D01*
X471337Y286152D01*
X471309Y286179D01*
X471282Y286216D01*
X471189Y286300D01*
X471078Y286411D01*
X470949Y286521D01*
X470801Y286642D01*
X470653Y286743D01*
X470496Y286836D01*
Y287344D01*
X476922D01*
Y286558D01*
D02*
G37*
G36*
X475091Y283313D02*
X475165D01*
X475340Y283295D01*
X475544Y283276D01*
X475756Y283239D01*
X475951Y283184D01*
X476136Y283119D01*
X476145D01*
X476154Y283110D01*
X476210Y283082D01*
X476283Y283036D01*
X476385Y282971D01*
X476487Y282879D01*
X476598Y282777D01*
X476709Y282648D01*
X476801Y282500D01*
X476810Y282481D01*
X476838Y282426D01*
X476875Y282342D01*
X476912Y282222D01*
X476959Y282074D01*
X476995Y281908D01*
X477023Y281723D01*
X477032Y281520D01*
Y281436D01*
X477023Y281381D01*
X477014Y281307D01*
X477005Y281233D01*
X476968Y281039D01*
X476912Y280835D01*
X476829Y280623D01*
X476773Y280512D01*
X476709Y280410D01*
X476635Y280318D01*
X476552Y280225D01*
X476542Y280216D01*
X476533Y280207D01*
X476496Y280188D01*
X476459Y280161D01*
X476413Y280124D01*
X476348Y280087D01*
X476274Y280050D01*
X476191Y280003D01*
X476099Y279966D01*
X475988Y279929D01*
X475877Y279892D01*
X475747Y279855D01*
X475609Y279837D01*
X475451Y279809D01*
X475294Y279800D01*
X475119D01*
X475008Y280567D01*
X475017D01*
X475035D01*
X475072D01*
X475128Y280577D01*
X475183Y280586D01*
X475248D01*
X475405Y280614D01*
X475572Y280641D01*
X475738Y280697D01*
X475886Y280752D01*
X475951Y280789D01*
X476006Y280835D01*
X476015Y280845D01*
X476043Y280882D01*
X476089Y280937D01*
X476136Y281011D01*
X476191Y281113D01*
X476228Y281224D01*
X476265Y281362D01*
X476274Y281510D01*
Y281566D01*
X476265Y281621D01*
X476256Y281705D01*
X476237Y281788D01*
X476219Y281880D01*
X476182Y281973D01*
X476136Y282065D01*
X476126Y282074D01*
X476108Y282102D01*
X476071Y282139D01*
X476034Y282195D01*
X475969Y282241D01*
X475905Y282296D01*
X475830Y282342D01*
X475738Y282379D01*
X475729D01*
X475692Y282398D01*
X475627Y282407D01*
X475544Y282426D01*
X475433Y282444D01*
X475294Y282453D01*
X475128Y282472D01*
X474934D01*
X470523D01*
Y283323D01*
X474887D01*
X474897D01*
X474924D01*
X474961D01*
X475017D01*
X475091Y283313D01*
D02*
G37*
G36*
X121321Y413559D02*
X116320D01*
X116329Y413549D01*
X116366Y413503D01*
X116421Y413448D01*
X116486Y413355D01*
X116569Y413253D01*
X116662Y413124D01*
X116763Y412976D01*
X116865Y412810D01*
Y412800D01*
X116874Y412791D01*
X116911Y412736D01*
X116958Y412643D01*
X117013Y412532D01*
X117078Y412403D01*
X117142Y412264D01*
X117207Y412125D01*
X117263Y411987D01*
X116504D01*
Y411996D01*
X116486Y412015D01*
X116477Y412052D01*
X116449Y412098D01*
X116421Y412153D01*
X116384Y412218D01*
X116292Y412375D01*
X116190Y412560D01*
X116061Y412745D01*
X115913Y412939D01*
X115756Y413133D01*
X115746Y413143D01*
X115737Y413152D01*
X115709Y413179D01*
X115682Y413216D01*
X115589Y413300D01*
X115478Y413411D01*
X115349Y413521D01*
X115201Y413642D01*
X115053Y413743D01*
X114896Y413836D01*
Y414344D01*
X121321D01*
Y413559D01*
D02*
G37*
G36*
X119491Y410313D02*
X119565D01*
X119740Y410295D01*
X119944Y410276D01*
X120156Y410239D01*
X120351Y410184D01*
X120536Y410119D01*
X120545D01*
X120554Y410110D01*
X120610Y410082D01*
X120683Y410036D01*
X120785Y409971D01*
X120887Y409879D01*
X120998Y409777D01*
X121109Y409648D01*
X121201Y409500D01*
X121210Y409481D01*
X121238Y409426D01*
X121275Y409342D01*
X121312Y409222D01*
X121358Y409074D01*
X121395Y408908D01*
X121423Y408723D01*
X121432Y408520D01*
Y408436D01*
X121423Y408381D01*
X121414Y408307D01*
X121405Y408233D01*
X121368Y408039D01*
X121312Y407836D01*
X121229Y407623D01*
X121173Y407512D01*
X121109Y407410D01*
X121035Y407318D01*
X120952Y407225D01*
X120942Y407216D01*
X120933Y407207D01*
X120896Y407188D01*
X120859Y407161D01*
X120813Y407124D01*
X120748Y407087D01*
X120674Y407050D01*
X120591Y407003D01*
X120499Y406966D01*
X120388Y406929D01*
X120277Y406892D01*
X120147Y406855D01*
X120009Y406837D01*
X119851Y406809D01*
X119694Y406800D01*
X119519D01*
X119408Y407567D01*
X119417D01*
X119435D01*
X119472D01*
X119528Y407577D01*
X119583Y407586D01*
X119648D01*
X119805Y407614D01*
X119972Y407641D01*
X120138Y407697D01*
X120286Y407752D01*
X120351Y407789D01*
X120406Y407836D01*
X120415Y407845D01*
X120443Y407882D01*
X120489Y407937D01*
X120536Y408011D01*
X120591Y408113D01*
X120628Y408224D01*
X120665Y408363D01*
X120674Y408510D01*
Y408566D01*
X120665Y408621D01*
X120656Y408705D01*
X120637Y408788D01*
X120619Y408880D01*
X120582Y408973D01*
X120536Y409065D01*
X120526Y409074D01*
X120508Y409102D01*
X120471Y409139D01*
X120434Y409195D01*
X120369Y409241D01*
X120304Y409296D01*
X120231Y409342D01*
X120138Y409380D01*
X120129D01*
X120092Y409398D01*
X120027Y409407D01*
X119944Y409426D01*
X119833Y409444D01*
X119694Y409454D01*
X119528Y409472D01*
X119334D01*
X114923D01*
Y410322D01*
X119287D01*
X119297D01*
X119324D01*
X119361D01*
X119417D01*
X119491Y410313D01*
D02*
G37*
G36*
X297374Y415574D02*
X297448Y415565D01*
X297531Y415546D01*
X297624Y415528D01*
X297725Y415509D01*
X297947Y415435D01*
X298067Y415380D01*
X298178Y415324D01*
X298299Y415251D01*
X298419Y415167D01*
X298539Y415075D01*
X298650Y414964D01*
X298659Y414955D01*
X298678Y414936D01*
X298705Y414899D01*
X298742Y414853D01*
X298789Y414797D01*
X298835Y414724D01*
X298890Y414640D01*
X298937Y414538D01*
X298992Y414437D01*
X299048Y414317D01*
X299094Y414197D01*
X299140Y414058D01*
X299177Y413910D01*
X299205Y413753D01*
X299223Y413596D01*
X299232Y413420D01*
Y413337D01*
X299223Y413281D01*
X299214Y413207D01*
X299205Y413124D01*
X299186Y413032D01*
X299168Y412930D01*
X299112Y412708D01*
X299020Y412477D01*
X298964Y412357D01*
X298900Y412246D01*
X298816Y412135D01*
X298733Y412024D01*
X298724Y412015D01*
X298705Y411996D01*
X298678Y411968D01*
X298641Y411940D01*
X298594Y411894D01*
X298530Y411848D01*
X298465Y411793D01*
X298382Y411737D01*
X298289Y411682D01*
X298197Y411626D01*
X297975Y411525D01*
X297716Y411441D01*
X297577Y411413D01*
X297430Y411395D01*
X297328Y412181D01*
X297337D01*
X297356Y412190D01*
X297393Y412199D01*
X297439Y412209D01*
X297494Y412218D01*
X297559Y412236D01*
X297698Y412283D01*
X297864Y412347D01*
X298021Y412430D01*
X298169Y412523D01*
X298299Y412634D01*
X298308Y412652D01*
X298345Y412689D01*
X298391Y412763D01*
X298437Y412856D01*
X298493Y412967D01*
X298539Y413106D01*
X298576Y413263D01*
X298585Y413429D01*
Y413484D01*
X298576Y413521D01*
X298567Y413623D01*
X298539Y413753D01*
X298493Y413901D01*
X298428Y414058D01*
X298336Y414215D01*
X298206Y414363D01*
X298188Y414381D01*
X298132Y414428D01*
X298049Y414483D01*
X297938Y414557D01*
X297799Y414631D01*
X297642Y414687D01*
X297457Y414733D01*
X297254Y414751D01*
X297245D01*
X297226D01*
X297198D01*
X297161Y414742D01*
X297060Y414733D01*
X296940Y414705D01*
X296792Y414668D01*
X296644Y414603D01*
X296496Y414511D01*
X296357Y414391D01*
X296339Y414372D01*
X296302Y414326D01*
X296246Y414252D01*
X296181Y414150D01*
X296117Y414021D01*
X296061Y413864D01*
X296024Y413688D01*
X296006Y413494D01*
Y413411D01*
X296015Y413346D01*
X296024Y413263D01*
X296043Y413170D01*
X296061Y413059D01*
X296089Y412939D01*
X295396Y413032D01*
Y413078D01*
X295405Y413115D01*
Y413235D01*
X295386Y413337D01*
X295368Y413457D01*
X295340Y413596D01*
X295294Y413753D01*
X295229Y413901D01*
X295146Y414058D01*
Y414067D01*
X295137Y414076D01*
X295100Y414123D01*
X295035Y414187D01*
X294952Y414261D01*
X294832Y414335D01*
X294693Y414400D01*
X294536Y414446D01*
X294443Y414465D01*
X294342D01*
X294332D01*
X294323D01*
X294268D01*
X294194Y414446D01*
X294092Y414428D01*
X293981Y414391D01*
X293861Y414344D01*
X293741Y414270D01*
X293630Y414169D01*
X293620Y414160D01*
X293583Y414113D01*
X293537Y414049D01*
X293482Y413965D01*
X293435Y413854D01*
X293389Y413725D01*
X293352Y413577D01*
X293343Y413411D01*
Y413337D01*
X293361Y413253D01*
X293380Y413143D01*
X293417Y413022D01*
X293463Y412902D01*
X293537Y412773D01*
X293630Y412652D01*
X293639Y412643D01*
X293685Y412606D01*
X293750Y412551D01*
X293842Y412486D01*
X293962Y412421D01*
X294110Y412357D01*
X294286Y412301D01*
X294489Y412264D01*
X294351Y411478D01*
X294342D01*
X294314Y411488D01*
X294277Y411497D01*
X294221Y411506D01*
X294157Y411525D01*
X294083Y411552D01*
X293907Y411608D01*
X293704Y411700D01*
X293500Y411811D01*
X293306Y411950D01*
X293130Y412125D01*
X293121Y412135D01*
X293112Y412153D01*
X293093Y412181D01*
X293066Y412218D01*
X293029Y412264D01*
X292992Y412329D01*
X292955Y412394D01*
X292908Y412477D01*
X292834Y412662D01*
X292761Y412874D01*
X292714Y413124D01*
X292696Y413253D01*
Y413484D01*
X292705Y413586D01*
X292724Y413706D01*
X292751Y413854D01*
X292798Y414021D01*
X292853Y414187D01*
X292927Y414354D01*
Y414363D01*
X292936Y414372D01*
X292964Y414428D01*
X293019Y414511D01*
X293084Y414603D01*
X293177Y414714D01*
X293278Y414825D01*
X293398Y414936D01*
X293537Y415029D01*
X293556Y415038D01*
X293602Y415065D01*
X293685Y415103D01*
X293787Y415149D01*
X293907Y415195D01*
X294046Y415232D01*
X294203Y415260D01*
X294360Y415269D01*
X294379D01*
X294434D01*
X294508Y415260D01*
X294610Y415241D01*
X294730Y415214D01*
X294859Y415167D01*
X294989Y415112D01*
X295118Y415038D01*
X295137Y415029D01*
X295174Y415001D01*
X295238Y414945D01*
X295312Y414871D01*
X295396Y414779D01*
X295488Y414668D01*
X295571Y414538D01*
X295654Y414381D01*
Y414391D01*
X295664Y414409D01*
X295673Y414437D01*
X295682Y414474D01*
X295719Y414576D01*
X295775Y414705D01*
X295849Y414853D01*
X295941Y415001D01*
X296061Y415140D01*
X296200Y415269D01*
X296218Y415278D01*
X296274Y415315D01*
X296366Y415371D01*
X296486Y415426D01*
X296634Y415482D01*
X296810Y415537D01*
X297013Y415574D01*
X297235Y415583D01*
X297245D01*
X297272D01*
X297319D01*
X297374Y415574D01*
D02*
G37*
G36*
X297291Y410313D02*
X297365D01*
X297540Y410295D01*
X297744Y410276D01*
X297957Y410239D01*
X298151Y410184D01*
X298336Y410119D01*
X298345D01*
X298354Y410110D01*
X298410Y410082D01*
X298484Y410036D01*
X298585Y409971D01*
X298687Y409879D01*
X298798Y409777D01*
X298909Y409648D01*
X299001Y409500D01*
X299011Y409481D01*
X299038Y409426D01*
X299075Y409342D01*
X299112Y409222D01*
X299158Y409074D01*
X299195Y408908D01*
X299223Y408723D01*
X299232Y408520D01*
Y408436D01*
X299223Y408381D01*
X299214Y408307D01*
X299205Y408233D01*
X299168Y408039D01*
X299112Y407836D01*
X299029Y407623D01*
X298974Y407512D01*
X298909Y407410D01*
X298835Y407318D01*
X298752Y407225D01*
X298742Y407216D01*
X298733Y407207D01*
X298696Y407188D01*
X298659Y407161D01*
X298613Y407124D01*
X298548Y407087D01*
X298474Y407050D01*
X298391Y407003D01*
X298299Y406966D01*
X298188Y406929D01*
X298077Y406892D01*
X297947Y406855D01*
X297809Y406837D01*
X297651Y406809D01*
X297494Y406800D01*
X297319D01*
X297208Y407567D01*
X297217D01*
X297235D01*
X297272D01*
X297328Y407577D01*
X297383Y407586D01*
X297448D01*
X297605Y407614D01*
X297772Y407641D01*
X297938Y407697D01*
X298086Y407752D01*
X298151Y407789D01*
X298206Y407836D01*
X298215Y407845D01*
X298243Y407882D01*
X298289Y407937D01*
X298336Y408011D01*
X298391Y408113D01*
X298428Y408224D01*
X298465Y408363D01*
X298474Y408510D01*
Y408566D01*
X298465Y408621D01*
X298456Y408705D01*
X298437Y408788D01*
X298419Y408880D01*
X298382Y408973D01*
X298336Y409065D01*
X298326Y409074D01*
X298308Y409102D01*
X298271Y409139D01*
X298234Y409195D01*
X298169Y409241D01*
X298104Y409296D01*
X298030Y409342D01*
X297938Y409380D01*
X297929D01*
X297892Y409398D01*
X297827Y409407D01*
X297744Y409426D01*
X297633Y409444D01*
X297494Y409454D01*
X297328Y409472D01*
X297134D01*
X292724D01*
Y410322D01*
X297087D01*
X297097D01*
X297124D01*
X297161D01*
X297217D01*
X297291Y410313D01*
D02*
G37*
G36*
X386487Y414687D02*
X388022D01*
Y413901D01*
X386487D01*
Y411118D01*
X385765D01*
X381623Y414049D01*
Y414687D01*
X385765D01*
Y415556D01*
X386487D01*
Y414687D01*
D02*
G37*
G36*
X386191Y410313D02*
X386265D01*
X386441Y410295D01*
X386644Y410276D01*
X386856Y410239D01*
X387051Y410184D01*
X387236Y410119D01*
X387245D01*
X387254Y410110D01*
X387310Y410082D01*
X387383Y410036D01*
X387485Y409971D01*
X387587Y409879D01*
X387698Y409777D01*
X387809Y409648D01*
X387901Y409500D01*
X387910Y409481D01*
X387938Y409426D01*
X387975Y409342D01*
X388012Y409222D01*
X388059Y409074D01*
X388095Y408908D01*
X388123Y408723D01*
X388132Y408520D01*
Y408436D01*
X388123Y408381D01*
X388114Y408307D01*
X388105Y408233D01*
X388068Y408039D01*
X388012Y407836D01*
X387929Y407623D01*
X387873Y407512D01*
X387809Y407410D01*
X387735Y407318D01*
X387652Y407225D01*
X387642Y407216D01*
X387633Y407207D01*
X387596Y407188D01*
X387559Y407161D01*
X387513Y407124D01*
X387448Y407087D01*
X387374Y407050D01*
X387291Y407003D01*
X387199Y406966D01*
X387088Y406929D01*
X386977Y406892D01*
X386847Y406855D01*
X386709Y406837D01*
X386551Y406809D01*
X386394Y406800D01*
X386219D01*
X386108Y407567D01*
X386117D01*
X386135D01*
X386172D01*
X386228Y407577D01*
X386283Y407586D01*
X386348D01*
X386505Y407614D01*
X386672Y407641D01*
X386838Y407697D01*
X386986Y407752D01*
X387051Y407789D01*
X387106Y407836D01*
X387115Y407845D01*
X387143Y407882D01*
X387189Y407937D01*
X387236Y408011D01*
X387291Y408113D01*
X387328Y408224D01*
X387365Y408363D01*
X387374Y408510D01*
Y408566D01*
X387365Y408621D01*
X387356Y408705D01*
X387337Y408788D01*
X387319Y408880D01*
X387282Y408973D01*
X387236Y409065D01*
X387226Y409074D01*
X387208Y409102D01*
X387171Y409139D01*
X387134Y409195D01*
X387069Y409241D01*
X387005Y409296D01*
X386931Y409342D01*
X386838Y409380D01*
X386829D01*
X386792Y409398D01*
X386727Y409407D01*
X386644Y409426D01*
X386533Y409444D01*
X386394Y409454D01*
X386228Y409472D01*
X386034D01*
X381623D01*
Y410322D01*
X385987D01*
X385997D01*
X386024D01*
X386061D01*
X386117D01*
X386191Y410313D01*
D02*
G37*
G36*
X210222Y411275D02*
X210212D01*
X210175D01*
X210120D01*
X210046Y411284D01*
X209963Y411293D01*
X209870Y411312D01*
X209778Y411330D01*
X209676Y411367D01*
X209667D01*
X209657Y411376D01*
X209602Y411395D01*
X209519Y411432D01*
X209408Y411488D01*
X209278Y411562D01*
X209130Y411654D01*
X208983Y411756D01*
X208825Y411885D01*
X208816D01*
X208807Y411903D01*
X208751Y411950D01*
X208668Y412033D01*
X208548Y412153D01*
X208409Y412292D01*
X208243Y412467D01*
X208058Y412680D01*
X207864Y412911D01*
X207855Y412921D01*
X207827Y412957D01*
X207781Y413013D01*
X207725Y413078D01*
X207651Y413161D01*
X207568Y413263D01*
X207475Y413364D01*
X207374Y413484D01*
X207152Y413716D01*
X206930Y413947D01*
X206819Y414058D01*
X206708Y414160D01*
X206606Y414252D01*
X206505Y414326D01*
X206495D01*
X206486Y414344D01*
X206458Y414363D01*
X206422Y414381D01*
X206320Y414446D01*
X206200Y414520D01*
X206052Y414585D01*
X205895Y414650D01*
X205719Y414687D01*
X205552Y414705D01*
X205543D01*
X205534D01*
X205478Y414696D01*
X205386Y414687D01*
X205284Y414659D01*
X205155Y414622D01*
X205025Y414557D01*
X204896Y414474D01*
X204767Y414363D01*
X204748Y414344D01*
X204711Y414298D01*
X204665Y414233D01*
X204600Y414132D01*
X204545Y414002D01*
X204489Y413854D01*
X204452Y413679D01*
X204443Y413484D01*
Y413429D01*
X204452Y413392D01*
X204461Y413281D01*
X204489Y413152D01*
X204526Y413013D01*
X204591Y412856D01*
X204674Y412708D01*
X204785Y412569D01*
X204804Y412551D01*
X204850Y412514D01*
X204924Y412458D01*
X205035Y412403D01*
X205164Y412338D01*
X205331Y412283D01*
X205515Y412246D01*
X205728Y412227D01*
X205645Y411423D01*
X205636D01*
X205608Y411432D01*
X205562D01*
X205497Y411441D01*
X205423Y411460D01*
X205340Y411478D01*
X205238Y411506D01*
X205136Y411534D01*
X204914Y411608D01*
X204693Y411719D01*
X204582Y411783D01*
X204471Y411867D01*
X204369Y411950D01*
X204277Y412042D01*
X204267Y412052D01*
X204258Y412070D01*
X204230Y412098D01*
X204203Y412144D01*
X204166Y412199D01*
X204129Y412264D01*
X204082Y412338D01*
X204036Y412430D01*
X203990Y412532D01*
X203944Y412643D01*
X203907Y412763D01*
X203870Y412893D01*
X203842Y413032D01*
X203814Y413179D01*
X203805Y413337D01*
X203796Y413503D01*
Y413596D01*
X203805Y413660D01*
X203814Y413734D01*
X203824Y413827D01*
X203842Y413928D01*
X203860Y414030D01*
X203925Y414270D01*
X204018Y414511D01*
X204073Y414631D01*
X204138Y414751D01*
X204221Y414862D01*
X204314Y414964D01*
X204323Y414973D01*
X204332Y414992D01*
X204369Y415010D01*
X204406Y415047D01*
X204452Y415093D01*
X204517Y415140D01*
X204582Y415186D01*
X204665Y415241D01*
X204841Y415334D01*
X205062Y415426D01*
X205173Y415463D01*
X205303Y415482D01*
X205432Y415500D01*
X205571Y415509D01*
X205589D01*
X205636D01*
X205710Y415500D01*
X205811Y415491D01*
X205922Y415472D01*
X206052Y415435D01*
X206190Y415398D01*
X206329Y415343D01*
X206348Y415334D01*
X206394Y415315D01*
X206468Y415278D01*
X206569Y415223D01*
X206680Y415149D01*
X206819Y415056D01*
X206958Y414945D01*
X207115Y414816D01*
X207133Y414797D01*
X207189Y414751D01*
X207235Y414705D01*
X207281Y414659D01*
X207337Y414603D01*
X207411Y414529D01*
X207485Y414455D01*
X207568Y414363D01*
X207660Y414270D01*
X207762Y414160D01*
X207864Y414039D01*
X207984Y413910D01*
X208104Y413762D01*
X208234Y413614D01*
X208243Y413605D01*
X208261Y413586D01*
X208289Y413549D01*
X208326Y413503D01*
X208382Y413448D01*
X208437Y413383D01*
X208557Y413235D01*
X208696Y413078D01*
X208835Y412930D01*
X208955Y412800D01*
X209001Y412745D01*
X209047Y412699D01*
X209056Y412689D01*
X209084Y412662D01*
X209121Y412625D01*
X209177Y412579D01*
X209241Y412532D01*
X209306Y412477D01*
X209463Y412366D01*
Y415519D01*
X210222D01*
Y411275D01*
D02*
G37*
G36*
X208391Y410313D02*
X208465D01*
X208640Y410295D01*
X208844Y410276D01*
X209056Y410239D01*
X209251Y410184D01*
X209436Y410119D01*
X209445D01*
X209454Y410110D01*
X209510Y410082D01*
X209583Y410036D01*
X209685Y409971D01*
X209787Y409879D01*
X209898Y409777D01*
X210009Y409648D01*
X210101Y409500D01*
X210110Y409481D01*
X210138Y409426D01*
X210175Y409342D01*
X210212Y409222D01*
X210259Y409074D01*
X210295Y408908D01*
X210323Y408723D01*
X210332Y408520D01*
Y408436D01*
X210323Y408381D01*
X210314Y408307D01*
X210305Y408233D01*
X210268Y408039D01*
X210212Y407836D01*
X210129Y407623D01*
X210074Y407512D01*
X210009Y407410D01*
X209935Y407318D01*
X209852Y407225D01*
X209842Y407216D01*
X209833Y407207D01*
X209796Y407188D01*
X209759Y407161D01*
X209713Y407124D01*
X209648Y407087D01*
X209574Y407050D01*
X209491Y407003D01*
X209399Y406966D01*
X209288Y406929D01*
X209177Y406892D01*
X209047Y406855D01*
X208909Y406837D01*
X208751Y406809D01*
X208594Y406800D01*
X208419D01*
X208308Y407567D01*
X208317D01*
X208335D01*
X208372D01*
X208428Y407577D01*
X208483Y407586D01*
X208548D01*
X208705Y407614D01*
X208872Y407641D01*
X209038Y407697D01*
X209186Y407752D01*
X209251Y407789D01*
X209306Y407836D01*
X209315Y407845D01*
X209343Y407882D01*
X209389Y407937D01*
X209436Y408011D01*
X209491Y408113D01*
X209528Y408224D01*
X209565Y408363D01*
X209574Y408510D01*
Y408566D01*
X209565Y408621D01*
X209556Y408705D01*
X209537Y408788D01*
X209519Y408880D01*
X209482Y408973D01*
X209436Y409065D01*
X209426Y409074D01*
X209408Y409102D01*
X209371Y409139D01*
X209334Y409195D01*
X209269Y409241D01*
X209205Y409296D01*
X209130Y409342D01*
X209038Y409380D01*
X209029D01*
X208992Y409398D01*
X208927Y409407D01*
X208844Y409426D01*
X208733Y409444D01*
X208594Y409454D01*
X208428Y409472D01*
X208234D01*
X203824D01*
Y410322D01*
X208187D01*
X208197D01*
X208224D01*
X208261D01*
X208317D01*
X208391Y410313D01*
D02*
G37*
%LPC*%
G36*
X563797Y414779D02*
X563787D01*
X563769D01*
X563732D01*
X563686Y414770D01*
X563630D01*
X563565Y414760D01*
X563418Y414733D01*
X563251Y414696D01*
X563075Y414631D01*
X562909Y414538D01*
X562752Y414418D01*
X562733Y414400D01*
X562687Y414354D01*
X562632Y414280D01*
X562558Y414178D01*
X562484Y414049D01*
X562428Y413901D01*
X562382Y413725D01*
X562364Y413531D01*
Y413475D01*
X562373Y413438D01*
X562382Y413346D01*
X562410Y413216D01*
X562456Y413078D01*
X562530Y412921D01*
X562622Y412773D01*
X562752Y412625D01*
X562770Y412606D01*
X562817Y412569D01*
X562900Y412505D01*
X563020Y412440D01*
X563159Y412375D01*
X563334Y412310D01*
X563529Y412273D01*
X563750Y412255D01*
X563769D01*
X563815D01*
X563898Y412264D01*
X564000Y412273D01*
X564120Y412292D01*
X564250Y412329D01*
X564388Y412366D01*
X564527Y412421D01*
X564546Y412430D01*
X564592Y412458D01*
X564656Y412495D01*
X564740Y412551D01*
X564823Y412616D01*
X564925Y412699D01*
X565008Y412791D01*
X565091Y412902D01*
X565100Y412921D01*
X565119Y412957D01*
X565156Y413022D01*
X565183Y413106D01*
X565220Y413198D01*
X565257Y413309D01*
X565276Y413429D01*
X565285Y413559D01*
Y413605D01*
X565276Y413642D01*
X565267Y413734D01*
X565239Y413854D01*
X565183Y413984D01*
X565119Y414132D01*
X565017Y414280D01*
X564962Y414354D01*
X564888Y414418D01*
X564878D01*
X564869Y414437D01*
X564814Y414474D01*
X564721Y414529D01*
X564601Y414603D01*
X564444Y414668D01*
X564259Y414724D01*
X564046Y414760D01*
X563797Y414779D01*
D02*
G37*
G36*
X385155Y292735D02*
X384869D01*
X384860D01*
X384850D01*
X384804D01*
X384721D01*
X384610Y292725D01*
X384490D01*
X384342Y292716D01*
X384185Y292707D01*
X384009Y292688D01*
X383658Y292642D01*
X383482Y292614D01*
X383316Y292577D01*
X383158Y292540D01*
X383010Y292485D01*
X382881Y292430D01*
X382770Y292365D01*
X382761D01*
X382752Y292346D01*
X382724Y292328D01*
X382687Y292300D01*
X382604Y292217D01*
X382502Y292115D01*
X382409Y291976D01*
X382326Y291819D01*
X382289Y291736D01*
X382262Y291644D01*
X382252Y291542D01*
X382243Y291440D01*
Y291385D01*
X382252Y291348D01*
X382271Y291246D01*
X382298Y291126D01*
X382354Y290987D01*
X382437Y290839D01*
X382493Y290765D01*
X382548Y290691D01*
X382622Y290627D01*
X382705Y290562D01*
X382715D01*
X382733Y290543D01*
X382770Y290525D01*
X382816Y290497D01*
X382890Y290469D01*
X382973Y290432D01*
X383075Y290405D01*
X383195Y290368D01*
X383334Y290331D01*
X383491Y290294D01*
X383667Y290257D01*
X383861Y290229D01*
X384083Y290201D01*
X384323Y290183D01*
X384582Y290173D01*
X384869Y290164D01*
X384887D01*
X384933D01*
X385017D01*
X385128Y290173D01*
X385248D01*
X385396Y290183D01*
X385553Y290192D01*
X385719Y290210D01*
X386080Y290257D01*
X386256Y290285D01*
X386422Y290322D01*
X386579Y290358D01*
X386727Y290414D01*
X386856Y290469D01*
X386968Y290534D01*
X386977D01*
X386986Y290553D01*
X387051Y290599D01*
X387134Y290682D01*
X387226Y290784D01*
X387319Y290922D01*
X387402Y291080D01*
X387467Y291255D01*
X387476Y291348D01*
X387485Y291449D01*
Y291505D01*
X387476Y291542D01*
X387458Y291634D01*
X387421Y291764D01*
X387356Y291903D01*
X387263Y292060D01*
X387208Y292134D01*
X387134Y292208D01*
X387060Y292281D01*
X386968Y292355D01*
X386958D01*
X386940Y292374D01*
X386912Y292393D01*
X386866Y292411D01*
X386801Y292448D01*
X386718Y292476D01*
X386625Y292513D01*
X386514Y292550D01*
X386376Y292577D01*
X386228Y292614D01*
X386052Y292651D01*
X385867Y292679D01*
X385645Y292698D01*
X385414Y292716D01*
X385155Y292735D01*
D02*
G37*
G36*
X205469Y287529D02*
X205460D01*
X205451D01*
X205395D01*
X205312Y287511D01*
X205210Y287492D01*
X205099Y287455D01*
X204979Y287400D01*
X204859Y287326D01*
X204739Y287224D01*
X204730Y287215D01*
X204693Y287169D01*
X204646Y287104D01*
X204591Y287021D01*
X204535Y286910D01*
X204489Y286790D01*
X204452Y286642D01*
X204443Y286485D01*
Y286411D01*
X204461Y286327D01*
X204480Y286216D01*
X204517Y286096D01*
X204563Y285967D01*
X204637Y285847D01*
X204739Y285726D01*
X204748Y285717D01*
X204785Y285680D01*
X204850Y285634D01*
X204933Y285588D01*
X205035Y285532D01*
X205155Y285486D01*
X205284Y285449D01*
X205432Y285440D01*
X205441D01*
X205451D01*
X205506Y285449D01*
X205589Y285458D01*
X205691Y285477D01*
X205811Y285514D01*
X205931Y285560D01*
X206061Y285634D01*
X206172Y285726D01*
X206181Y285736D01*
X206218Y285782D01*
X206264Y285847D01*
X206311Y285930D01*
X206366Y286041D01*
X206412Y286170D01*
X206449Y286318D01*
X206458Y286485D01*
Y286503D01*
X206449Y286558D01*
X206440Y286642D01*
X206422Y286753D01*
X206385Y286873D01*
X206338Y286993D01*
X206264Y287122D01*
X206172Y287233D01*
X206163Y287243D01*
X206116Y287280D01*
X206061Y287326D01*
X205978Y287381D01*
X205876Y287437D01*
X205756Y287483D01*
X205617Y287520D01*
X205469Y287529D01*
D02*
G37*
G36*
X208409Y287788D02*
X208400D01*
X208382D01*
X208354D01*
X208317Y287779D01*
X208215Y287770D01*
X208076Y287742D01*
X207938Y287696D01*
X207781Y287631D01*
X207624Y287539D01*
X207475Y287409D01*
X207457Y287391D01*
X207420Y287344D01*
X207355Y287261D01*
X207281Y287150D01*
X207217Y287012D01*
X207152Y286845D01*
X207115Y286660D01*
X207097Y286457D01*
Y286401D01*
X207106Y286364D01*
X207115Y286263D01*
X207143Y286133D01*
X207189Y285985D01*
X207254Y285837D01*
X207346Y285680D01*
X207466Y285541D01*
X207485Y285523D01*
X207531Y285486D01*
X207614Y285431D01*
X207716Y285366D01*
X207855Y285292D01*
X208012Y285236D01*
X208187Y285199D01*
X208382Y285181D01*
X208400D01*
X208437D01*
X208502Y285190D01*
X208585Y285199D01*
X208687Y285218D01*
X208798Y285246D01*
X208909Y285283D01*
X209029Y285329D01*
X209038Y285338D01*
X209084Y285357D01*
X209140Y285394D01*
X209205Y285449D01*
X209288Y285514D01*
X209371Y285597D01*
X209445Y285689D01*
X209519Y285800D01*
X209528Y285819D01*
X209547Y285856D01*
X209574Y285921D01*
X209602Y286004D01*
X209630Y286105D01*
X209657Y286226D01*
X209676Y286355D01*
X209685Y286485D01*
Y286540D01*
X209676Y286577D01*
X209667Y286688D01*
X209639Y286817D01*
X209593Y286965D01*
X209537Y287122D01*
X209445Y287270D01*
X209325Y287418D01*
X209306Y287437D01*
X209260Y287474D01*
X209177Y287539D01*
X209075Y287603D01*
X208946Y287668D01*
X208788Y287733D01*
X208603Y287770D01*
X208409Y287788D01*
D02*
G37*
G36*
X294822Y287724D02*
X294813D01*
X294795D01*
X294758D01*
X294711Y287714D01*
X294647D01*
X294582Y287705D01*
X294434Y287677D01*
X294258Y287640D01*
X294073Y287575D01*
X293898Y287483D01*
X293741Y287363D01*
X293731D01*
X293722Y287344D01*
X293676Y287298D01*
X293611Y287224D01*
X293537Y287122D01*
X293472Y286993D01*
X293408Y286845D01*
X293361Y286679D01*
X293343Y286586D01*
Y286438D01*
X293352Y286401D01*
X293361Y286300D01*
X293398Y286179D01*
X293445Y286031D01*
X293528Y285874D01*
X293630Y285717D01*
X293704Y285643D01*
X293778Y285569D01*
X293787D01*
X293796Y285551D01*
X293824Y285532D01*
X293852Y285514D01*
X293944Y285449D01*
X294073Y285384D01*
X294231Y285310D01*
X294425Y285246D01*
X294647Y285209D01*
X294887Y285190D01*
X294896D01*
X294915D01*
X294942D01*
X294989Y285199D01*
X295044D01*
X295100Y285209D01*
X295238Y285236D01*
X295396Y285283D01*
X295562Y285338D01*
X295728Y285431D01*
X295876Y285551D01*
X295895Y285569D01*
X295932Y285616D01*
X295996Y285699D01*
X296061Y285800D01*
X296135Y285939D01*
X296200Y286096D01*
X296237Y286272D01*
X296255Y286466D01*
Y286521D01*
X296246Y286558D01*
X296237Y286660D01*
X296209Y286780D01*
X296163Y286928D01*
X296098Y287076D01*
X296006Y287224D01*
X295876Y287363D01*
X295858Y287381D01*
X295802Y287418D01*
X295719Y287474D01*
X295599Y287548D01*
X295451Y287612D01*
X295275Y287668D01*
X295063Y287705D01*
X294822Y287724D01*
D02*
G37*
G36*
X385765Y413901D02*
X382899D01*
X385765Y411885D01*
Y413901D01*
D02*
G37*
%LPD*%
D12*
X534300Y356300D02*
X593800D01*
Y457300D01*
X534300D02*
X593800D01*
X534300Y356300D02*
Y457300D01*
X445400Y356300D02*
X504900D01*
Y457300D01*
X445400D02*
X504900D01*
X445400Y356300D02*
Y457300D01*
X356500Y229300D02*
X416000D01*
Y330300D01*
X356500D02*
X416000D01*
X356500Y229300D02*
Y330300D01*
X89800Y228900D02*
X149300D01*
Y329900D01*
X89800D02*
X149300D01*
X89800Y228900D02*
Y329900D01*
X178700Y229300D02*
X238200D01*
Y330300D01*
X178700D02*
X238200D01*
X178700Y229300D02*
Y330300D01*
X267600Y229300D02*
X327100D01*
Y330300D01*
X267600D02*
X327100D01*
X267600Y229300D02*
Y330300D01*
X534300Y229300D02*
X593800D01*
Y330300D01*
X534300D02*
X593800D01*
X534300Y229300D02*
Y330300D01*
X445400Y229300D02*
X504900D01*
Y330300D01*
X445400D02*
X504900D01*
X445400Y229300D02*
Y330300D01*
X89800Y356300D02*
X149300D01*
Y457300D01*
X89800D02*
X149300D01*
X89800Y356300D02*
Y457300D01*
X267600Y356300D02*
X327100D01*
Y457300D01*
X267600D02*
X327100D01*
X267600Y356300D02*
Y457300D01*
X356500Y356300D02*
X416000D01*
Y457300D01*
X356500D02*
X416000D01*
X356500Y356300D02*
Y457300D01*
X178700Y356300D02*
X238200D01*
Y457300D01*
X178700D02*
X238200D01*
X178700Y356300D02*
Y457300D01*
M02*
